M48
;Layer_Color=9474304
;FILE_FORMAT=4:4
METRIC,LZ
;TYPE=PLATED
T01F00S00C0.6500
T02F00S00C0.7000
T03F00S00C0.7112
T04F00S00C0.8000
T05F00S00C0.8890
T06F00S00C0.9000
T07F00S00C0.9500
T08F00S00C1.0000
T09F00S00C1.0200
T10F00S00C1.1500
T11F00S00C1.2000
T12F00S00C1.4000
T13F00S00C1.5000
T14F00S00C1.5500
T15F00S00C1.7780
T16F00S00C2.5500
;TYPE=NON_PLATED
T17F00S00C3.2639
%
T01
X008509Y0059817
X008709
X0118491Y0108712
Y0111252
T02
X0123952Y0061468
Y0063968
X0130322Y0062611
X0132822
X0131318Y0067477
Y0072477
X01332601Y0079336
X01408861
X0147233Y0070993
X0152233
X0102195Y0067056
X0099695
X0093726Y0065826
Y0068326
X0083439Y0112034
Y0114534
X013322Y0081661
X0140846
T03
X0094234Y0092583
X0119Y0098
T04
X0136779Y00502615
X01396954Y00502615
X0142748
Y00598215
X01396954
X0136779Y00598215
X0127762Y0070912
X0105237Y0060833
X0095677
X0083393Y0064262
X008352Y0067437
X0091994Y0078613
X0101554
X007396Y0067437
X0073833Y0064262
X0080102Y0088138
X0080183Y0091186
X0089743
X0089662Y0088138
X0091867Y0107315
X0101427
X0127762Y0080472
T05
X0092456Y0050673
X0094996
T06
X01351921Y0067691
Y0070231
Y0072771
Y0075311
X01428121
Y0072771
Y0070231
Y0067691
X0149225Y0066167
Y0063627
Y0061087
X0109534Y0079248
X0106934
X0104334
Y0086106
X0106934
X0109534
T07
X008243Y0077724
X007493
Y0101727
X008243
X01383885Y01028147
X01458885
Y01204264
X01383885
T08
X0146558Y0050292
X0149098
X0153162
X0155702
X0150114Y0075692
Y0078232
X0108847Y0074168
X0106557
X0104267
X0115Y005984
X0081407Y0060325
X0078867
X00762
X007366
X0092461Y0100838
Y01041265
X0101341
Y0100838
X009773Y0114427
X009023
X01141873Y0112141
Y0109601
Y0107061
X0115Y0086
X0150114Y0080772
X01575971Y0101473
X01650971
T09
X0149225Y0085344
X0151765
X0151765Y0088265
X0149225
X0149225Y0091186
X0151765
T10
X0092094Y00745923
X0101094
X0101147Y0082423
X0092147
T11
X015367Y0100584
Y0104394
Y0108204
Y0112014
T12
X0085217Y005334
X01023995Y00533943
X01087495
X01150995
X0078867Y005334
X0072517
X0123063Y010668
Y010922
Y011176
T13
X0160346Y00741187
Y00967187
X0111757Y0129921
X0089157
T14
X0081661Y0121031
X0089161
X0099161
X0074161
T15
X016002Y0061087
Y0066167
X0129413Y0052578
X0124333
X01608081Y0109728
Y0114808
X0081788Y0129286
X0076708
T16
X0109982Y0094361
X0127Y0094107
Y0119507
X0109982Y0119761
T17
X0170942Y0047879
X006477
X0170942Y0137922
X006477
M30
