%TF.GenerationSoftware,Altium Limited,Altium Designer,24.6.1 (21)*%
G04 Layer_Physical_Order=2*
G04 Layer_Color=16711680*
%FSLAX45Y45*%
%MOMM*%
%TF.SameCoordinates,0617DE4C-FBCD-45B3-9FC9-0F316C81E249*%
%TF.FilePolarity,Positive*%
%TF.FileFunction,Copper,L2,Bot,Signal*%
%TF.Part,Single*%
G01*
G75*
%TA.AperFunction,Conductor*%
%ADD10C,1.00000*%
%ADD11C,0.60000*%
%ADD12C,0.30000*%
%TA.AperFunction,ComponentPad*%
%ADD13C,3.26390*%
%ADD14C,1.90000*%
%ADD15R,1.90000X1.90000*%
%ADD16C,1.60000*%
%ADD17C,1.40000*%
%ADD18R,1.40000X1.40000*%
%ADD19R,1.55000X1.55000*%
%ADD20C,1.55000*%
%ADD21R,1.45000X1.45000*%
%ADD22C,1.45000*%
%ADD23C,2.72800*%
%ADD24R,2.72800X2.72800*%
%ADD25C,2.15000*%
%ADD26R,2.15000X2.15000*%
%ADD27R,3.85000X3.85000*%
%ADD28C,3.85000*%
%ADD29R,1.20000X1.20000*%
%ADD30C,1.20000*%
%ADD31R,1.40000X1.40000*%
%ADD32R,1.60000X1.60000*%
%ADD33C,1.30000*%
%ADD34R,1.30000X1.30000*%
%ADD35R,1.55000X1.55000*%
%ADD36C,1.15000*%
%ADD37R,1.15000X1.15000*%
%ADD38R,1.20000X1.20000*%
%ADD39R,1.50000X1.50000*%
%ADD40C,1.50000*%
%ADD41C,1.65000*%
%ADD42R,1.65000X1.65000*%
%ADD43R,1.30000X1.30000*%
%ADD44R,2.30000X2.30000*%
%ADD45C,2.30000*%
%ADD46R,2.30000X2.30000*%
%ADD47R,2.35000X2.35000*%
%ADD48C,2.35000*%
%ADD49R,1.60000X1.60000*%
%ADD50R,2.72800X2.72800*%
%ADD51R,1.15000X1.15000*%
%ADD52C,1.60000*%
%ADD53R,1.60000X1.60000*%
%ADD54R,1.85000X1.85000*%
%ADD55C,1.85000*%
%TA.AperFunction,ViaPad*%
%ADD56C,1.27000*%
G36*
X16800000Y13950000D02*
Y13450000D01*
X17400000D01*
Y5100000D01*
X16800000D01*
Y4600000D01*
X6800000D01*
Y5100000D01*
X6250000D01*
Y13500000D01*
X6800000D01*
Y13950000D01*
X16774600D01*
X16800000Y13950000D01*
D02*
G37*
%LPC*%
G36*
X11194186Y13132498D02*
X11157218D01*
X11121509Y13122931D01*
X11089494Y13104446D01*
X11077731Y13092683D01*
X11076022Y13091640D01*
X11070690Y13086723D01*
X11065842Y13083080D01*
X11060438Y13079788D01*
X11054414Y13076849D01*
X11047716Y13074277D01*
X11040301Y13072099D01*
X11032137Y13070351D01*
X11023226Y13069064D01*
X11013549Y13068274D01*
X11008731Y13068149D01*
X9805100D01*
X9785416Y13065558D01*
X9767074Y13057961D01*
X9751324Y13045874D01*
X8983601Y12278151D01*
X8979828Y12274576D01*
X8972307Y12268235D01*
X8964935Y12262783D01*
X8957728Y12258191D01*
X8950693Y12254425D01*
X8943831Y12251445D01*
X8937127Y12249205D01*
X8930549Y12247660D01*
X8924034Y12246772D01*
X8916278Y12246472D01*
X8914303Y12246000D01*
X8897288D01*
X8860944Y12236262D01*
X8828359Y12217449D01*
X8801753Y12190843D01*
X8782940Y12158257D01*
X8773201Y12121913D01*
Y12084287D01*
X8782940Y12047943D01*
X8801753Y12015357D01*
X8828359Y11988751D01*
X8860944Y11969938D01*
X8897288Y11960200D01*
X8934914D01*
X8971258Y11969938D01*
X9003844Y11988751D01*
X9030450Y12015357D01*
X9049263Y12047943D01*
X9059001Y12084287D01*
Y12101303D01*
X9059473Y12103277D01*
X9059773Y12111033D01*
X9060661Y12117548D01*
X9062206Y12124126D01*
X9064446Y12130830D01*
X9067426Y12137693D01*
X9071192Y12144727D01*
X9075782Y12151933D01*
X9081236Y12159306D01*
X9087577Y12166827D01*
X9091153Y12170600D01*
X9836601Y12916048D01*
X11008730D01*
X11013549Y12915923D01*
X11023226Y12915132D01*
X11032138Y12913847D01*
X11040301Y12912097D01*
X11047716Y12909921D01*
X11054414Y12907349D01*
X11060438Y12904408D01*
X11065842Y12901117D01*
X11070690Y12897473D01*
X11076022Y12892558D01*
X11077731Y12891513D01*
X11089494Y12879750D01*
X11121509Y12861266D01*
X11157218Y12851698D01*
X11194186D01*
X11229894Y12861266D01*
X11261909Y12879750D01*
X11288050Y12905891D01*
X11306534Y12937906D01*
X11316102Y12973615D01*
Y13010583D01*
X11306534Y13046291D01*
X11288050Y13078307D01*
X11261909Y13104446D01*
X11229894Y13122931D01*
X11194186Y13132498D01*
D02*
G37*
G36*
X9056101D02*
X8775301D01*
Y12851698D01*
X9056101D01*
Y13132498D01*
D02*
G37*
G36*
X8340600Y13090401D02*
X8017000D01*
Y12766800D01*
X8340600D01*
Y13090401D01*
D02*
G37*
G36*
X7686736D02*
X7654864D01*
X7623605Y13084183D01*
X7594159Y13071985D01*
X7567658Y13054279D01*
X7545122Y13031741D01*
X7527415Y13005241D01*
X7515218Y12975795D01*
X7509000Y12944536D01*
Y12912663D01*
X7515218Y12881406D01*
X7527415Y12851959D01*
X7545122Y12825458D01*
X7567658Y12802922D01*
X7594159Y12785215D01*
X7623605Y12773018D01*
X7654864Y12766800D01*
X7686736D01*
X7717995Y12773018D01*
X7747441Y12785215D01*
X7773942Y12802922D01*
X7796478Y12825458D01*
X7814185Y12851959D01*
X7826382Y12881406D01*
X7832600Y12912663D01*
Y12944536D01*
X7826382Y12975795D01*
X7814185Y13005241D01*
X7796478Y13031741D01*
X7773942Y13054279D01*
X7747441Y13071985D01*
X7717995Y13084183D01*
X7686736Y13090401D01*
D02*
G37*
G36*
X14686752Y12140538D02*
X14601553D01*
Y12055338D01*
X14686752D01*
Y12140538D01*
D02*
G37*
G36*
X14576154D02*
X14490952D01*
Y12055338D01*
X14576154D01*
Y12140538D01*
D02*
G37*
G36*
X10058999Y12246000D02*
X9773199D01*
Y12203402D01*
X9772772Y12199361D01*
X9771866Y12196800D01*
X9770349Y12194532D01*
X9767470Y12191867D01*
X9762430Y12188796D01*
X9754820Y12185692D01*
X9744567Y12182940D01*
X9731753Y12180811D01*
X9716485Y12179468D01*
X9704400Y12179151D01*
X9295428D01*
X9275744Y12176559D01*
X9265000Y12172109D01*
X9257403Y12168962D01*
X9241652Y12156876D01*
X8778726Y11693950D01*
X8508399D01*
X8488716Y11691358D01*
X8470374Y11683761D01*
X8454623Y11671675D01*
X8382577Y11599629D01*
X8359190Y11577903D01*
X8347340Y11568265D01*
X8335927Y11559939D01*
X8325217Y11553088D01*
X8315268Y11547685D01*
X8306155Y11543685D01*
X8297930Y11541003D01*
X8290640Y11539515D01*
X8282370Y11538928D01*
X8281904Y11538800D01*
X8258500D01*
Y11514064D01*
X8258307Y11513095D01*
X8258489Y11512183D01*
X8258372Y11511260D01*
X8258500Y11510794D01*
Y11368000D01*
X8401294D01*
X8401760Y11367872D01*
X8402683Y11367989D01*
X8403595Y11367807D01*
X8404564Y11368000D01*
X8429300D01*
Y11391403D01*
X8429428Y11391870D01*
X8430015Y11400140D01*
X8431503Y11407432D01*
X8434185Y11415655D01*
X8438186Y11424769D01*
X8443589Y11434720D01*
X8450439Y11445427D01*
X8458584Y11456592D01*
X8480057Y11481760D01*
X8486813Y11488761D01*
X8539900Y11541848D01*
X8810227D01*
X8829910Y11544440D01*
X8848252Y11552037D01*
X8864003Y11564123D01*
X9326929Y12027049D01*
X9704400D01*
X9716485Y12026732D01*
X9731753Y12025389D01*
X9744567Y12023260D01*
X9754820Y12020508D01*
X9762430Y12017404D01*
X9767470Y12014333D01*
X9770350Y12011668D01*
X9771866Y12009400D01*
X9772772Y12006839D01*
X9773199Y12002798D01*
Y11960200D01*
X10058999D01*
Y12246000D01*
D02*
G37*
G36*
X8184913D02*
X8147287D01*
X8110943Y12236262D01*
X8078357Y12217449D01*
X8051751Y12190843D01*
X8032938Y12158257D01*
X8023200Y12121913D01*
Y12084287D01*
X8032938Y12047943D01*
X8051751Y12015357D01*
X8078357Y11988751D01*
X8110943Y11969938D01*
X8147287Y11960200D01*
X8184913D01*
X8221257Y11969938D01*
X8253843Y11988751D01*
X8280449Y12015357D01*
X8299262Y12047943D01*
X8309000Y12084287D01*
Y12121913D01*
X8299262Y12158257D01*
X8280449Y12190843D01*
X8253843Y12217449D01*
X8221257Y12236262D01*
X8184913Y12246000D01*
D02*
G37*
G36*
X7434912D02*
X7397286D01*
X7360942Y12236262D01*
X7328356Y12217449D01*
X7301750Y12190843D01*
X7282937Y12158257D01*
X7273199Y12121913D01*
Y12084287D01*
X7282937Y12047943D01*
X7301750Y12015357D01*
X7328356Y11988751D01*
X7360942Y11969938D01*
X7397286Y11960200D01*
X7434912D01*
X7471256Y11969938D01*
X7503841Y11988751D01*
X7530447Y12015357D01*
X7549260Y12047943D01*
X7558999Y12084287D01*
Y12121913D01*
X7549260Y12158257D01*
X7530447Y12190843D01*
X7503841Y12217449D01*
X7471256Y12236262D01*
X7434912Y12246000D01*
D02*
G37*
G36*
X14686752Y12029938D02*
X14601553D01*
Y11944738D01*
X14686752D01*
Y12029938D01*
D02*
G37*
G36*
X14576154D02*
X14490952D01*
Y11944738D01*
X14576154D01*
Y12029938D01*
D02*
G37*
G36*
X13851740Y12140538D02*
X13825963D01*
X13801064Y12133866D01*
X13778740Y12120977D01*
X13760512Y12102750D01*
X13747623Y12080426D01*
X13740952Y12055527D01*
Y12029749D01*
X13747623Y12004850D01*
X13760512Y11982526D01*
X13778740Y11964298D01*
X13801064Y11951410D01*
X13825963Y11944738D01*
X13851740D01*
X13876640Y11951410D01*
X13898962Y11964298D01*
X13917191Y11982526D01*
X13930080Y12004850D01*
X13936751Y12029749D01*
Y12055527D01*
X13930080Y12080426D01*
X13917191Y12102750D01*
X13898962Y12120977D01*
X13876640Y12133866D01*
X13851740Y12140538D01*
D02*
G37*
G36*
X11216102Y12193998D02*
X10780302D01*
Y11758198D01*
X11216102D01*
Y12193998D01*
D02*
G37*
G36*
X12917900Y12168600D02*
X12482100D01*
Y11732800D01*
X12917900D01*
Y12168600D01*
D02*
G37*
G36*
X13378319Y11395386D02*
X13378317Y11395385D01*
X12062802D01*
X12062800Y11395386D01*
X12041184Y11391086D01*
X12022859Y11378841D01*
X11859797Y11215780D01*
X11857756Y11214017D01*
X11855121Y11212052D01*
X11852693Y11210455D01*
X11850779Y11209379D01*
X11849472Y11208781D01*
X11848960Y11208606D01*
X11847911Y11208535D01*
X11846306Y11208100D01*
X11838186D01*
X11817102Y11202451D01*
X11798198Y11191536D01*
X11782764Y11176102D01*
X11771850Y11157198D01*
X11766200Y11136114D01*
Y11114286D01*
X11771850Y11093202D01*
X11782764Y11074298D01*
X11791077Y11065985D01*
X11781005Y11040585D01*
X11768654D01*
X11768653Y11040585D01*
X11747037Y11036286D01*
X11728712Y11024041D01*
X11728711Y11024040D01*
X11516170Y10811500D01*
X11313333D01*
Y10712227D01*
X11313140Y10711258D01*
X11313333Y10710288D01*
Y10686653D01*
X11312031Y10684375D01*
X11306598Y10676564D01*
X11291653Y10658903D01*
X10381158Y9748408D01*
X10358234Y9759438D01*
X10360459Y9764810D01*
X10363051Y9784494D01*
Y10191999D01*
X11055101Y10884049D01*
X11315009D01*
X11331718Y10883684D01*
X11342599Y10882837D01*
X11346093Y10882368D01*
X11347717Y10882058D01*
X11354015Y10875759D01*
X11378050Y10861883D01*
X11404856Y10854700D01*
X11432609D01*
X11459415Y10861883D01*
X11483450Y10875759D01*
X11503074Y10895383D01*
X11516950Y10919417D01*
X11524132Y10946224D01*
Y10973976D01*
X11516950Y11000783D01*
X11503074Y11024817D01*
X11483450Y11044441D01*
X11459415Y11058317D01*
X11432609Y11065500D01*
X11404856D01*
X11378050Y11058317D01*
X11354015Y11044441D01*
X11347717Y11038142D01*
X11346981Y11038002D01*
X11317985Y11036151D01*
X11023600D01*
X11003917Y11033559D01*
X10993172Y11029109D01*
X10985575Y11025962D01*
X10969824Y11013876D01*
X10260068Y10304120D01*
X10237000Y10316973D01*
X10237000Y10332158D01*
Y10515550D01*
X10031200D01*
Y10309750D01*
X10212786D01*
X10229777Y10309750D01*
X10242630Y10286682D01*
X10233224Y10277276D01*
X10221138Y10261525D01*
X10213541Y10243183D01*
X10210949Y10223500D01*
Y10186877D01*
X10185549Y10172914D01*
X10173818Y10179688D01*
X10147647Y10186700D01*
X10146800D01*
Y10083800D01*
Y9980900D01*
X10147647D01*
X10173818Y9987912D01*
X10185549Y9994686D01*
X10210949Y9980723D01*
Y9815995D01*
X9160929Y8765974D01*
X9148843Y8750223D01*
X9141245Y8731881D01*
X9138654Y8712198D01*
Y8420677D01*
X9137568Y8390339D01*
X9136147Y8377092D01*
X9134227Y8366016D01*
X9132000Y8357560D01*
X9129794Y8351956D01*
X9128743Y8350198D01*
X9106804D01*
Y8325462D01*
X9106612Y8324493D01*
X9106804Y8323524D01*
Y8134398D01*
X9322604D01*
Y8323524D01*
X9322797Y8324493D01*
X9322604Y8325462D01*
Y8350198D01*
X9300666D01*
X9299614Y8351956D01*
X9297409Y8357561D01*
X9295182Y8366016D01*
X9293321Y8376750D01*
X9290906Y8406753D01*
X9290755Y8415672D01*
Y8680697D01*
X9855282Y9245223D01*
X9878690Y9232711D01*
X9876165Y9220018D01*
X9876166Y9220017D01*
Y8084057D01*
X9876165Y8084056D01*
X9880465Y8062440D01*
X9892710Y8044115D01*
X10040549Y7896275D01*
X10050791Y7885254D01*
X10058179Y7876038D01*
X10063854Y7867910D01*
X10065005Y7865907D01*
Y7770903D01*
X10092531D01*
X10092694Y7770852D01*
X10094225Y7770691D01*
X10094722Y7769878D01*
X10096020Y7766705D01*
X10097368Y7761700D01*
X10098496Y7754933D01*
X10098919Y7750131D01*
Y7587843D01*
X10098494Y7583003D01*
X10097364Y7576196D01*
X10096009Y7571140D01*
X10094699Y7567924D01*
X10094215Y7567128D01*
X10001503D01*
Y7351328D01*
X10046530D01*
X10046692Y7351278D01*
X10048224Y7351116D01*
X10048721Y7350304D01*
X10050019Y7347130D01*
X10051366Y7342126D01*
X10052494Y7335358D01*
X10052918Y7330556D01*
Y6868900D01*
X9983204Y6799186D01*
X9981242Y6797605D01*
X9978236Y6795441D01*
X9975629Y6793804D01*
X9973482Y6792666D01*
X9971852Y6791973D01*
X9970794Y6791643D01*
X9970324Y6791554D01*
X9968564Y6791449D01*
X9966845Y6791000D01*
X9958257D01*
X9936537Y6785180D01*
X9917063Y6773937D01*
X9901163Y6758037D01*
X9889920Y6738563D01*
X9884100Y6716843D01*
Y6694357D01*
X9889920Y6672637D01*
X9901163Y6653163D01*
X9917063Y6637263D01*
X9936537Y6626020D01*
X9958257Y6620200D01*
X9980743D01*
X10002463Y6626020D01*
X10021937Y6637263D01*
X10037837Y6653163D01*
X10049080Y6672637D01*
X10054900Y6694357D01*
Y6702946D01*
X10055349Y6704664D01*
X10055454Y6706423D01*
X10055543Y6706894D01*
X10055874Y6707953D01*
X10056565Y6709581D01*
X10057703Y6711729D01*
X10059342Y6714338D01*
X10061319Y6717085D01*
X10063829Y6720046D01*
X10110636Y6766853D01*
X10134102Y6757133D01*
Y6718300D01*
X10206802D01*
Y6791000D01*
X10169789D01*
X10156586Y6816400D01*
X10161589Y6823887D01*
X10165889Y6845503D01*
X10165888Y6845504D01*
Y7330556D01*
X10166312Y7335361D01*
X10167440Y7342125D01*
X10168788Y7347131D01*
X10170086Y7350304D01*
X10170582Y7351116D01*
X10172114Y7351278D01*
X10172277Y7351328D01*
X10217303D01*
Y7538987D01*
X10217416Y7539385D01*
X10217303Y7540338D01*
Y7540521D01*
X10217496Y7541505D01*
X10217303Y7542458D01*
Y7567128D01*
X10213001D01*
X10211890Y7583272D01*
Y7750131D01*
X10212314Y7754936D01*
X10213441Y7761699D01*
X10214789Y7766705D01*
X10216088Y7769879D01*
X10216584Y7770691D01*
X10218115Y7770852D01*
X10218278Y7770903D01*
X10245805D01*
Y7951702D01*
X10150800D01*
X10148796Y7952854D01*
X10140959Y7958325D01*
X10123287Y7973303D01*
X9989136Y8107453D01*
Y8195886D01*
X10014156Y8200650D01*
X10028361Y8176046D01*
X10048451Y8155957D01*
X10073055Y8141751D01*
X10100497Y8134398D01*
X10128908D01*
X10156351Y8141751D01*
X10180955Y8155957D01*
X10201044Y8176046D01*
X10215250Y8200650D01*
X10222603Y8228093D01*
Y8256503D01*
X10215250Y8283946D01*
X10201044Y8308550D01*
X10180955Y8328639D01*
X10156351Y8342845D01*
X10128908Y8350198D01*
X10100497D01*
X10073055Y8342845D01*
X10048451Y8328639D01*
X10028361Y8308550D01*
X10014156Y8283946D01*
X9989136Y8288710D01*
Y9196621D01*
X11368648Y10576133D01*
X11379721Y10586415D01*
X11388904Y10593762D01*
X11397008Y10599399D01*
X11399285Y10600700D01*
X11422921D01*
X11423890Y10600507D01*
X11424860Y10600700D01*
X11497647D01*
Y10366008D01*
X10393459Y9261821D01*
X10381215Y9243496D01*
X10376915Y9221880D01*
X10376915Y9221878D01*
Y8726692D01*
X10376490Y8721841D01*
X10375359Y8715023D01*
X10374003Y8709964D01*
X10372696Y8706750D01*
X10372239Y8706000D01*
X10338001D01*
Y8515200D01*
X10528800D01*
Y8706000D01*
X10494562D01*
X10494106Y8706750D01*
X10492798Y8709964D01*
X10491442Y8715023D01*
X10490312Y8721842D01*
X10489886Y8726692D01*
Y9198482D01*
X10759102Y9467699D01*
X10780302Y9452978D01*
Y9414637D01*
X10788676Y9372539D01*
X10805102Y9332884D01*
X10828948Y9297195D01*
X10859299Y9266844D01*
X10894988Y9242998D01*
X10934643Y9226572D01*
X10976741Y9218198D01*
X11019663D01*
X11061761Y9226572D01*
X11101416Y9242998D01*
X11137105Y9266844D01*
X11167456Y9297195D01*
X11191302Y9332884D01*
X11207728Y9372539D01*
X11216102Y9414637D01*
Y9457559D01*
X11207728Y9499657D01*
X11191302Y9539312D01*
X11167456Y9575001D01*
X11137105Y9605352D01*
X11101416Y9629198D01*
X11061761Y9645624D01*
X11019663Y9653998D01*
X10981322D01*
X10966601Y9675198D01*
X11594073Y10302670D01*
X11594074Y10302670D01*
X11606318Y10320996D01*
X11610618Y10342612D01*
X11610618Y10342613D01*
Y10746182D01*
X11742734Y10878298D01*
X11766200Y10868578D01*
Y10788300D01*
X11862900D01*
X11863869Y10788107D01*
X11864838Y10788300D01*
X11872175D01*
X11873318Y10787505D01*
X11881272Y10780775D01*
X14165982Y8496065D01*
Y8251500D01*
X13999200D01*
Y8080700D01*
X14170000D01*
Y8124909D01*
X14189600D01*
X14205363Y8128044D01*
X14218726Y8136973D01*
X14236301Y8154547D01*
X14245229Y8167911D01*
X14248364Y8183674D01*
Y8513127D01*
X14245229Y8528890D01*
X14236301Y8542253D01*
X12262776Y10515778D01*
X12275924Y10538551D01*
X12288803Y10535100D01*
X12323797D01*
X12357598Y10544157D01*
X12387903Y10561654D01*
X12412646Y10586397D01*
X12430143Y10616702D01*
X12439200Y10650503D01*
Y10685497D01*
X12430143Y10719298D01*
X12412646Y10749603D01*
X12387903Y10774346D01*
X12377530Y10780335D01*
Y10809665D01*
X12387903Y10815654D01*
X12412646Y10840397D01*
X12430143Y10870702D01*
X12439200Y10904503D01*
Y10939497D01*
X12430143Y10973298D01*
X12412646Y11003603D01*
X12398549Y11017700D01*
X12409070Y11043100D01*
X12439200D01*
Y11282415D01*
X13354922D01*
X13787492Y10849845D01*
Y10383118D01*
X13787401Y10382166D01*
X13786617Y10377492D01*
X13785580Y10373336D01*
X13784325Y10369658D01*
X13782878Y10366415D01*
X13781252Y10363541D01*
X13779434Y10360966D01*
X13777397Y10358622D01*
X13774155Y10355574D01*
X13773276Y10354343D01*
X13760512Y10341580D01*
X13747623Y10319256D01*
X13740952Y10294357D01*
Y10268579D01*
X13747623Y10243680D01*
X13760512Y10221356D01*
X13778740Y10203128D01*
X13801064Y10190240D01*
X13825963Y10183568D01*
X13851740D01*
X13876640Y10190240D01*
X13898962Y10203128D01*
X13917191Y10221356D01*
X13930080Y10243680D01*
X13936751Y10268579D01*
Y10294357D01*
X13930080Y10319256D01*
X13917191Y10341580D01*
X13913597Y10345173D01*
X13913242Y10345847D01*
X13910300Y10349472D01*
X13908273Y10352454D01*
X13906454Y10355689D01*
X13904829Y10359221D01*
X13903406Y10363096D01*
X13902194Y10367341D01*
X13901215Y10371980D01*
X13900490Y10377029D01*
X13900462Y10377357D01*
Y10873241D01*
X13900462Y10873242D01*
X13896162Y10894858D01*
X13883919Y10913183D01*
X13883919Y10913184D01*
X13418260Y11378841D01*
X13399934Y11391086D01*
X13378319Y11395386D01*
D02*
G37*
G36*
X9125898Y11545599D02*
X8920098D01*
Y11339799D01*
X9125898D01*
Y11545599D01*
D02*
G37*
G36*
X16096742Y11642600D02*
X16064871D01*
X16033612Y11636382D01*
X16004166Y11624185D01*
X15977666Y11606478D01*
X15955128Y11583942D01*
X15937422Y11557441D01*
X15925224Y11527995D01*
X15919006Y11496736D01*
Y11464864D01*
X15925224Y11433605D01*
X15937422Y11404159D01*
X15955128Y11377658D01*
X15977666Y11355122D01*
X16004166Y11337415D01*
X16033612Y11325218D01*
X16064871Y11319000D01*
X16096742D01*
X16128003Y11325218D01*
X16157448Y11337415D01*
X16183949Y11355122D01*
X16206485Y11377658D01*
X16224193Y11404159D01*
X16236389Y11433605D01*
X16242607Y11464864D01*
Y11496736D01*
X16236389Y11527995D01*
X16224193Y11557441D01*
X16206485Y11583942D01*
X16183949Y11606478D01*
X16157448Y11624185D01*
X16128003Y11636382D01*
X16096742Y11642600D01*
D02*
G37*
G36*
X15382523Y11319300D02*
X15379700D01*
Y11214100D01*
X15484900D01*
Y11216922D01*
X15476865Y11246908D01*
X15461343Y11273792D01*
X15439392Y11295743D01*
X15412508Y11311265D01*
X15382523Y11319300D01*
D02*
G37*
G36*
X15354300D02*
X15351479D01*
X15321492Y11311265D01*
X15294608Y11295743D01*
X15272656Y11273792D01*
X15257135Y11246908D01*
X15249100Y11216922D01*
Y11214100D01*
X15354300D01*
Y11319300D01*
D02*
G37*
G36*
X11432609Y11319500D02*
X11404856D01*
X11378050Y11312317D01*
X11354015Y11298441D01*
X11334392Y11278817D01*
X11320516Y11254783D01*
X11313333Y11227976D01*
Y11200224D01*
X11320516Y11173417D01*
X11334392Y11149383D01*
X11354015Y11129759D01*
X11378050Y11115883D01*
X11404856Y11108700D01*
X11432609D01*
X11459415Y11115883D01*
X11483450Y11129759D01*
X11503074Y11149383D01*
X11516950Y11173417D01*
X11524132Y11200224D01*
Y11227976D01*
X11516950Y11254783D01*
X11503074Y11278817D01*
X11483450Y11298441D01*
X11459415Y11312317D01*
X11432609Y11319500D01*
D02*
G37*
G36*
X15484900Y11188700D02*
X15379700D01*
Y11083500D01*
X15382523D01*
X15412508Y11091535D01*
X15439392Y11107057D01*
X15461343Y11129008D01*
X15476865Y11155892D01*
X15484900Y11185878D01*
Y11188700D01*
D02*
G37*
G36*
X15354300D02*
X15249100D01*
Y11185878D01*
X15257135Y11155892D01*
X15272656Y11129008D01*
X15294608Y11107057D01*
X15321492Y11091535D01*
X15351479Y11083500D01*
X15354300D01*
Y11188700D01*
D02*
G37*
G36*
X16242607Y11134600D02*
X15919006D01*
Y10811000D01*
X16242607D01*
Y11134600D01*
D02*
G37*
G36*
X9786547Y11545599D02*
X9759452D01*
X9733282Y11538587D01*
X9709818Y11525039D01*
X9690659Y11505881D01*
X9677112Y11482417D01*
X9670100Y11456246D01*
Y11429152D01*
X9677112Y11402981D01*
X9690659Y11379517D01*
X9698758Y11371418D01*
X9699899Y11369594D01*
X9713402Y11355262D01*
X9718253Y11349325D01*
X9722438Y11343573D01*
X9725792Y11338278D01*
X9728346Y11333492D01*
X9730151Y11329269D01*
X9731291Y11325650D01*
X9731808Y11322998D01*
Y11148961D01*
X9302500Y10719653D01*
X9277100Y10730174D01*
Y10743401D01*
X9270939Y10766393D01*
X9259038Y10787007D01*
X9242207Y10803838D01*
X9221593Y10815739D01*
X9198601Y10821900D01*
X9174799D01*
X9151807Y10815739D01*
X9137624Y10807551D01*
X8847301D01*
X8425307Y11229545D01*
X8423480Y11236363D01*
X8412237Y11255837D01*
X8396337Y11271737D01*
X8376863Y11282980D01*
X8355143Y11288800D01*
X8332657D01*
X8310937Y11282980D01*
X8291463Y11271737D01*
X8275563Y11255837D01*
X8264320Y11236363D01*
X8258500Y11214643D01*
Y11192157D01*
X8264320Y11170437D01*
X8275563Y11150963D01*
X8291463Y11135063D01*
X8310937Y11123820D01*
X8317755Y11121993D01*
X8762024Y10677724D01*
X8777775Y10665638D01*
X8796117Y10658041D01*
X8815800Y10655449D01*
X9137624D01*
X9151807Y10647261D01*
X9174799Y10641100D01*
X9188026D01*
X9198547Y10615700D01*
X7576773Y8993927D01*
X7567844Y8980563D01*
X7564709Y8964800D01*
Y7873374D01*
X7539309Y7858709D01*
X7530788Y7863628D01*
X7505889Y7870300D01*
X7480111D01*
X7455212Y7863628D01*
X7432888Y7850739D01*
X7414661Y7832512D01*
X7401772Y7810188D01*
X7395100Y7785289D01*
Y7759511D01*
X7401772Y7734612D01*
X7414661Y7712288D01*
X7432888Y7694061D01*
X7455212Y7681172D01*
X7480111Y7674500D01*
X7505889D01*
X7530788Y7681172D01*
X7539309Y7686091D01*
X7564709Y7671426D01*
Y6665859D01*
X7424392Y6525543D01*
X7422866Y6524465D01*
X7420264Y6523012D01*
X7417070Y6521613D01*
X7413242Y6520321D01*
X7408752Y6519187D01*
X7403951Y6518324D01*
X7390955Y6517182D01*
X7383634Y6517092D01*
X7381308Y6516599D01*
X7371401D01*
X7348409Y6510439D01*
X7327796Y6498537D01*
X7310965Y6481706D01*
X7299063Y6461092D01*
X7292903Y6438101D01*
Y6414298D01*
X7299063Y6391306D01*
X7310965Y6370693D01*
X7327796Y6353862D01*
X7348409Y6341960D01*
X7371401Y6335800D01*
X7395204D01*
X7418195Y6341960D01*
X7438809Y6353862D01*
X7455640Y6370693D01*
X7467542Y6391306D01*
X7473702Y6414298D01*
Y6424205D01*
X7474195Y6426531D01*
X7474289Y6434195D01*
X7474685Y6440666D01*
X7475363Y6446490D01*
X7476290Y6451649D01*
X7477424Y6456139D01*
X7478717Y6459969D01*
X7480115Y6463161D01*
X7481568Y6465763D01*
X7482645Y6467289D01*
X7635027Y6619670D01*
X7643956Y6633034D01*
X7647091Y6648797D01*
Y8947738D01*
X9117800Y10418447D01*
X9143200Y10407926D01*
Y10399103D01*
X9150213Y10372932D01*
X9163760Y10349468D01*
X9182918Y10330310D01*
X9206382Y10316762D01*
X9232553Y10309750D01*
X9259647D01*
X9285818Y10316762D01*
X9309282Y10330310D01*
X9328441Y10349468D01*
X9341988Y10372932D01*
X9349000Y10399103D01*
Y10426197D01*
X9341988Y10452368D01*
X9328441Y10475832D01*
X9309282Y10494990D01*
X9285818Y10508538D01*
X9259647Y10515550D01*
X9250825D01*
X9240303Y10540950D01*
X9802126Y11102773D01*
X9811055Y11116136D01*
X9814191Y11131900D01*
Y11322998D01*
X9814708Y11325650D01*
X9815849Y11329270D01*
X9817653Y11333492D01*
X9820208Y11338279D01*
X9823561Y11343572D01*
X9827555Y11349061D01*
X9838872Y11362224D01*
X9845730Y11369211D01*
X9847053Y11371230D01*
X9855340Y11379517D01*
X9868887Y11402981D01*
X9875899Y11429152D01*
Y11456246D01*
X9868887Y11482417D01*
X9855340Y11505881D01*
X9836181Y11525039D01*
X9812717Y11538587D01*
X9786547Y11545599D01*
D02*
G37*
G36*
X15382523Y10938300D02*
X15351479D01*
X15321492Y10930265D01*
X15294608Y10914743D01*
X15272656Y10892792D01*
X15257135Y10865908D01*
X15249100Y10835922D01*
Y10804878D01*
X15257135Y10774892D01*
X15272656Y10748008D01*
X15294608Y10726057D01*
X15321492Y10710535D01*
X15351479Y10702500D01*
X15382523D01*
X15412508Y10710535D01*
X15439392Y10726057D01*
X15461343Y10748008D01*
X15476865Y10774892D01*
X15484900Y10804878D01*
Y10835922D01*
X15476865Y10865908D01*
X15461343Y10892792D01*
X15439392Y10914743D01*
X15412508Y10930265D01*
X15382523Y10938300D01*
D02*
G37*
G36*
X10233100Y10821900D02*
X10052300D01*
Y10641100D01*
X10233100D01*
Y10821900D01*
D02*
G37*
G36*
X15382523Y10557300D02*
X15351479D01*
X15321492Y10549265D01*
X15294608Y10533743D01*
X15272656Y10511792D01*
X15257135Y10484908D01*
X15249100Y10454922D01*
Y10423878D01*
X15257135Y10393892D01*
X15272656Y10367008D01*
X15294608Y10345057D01*
X15321492Y10329535D01*
X15351479Y10321500D01*
X15382523D01*
X15412508Y10329535D01*
X15439392Y10345057D01*
X15461343Y10367008D01*
X15476865Y10393892D01*
X15484900Y10423878D01*
Y10454922D01*
X15476865Y10484908D01*
X15461343Y10511792D01*
X15439392Y10533743D01*
X15412508Y10549265D01*
X15382523Y10557300D01*
D02*
G37*
G36*
X14686752Y10379368D02*
X14601553D01*
Y10294168D01*
X14686752D01*
Y10379368D01*
D02*
G37*
G36*
X14576154D02*
X14490952D01*
Y10294168D01*
X14576154D01*
Y10379368D01*
D02*
G37*
G36*
X8340901Y10270600D02*
X8255701D01*
Y10185400D01*
X8340901D01*
Y10270600D01*
D02*
G37*
G36*
X8230301D02*
X8145101D01*
Y10185400D01*
X8230301D01*
Y10270600D01*
D02*
G37*
G36*
X14686752Y10268768D02*
X14601553D01*
Y10183568D01*
X14686752D01*
Y10268768D01*
D02*
G37*
G36*
X14576154D02*
X14490952D01*
Y10183568D01*
X14576154D01*
Y10268768D01*
D02*
G37*
G36*
X10121400Y10186700D02*
X10120553D01*
X10094382Y10179688D01*
X10070918Y10166140D01*
X10051759Y10146982D01*
X10038212Y10123518D01*
X10031200Y10097347D01*
Y10096500D01*
X10121400D01*
Y10186700D01*
D02*
G37*
G36*
X8340901Y10160000D02*
X8255701D01*
Y10074800D01*
X8340901D01*
Y10160000D01*
D02*
G37*
G36*
X8230301D02*
X8145101D01*
Y10074800D01*
X8230301D01*
Y10160000D01*
D02*
G37*
G36*
X7505889Y10270600D02*
X7480111D01*
X7455212Y10263928D01*
X7432888Y10251039D01*
X7414661Y10232812D01*
X7401772Y10210488D01*
X7395100Y10185589D01*
Y10159811D01*
X7401772Y10134912D01*
X7414661Y10112588D01*
X7432888Y10094361D01*
X7455212Y10081472D01*
X7480111Y10074800D01*
X7505889D01*
X7530788Y10081472D01*
X7553112Y10094361D01*
X7571339Y10112588D01*
X7584228Y10134912D01*
X7590900Y10159811D01*
Y10185589D01*
X7584228Y10210488D01*
X7571339Y10232812D01*
X7553112Y10251039D01*
X7530788Y10263928D01*
X7505889Y10270600D01*
D02*
G37*
G36*
X16612607Y10250200D02*
X16406807D01*
Y10044400D01*
X16612607D01*
Y10250200D01*
D02*
G37*
G36*
X15773253D02*
X15746158D01*
X15719987Y10243188D01*
X15696524Y10229640D01*
X15677365Y10210482D01*
X15663818Y10187018D01*
X15656805Y10160847D01*
Y10133753D01*
X15663818Y10107582D01*
X15677365Y10084118D01*
X15696524Y10064960D01*
X15719987Y10051412D01*
X15746158Y10044400D01*
X15773253D01*
X15799425Y10051412D01*
X15822888Y10064960D01*
X15842046Y10084118D01*
X15855592Y10107582D01*
X15862605Y10133753D01*
Y10160847D01*
X15855592Y10187018D01*
X15842046Y10210482D01*
X15822888Y10229640D01*
X15799425Y10243188D01*
X15773253Y10250200D01*
D02*
G37*
G36*
X10121400Y10071100D02*
X10031200D01*
Y10070253D01*
X10038212Y10044082D01*
X10051759Y10020618D01*
X10070918Y10001460D01*
X10094382Y9987912D01*
X10120553Y9980900D01*
X10121400D01*
Y10071100D01*
D02*
G37*
G36*
X9349000Y10186700D02*
X9143200D01*
Y9980900D01*
X9349000D01*
Y10186700D01*
D02*
G37*
G36*
X15484900Y10176300D02*
X15249100D01*
Y9940500D01*
X15484900D01*
Y10176300D01*
D02*
G37*
G36*
X11911704Y9888900D02*
X11888296D01*
X11865686Y9882842D01*
X11845414Y9871138D01*
X11828862Y9854586D01*
X11817158Y9834314D01*
X11813096Y9819152D01*
X11812379Y9817599D01*
X11811808Y9815229D01*
X11811286Y9813721D01*
X11810398Y9811720D01*
X11809088Y9809273D01*
X11807324Y9806426D01*
X11805402Y9803677D01*
X11798990Y9796072D01*
X10720243Y8717326D01*
X10720125Y8717226D01*
X10716285Y8714375D01*
X10712628Y8712033D01*
X10709175Y8710173D01*
X10705921Y8708748D01*
X10702852Y8707713D01*
X10699939Y8707021D01*
X10697130Y8706633D01*
X10693086Y8706474D01*
X10691109Y8706000D01*
X10680840D01*
X10656577Y8699498D01*
X10634823Y8686939D01*
X10617061Y8669177D01*
X10604502Y8647423D01*
X10598000Y8623160D01*
Y8598040D01*
X10604502Y8573777D01*
X10617061Y8552023D01*
X10634823Y8534261D01*
X10656577Y8521702D01*
X10680840Y8515200D01*
X10705960D01*
X10730223Y8521702D01*
X10751977Y8534261D01*
X10769739Y8552023D01*
X10782298Y8573777D01*
X10788800Y8598040D01*
Y8608309D01*
X10789274Y8610286D01*
X10789433Y8614330D01*
X10789821Y8617139D01*
X10790513Y8620052D01*
X10791548Y8623121D01*
X10792973Y8626375D01*
X10794833Y8629828D01*
X10797174Y8633483D01*
X10800027Y8637327D01*
X10800124Y8637442D01*
X11868663Y9705981D01*
X11871568Y9708137D01*
X11874403Y9709928D01*
X11876785Y9711160D01*
X11878671Y9711910D01*
X11880051Y9712288D01*
X11880976Y9712421D01*
X11881561Y9712426D01*
X11883813Y9712127D01*
X11884336Y9712161D01*
X11888296Y9711100D01*
X11911704D01*
X11934314Y9717158D01*
X11954586Y9728862D01*
X11971138Y9745414D01*
X11982842Y9765686D01*
X11988900Y9788296D01*
Y9811704D01*
X11982842Y9834314D01*
X11971138Y9854586D01*
X11954586Y9871138D01*
X11934314Y9882842D01*
X11911704Y9888900D01*
D02*
G37*
G36*
X16053082Y9812273D02*
X16016113D01*
X15980406Y9802705D01*
X15948392Y9784221D01*
X15922250Y9758081D01*
X15903766Y9726065D01*
X15894199Y9690357D01*
Y9653389D01*
X15903766Y9617681D01*
X15922250Y9585665D01*
X15948392Y9559525D01*
X15980406Y9541041D01*
X16016113Y9531473D01*
X16053082D01*
X16088791Y9541041D01*
X16120805Y9559525D01*
X16146947Y9585665D01*
X16165430Y9617681D01*
X16174998Y9653389D01*
Y9690357D01*
X16165430Y9726065D01*
X16146947Y9758081D01*
X16120805Y9784221D01*
X16088791Y9802705D01*
X16053082Y9812273D01*
D02*
G37*
G36*
X9435104Y9347200D02*
X9411696D01*
X9389086Y9341142D01*
X9378537Y9335051D01*
X8598601D01*
X8578917Y9332460D01*
X8560575Y9324863D01*
X8544825Y9312777D01*
X8426699Y9194651D01*
X8067379D01*
X8053195Y9202840D01*
X8030204Y9209000D01*
X8006401D01*
X7983409Y9202840D01*
X7962796Y9190938D01*
X7945965Y9174107D01*
X7934063Y9153494D01*
X7927903Y9130502D01*
Y9106699D01*
X7934063Y9083708D01*
X7945965Y9063094D01*
X7962796Y9046263D01*
X7983409Y9034361D01*
X8006401Y9028201D01*
X8030204D01*
X8053195Y9034361D01*
X8067379Y9042550D01*
X8458201D01*
X8477884Y9045141D01*
X8496226Y9052739D01*
X8511976Y9064825D01*
X8630102Y9182950D01*
X8883903D01*
Y9028201D01*
X9064702D01*
Y9182950D01*
X9376110D01*
X9389086Y9175458D01*
X9411696Y9169400D01*
X9435104D01*
X9457714Y9175458D01*
X9477986Y9187162D01*
X9494538Y9203714D01*
X9506242Y9223986D01*
X9512300Y9246596D01*
Y9270004D01*
X9506242Y9292614D01*
X9494538Y9312886D01*
X9477986Y9329438D01*
X9457714Y9341142D01*
X9435104Y9347200D01*
D02*
G37*
G36*
X12721461Y9628600D02*
X12678539D01*
X12636441Y9620226D01*
X12596786Y9603800D01*
X12561097Y9579954D01*
X12530746Y9549603D01*
X12506900Y9513914D01*
X12490474Y9474259D01*
X12482100Y9432161D01*
Y9389239D01*
X12490474Y9347141D01*
X12506900Y9307486D01*
X12530746Y9271797D01*
X12561097Y9241446D01*
X12596786Y9217600D01*
X12636441Y9201174D01*
X12678539Y9192800D01*
X12721461D01*
X12763559Y9201174D01*
X12803214Y9217600D01*
X12838902Y9241446D01*
X12869254Y9271797D01*
X12893100Y9307486D01*
X12909526Y9347141D01*
X12917900Y9389239D01*
Y9432161D01*
X12909526Y9474259D01*
X12893100Y9513914D01*
X12869254Y9549603D01*
X12838902Y9579954D01*
X12803214Y9603800D01*
X12763559Y9620226D01*
X12721461Y9628600D01*
D02*
G37*
G36*
X15190047Y9221499D02*
X15189198D01*
Y9131299D01*
X15279399D01*
Y9132146D01*
X15272388Y9158317D01*
X15258839Y9181781D01*
X15239680Y9200939D01*
X15216217Y9214487D01*
X15190047Y9221499D01*
D02*
G37*
G36*
X15163799D02*
X15162952D01*
X15136781Y9214487D01*
X15113316Y9200939D01*
X15094159Y9181781D01*
X15080611Y9158317D01*
X15073599Y9132146D01*
Y9131299D01*
X15163799D01*
Y9221499D01*
D02*
G37*
G36*
X15279399Y9105899D02*
X15189198D01*
Y9015699D01*
X15190047D01*
X15216217Y9022711D01*
X15239680Y9036259D01*
X15258839Y9055417D01*
X15272388Y9078881D01*
X15279399Y9105052D01*
Y9105899D01*
D02*
G37*
G36*
X15163799D02*
X15073599D01*
Y9105052D01*
X15080611Y9078881D01*
X15094159Y9055417D01*
X15113316Y9036259D01*
X15136781Y9022711D01*
X15162952Y9015699D01*
X15163799D01*
Y9105899D01*
D02*
G37*
G36*
X15025398Y9221499D02*
X14819598D01*
Y9015699D01*
X15025398D01*
Y9221499D01*
D02*
G37*
G36*
X14936047Y8929400D02*
X14935201D01*
Y8839200D01*
X15025400D01*
Y8840047D01*
X15018388Y8866218D01*
X15004840Y8889682D01*
X14985683Y8908840D01*
X14962218Y8922388D01*
X14936047Y8929400D01*
D02*
G37*
G36*
X14909801D02*
X14908952D01*
X14882782Y8922388D01*
X14859319Y8908840D01*
X14840160Y8889682D01*
X14826611Y8866218D01*
X14819600Y8840047D01*
Y8839200D01*
X14909801D01*
Y8929400D01*
D02*
G37*
G36*
X8100600Y8904200D02*
X8022900D01*
Y8826500D01*
X8100600D01*
Y8904200D01*
D02*
G37*
G36*
X7997500D02*
X7919800D01*
Y8826500D01*
X7997500D01*
Y8904200D01*
D02*
G37*
G36*
X15279401Y8929400D02*
X15073599D01*
Y8723600D01*
X15279401D01*
Y8929400D01*
D02*
G37*
G36*
X15025400Y8813800D02*
X14935201D01*
Y8723600D01*
X14936047D01*
X14962218Y8730612D01*
X14985683Y8744160D01*
X15004840Y8763318D01*
X15018388Y8786782D01*
X15025400Y8812953D01*
Y8813800D01*
D02*
G37*
G36*
X14909801D02*
X14819600D01*
Y8812953D01*
X14826611Y8786782D01*
X14840160Y8763318D01*
X14859319Y8744160D01*
X14882782Y8730612D01*
X14908952Y8723600D01*
X14909801D01*
Y8813800D01*
D02*
G37*
G36*
X8978101Y8904200D02*
X8954299D01*
X8931307Y8898039D01*
X8910693Y8886138D01*
X8893862Y8869307D01*
X8881961Y8848693D01*
X8875800Y8825701D01*
Y8801899D01*
X8881961Y8778907D01*
X8893862Y8758293D01*
X8910693Y8741462D01*
X8931307Y8729561D01*
X8954299Y8723400D01*
X8978101D01*
X9001093Y8729561D01*
X9021707Y8741462D01*
X9038538Y8758293D01*
X9050439Y8778907D01*
X9056600Y8801899D01*
Y8825701D01*
X9050439Y8848693D01*
X9038538Y8869307D01*
X9021707Y8886138D01*
X9001093Y8898039D01*
X8978101Y8904200D01*
D02*
G37*
G36*
X8100600Y8801100D02*
X8022900D01*
Y8723400D01*
X8100600D01*
Y8801100D01*
D02*
G37*
G36*
X7997500D02*
X7919800D01*
Y8723400D01*
X7997500D01*
Y8801100D01*
D02*
G37*
G36*
X10965959Y8706000D02*
X10940840D01*
X10916577Y8699498D01*
X10894823Y8686939D01*
X10877061Y8669177D01*
X10864501Y8647423D01*
X10858000Y8623160D01*
Y8598040D01*
X10864501Y8573777D01*
X10877061Y8552023D01*
X10894823Y8534261D01*
X10916577Y8521702D01*
X10940840Y8515200D01*
X10965959D01*
X10990222Y8521702D01*
X11011976Y8534261D01*
X11029738Y8552023D01*
X11042298Y8573777D01*
X11048799Y8598040D01*
Y8623160D01*
X11042298Y8647423D01*
X11029738Y8669177D01*
X11011976Y8686939D01*
X10990222Y8699498D01*
X10965959Y8706000D01*
D02*
G37*
G36*
X11602900Y8702900D02*
X11397100D01*
Y8497100D01*
X11602900D01*
Y8702900D01*
D02*
G37*
G36*
X15279401Y8637301D02*
X15073601D01*
Y8431501D01*
X15279401D01*
Y8637301D01*
D02*
G37*
G36*
X13333243Y8251500D02*
X13310757D01*
X13289037Y8245680D01*
X13269563Y8234437D01*
X13253664Y8218537D01*
X13242419Y8199063D01*
X13236600Y8177343D01*
Y8154857D01*
X13242419Y8133137D01*
X13253664Y8113663D01*
X13269563Y8097763D01*
X13289037Y8086520D01*
X13310757Y8080700D01*
X13333243D01*
X13354964Y8086520D01*
X13374437Y8097763D01*
X13390337Y8113663D01*
X13401579Y8133137D01*
X13407401Y8154857D01*
Y8177343D01*
X13401579Y8199063D01*
X13390337Y8218537D01*
X13374437Y8234437D01*
X13354964Y8245680D01*
X13333243Y8251500D01*
D02*
G37*
G36*
X14936047Y8637301D02*
X14908954D01*
X14882784Y8630289D01*
X14859319Y8616741D01*
X14840161Y8597583D01*
X14826613Y8574119D01*
X14819601Y8547948D01*
Y8520854D01*
X14826613Y8494683D01*
X14840161Y8471219D01*
X14848247Y8463133D01*
X14849376Y8461323D01*
X14853233Y8457217D01*
X14855986Y8453742D01*
X14858391Y8450099D01*
X14860480Y8446250D01*
X14862271Y8442148D01*
X14863770Y8437746D01*
X14864967Y8433005D01*
X14865852Y8427886D01*
X14866016Y8426247D01*
Y8250045D01*
X14567958Y7951988D01*
X14555713Y7933662D01*
X14551413Y7912046D01*
X14551414Y7912045D01*
Y6677302D01*
X14551413Y6677301D01*
X14555713Y6655685D01*
X14567958Y6637360D01*
X14809262Y6396055D01*
X14810028Y6395130D01*
X14812971Y6391023D01*
X14815422Y6387007D01*
X14817409Y6383081D01*
X14818976Y6379222D01*
X14820155Y6375401D01*
X14820975Y6371575D01*
X14821449Y6367693D01*
X14821622Y6362583D01*
X14822099Y6360533D01*
Y6349482D01*
X14828941Y6323947D01*
X14842160Y6301053D01*
X14860854Y6282360D01*
X14883746Y6269142D01*
X14909282Y6262300D01*
X14935718D01*
X14961253Y6269142D01*
X14984148Y6282360D01*
X15002840Y6301053D01*
X15016058Y6323947D01*
X15022900Y6349482D01*
Y6375918D01*
X15016058Y6401453D01*
X15002840Y6424347D01*
X14984148Y6443040D01*
X14961253Y6456258D01*
X14935718Y6463100D01*
X14924667D01*
X14922617Y6463579D01*
X14917506Y6463751D01*
X14913623Y6464226D01*
X14909799Y6465045D01*
X14905977Y6466225D01*
X14902122Y6467790D01*
X14898192Y6469779D01*
X14894177Y6472227D01*
X14890070Y6475173D01*
X14889146Y6475937D01*
X14854225Y6510857D01*
X14869821Y6531182D01*
X14883746Y6523142D01*
X14909282Y6516300D01*
X14909801D01*
Y6604000D01*
X14822099D01*
Y6603482D01*
X14828941Y6577947D01*
X14836983Y6564021D01*
X14816656Y6548425D01*
X14664384Y6700698D01*
Y7005374D01*
X14689784Y7020039D01*
X14690337Y7019721D01*
X14710599Y7014291D01*
Y7099301D01*
Y7184310D01*
X14690337Y7178880D01*
X14689784Y7178562D01*
X14664384Y7193227D01*
Y7888649D01*
X14882533Y8106799D01*
X14906000Y8097079D01*
Y7971800D01*
X15116800D01*
Y8182600D01*
X14990247D01*
X14988669Y8183763D01*
X14977075Y8201399D01*
X14975278Y8208000D01*
X14978987Y8226649D01*
X14978986Y8226650D01*
Y8426247D01*
X14979149Y8427886D01*
X14980034Y8433005D01*
X14981233Y8437746D01*
X14982732Y8442148D01*
X14984521Y8446250D01*
X14986610Y8450099D01*
X14989017Y8453741D01*
X14991768Y8457216D01*
X14995625Y8461323D01*
X14996754Y8463133D01*
X15004842Y8471219D01*
X15018388Y8494683D01*
X15025401Y8520854D01*
Y8547948D01*
X15018388Y8574119D01*
X15004842Y8597583D01*
X14985683Y8616741D01*
X14962219Y8630289D01*
X14936047Y8637301D01*
D02*
G37*
G36*
X12788101Y8137602D02*
X12764299D01*
X12741307Y8131442D01*
X12720693Y8119541D01*
X12703862Y8102709D01*
X12691961Y8082096D01*
X12685800Y8059104D01*
Y8035301D01*
X12691961Y8012310D01*
X12703862Y7991696D01*
X12720693Y7974865D01*
X12741307Y7962963D01*
X12764299Y7956803D01*
X12788101D01*
X12811093Y7962963D01*
X12831706Y7974865D01*
X12848538Y7991696D01*
X12860439Y8012310D01*
X12866600Y8035301D01*
Y8059104D01*
X12860439Y8082096D01*
X12848538Y8102709D01*
X12831706Y8119541D01*
X12811093Y8131442D01*
X12788101Y8137602D01*
D02*
G37*
G36*
X14099857Y8019004D02*
X14077370D01*
X14055650Y8013184D01*
X14036176Y8001941D01*
X14020276Y7986040D01*
X14009033Y7966567D01*
X14003214Y7944847D01*
Y7922361D01*
X14009033Y7900641D01*
X14020276Y7881167D01*
X14036176Y7865267D01*
X14055650Y7854024D01*
X14077370Y7848204D01*
X14099857D01*
X14121576Y7854024D01*
X14141051Y7865267D01*
X14156950Y7881167D01*
X14168193Y7900641D01*
X14174013Y7922361D01*
Y7944847D01*
X14168193Y7966567D01*
X14156950Y7986040D01*
X14141051Y8001941D01*
X14121576Y8013184D01*
X14099857Y8019004D01*
D02*
G37*
G36*
X15025276Y7928600D02*
X15024100D01*
Y7835900D01*
X15116800D01*
Y7837076D01*
X15109618Y7863883D01*
X15095741Y7887917D01*
X15076117Y7907541D01*
X15052083Y7921417D01*
X15025276Y7928600D01*
D02*
G37*
G36*
X14998700D02*
X14997523D01*
X14970717Y7921417D01*
X14946683Y7907541D01*
X14927058Y7887917D01*
X14913184Y7863883D01*
X14906000Y7837076D01*
Y7835900D01*
X14998700D01*
Y7928600D01*
D02*
G37*
G36*
X10965959Y8020200D02*
X10940840D01*
X10916577Y8013698D01*
X10894823Y8001139D01*
X10877061Y7983377D01*
X10864501Y7961623D01*
X10858000Y7937360D01*
Y7912240D01*
X10864501Y7887977D01*
X10877061Y7866223D01*
X10894823Y7848461D01*
X10916577Y7835902D01*
X10940840Y7829400D01*
X10965959D01*
X10990222Y7835902D01*
X11011976Y7848461D01*
X11029738Y7866223D01*
X11042298Y7887977D01*
X11048799Y7912240D01*
Y7937360D01*
X11042298Y7961623D01*
X11029738Y7983377D01*
X11011976Y8001139D01*
X10990222Y8013698D01*
X10965959Y8020200D01*
D02*
G37*
G36*
X10705960D02*
X10680840D01*
X10656577Y8013698D01*
X10634823Y8001139D01*
X10617061Y7983377D01*
X10604502Y7961623D01*
X10598000Y7937360D01*
Y7912240D01*
X10604502Y7887977D01*
X10617061Y7866223D01*
X10634823Y7848461D01*
X10656577Y7835902D01*
X10680840Y7829400D01*
X10705960D01*
X10730223Y7835902D01*
X10751977Y7848461D01*
X10769739Y7866223D01*
X10782298Y7887977D01*
X10788800Y7912240D01*
Y7937360D01*
X10782298Y7961623D01*
X10769739Y7983377D01*
X10751977Y8001139D01*
X10730223Y8013698D01*
X10705960Y8020200D01*
D02*
G37*
G36*
X10528800D02*
X10338001D01*
Y7829400D01*
X10528800D01*
Y8020200D01*
D02*
G37*
G36*
X8340901Y7870300D02*
X8255701D01*
Y7785100D01*
X8340901D01*
Y7870300D01*
D02*
G37*
G36*
X8230301D02*
X8145101D01*
Y7785100D01*
X8230301D01*
Y7870300D01*
D02*
G37*
G36*
X15116800Y7810500D02*
X15024100D01*
Y7717800D01*
X15025276D01*
X15052083Y7724983D01*
X15076117Y7738859D01*
X15095741Y7758483D01*
X15109618Y7782517D01*
X15116800Y7809324D01*
Y7810500D01*
D02*
G37*
G36*
X14998700D02*
X14906000D01*
Y7809324D01*
X14913184Y7782517D01*
X14927058Y7758483D01*
X14946683Y7738859D01*
X14970717Y7724983D01*
X14997523Y7717800D01*
X14998700D01*
Y7810500D01*
D02*
G37*
G36*
X8340901Y7759700D02*
X8255701D01*
Y7674500D01*
X8340901D01*
Y7759700D01*
D02*
G37*
G36*
X8230301D02*
X8145101D01*
Y7674500D01*
X8230301D01*
Y7759700D01*
D02*
G37*
G36*
X13619611Y7631500D02*
X13531911D01*
Y7543800D01*
X13619611D01*
Y7631500D01*
D02*
G37*
G36*
X13506509D02*
X13418811D01*
Y7543800D01*
X13506509D01*
Y7631500D01*
D02*
G37*
G36*
X15025276Y7674600D02*
X14997523D01*
X14970717Y7667417D01*
X14946683Y7653541D01*
X14927058Y7633917D01*
X14913184Y7609883D01*
X14906000Y7583076D01*
Y7555324D01*
X14913184Y7528517D01*
X14927058Y7504483D01*
X14946683Y7484859D01*
X14970717Y7470983D01*
X14997523Y7463800D01*
X15025276D01*
X15052083Y7470983D01*
X15076117Y7484859D01*
X15095741Y7504483D01*
X15109618Y7528517D01*
X15116800Y7555324D01*
Y7583076D01*
X15109618Y7609883D01*
X15095741Y7633917D01*
X15076117Y7653541D01*
X15052083Y7667417D01*
X15025276Y7674600D01*
D02*
G37*
G36*
X10871998Y7522200D02*
X10779298D01*
Y7460904D01*
X10753918Y7457483D01*
X10740042Y7481517D01*
X10720418Y7501141D01*
X10696384Y7515017D01*
X10669578Y7522200D01*
X10641825D01*
X10615018Y7515017D01*
X10590984Y7501141D01*
X10571360Y7481517D01*
X10557484Y7457483D01*
X10554349Y7445781D01*
X10528053D01*
X10524917Y7457483D01*
X10511041Y7481517D01*
X10491417Y7501141D01*
X10467383Y7515017D01*
X10440576Y7522200D01*
X10412824D01*
X10386017Y7515017D01*
X10361983Y7501141D01*
X10342359Y7481517D01*
X10328483Y7457483D01*
X10321300Y7430676D01*
Y7402924D01*
X10328483Y7376117D01*
X10342359Y7352083D01*
X10361983Y7332459D01*
X10386017Y7318583D01*
X10412824Y7311400D01*
X10440576D01*
X10467383Y7318583D01*
X10491417Y7332459D01*
X10511041Y7352083D01*
X10524917Y7376117D01*
X10528053Y7387819D01*
X10554349D01*
X10557484Y7376117D01*
X10571360Y7352083D01*
X10590984Y7332459D01*
X10615018Y7318583D01*
X10641825Y7311400D01*
X10669578D01*
X10696384Y7318583D01*
X10720418Y7332459D01*
X10740042Y7352083D01*
X10753918Y7376117D01*
X10779298Y7372696D01*
Y7311400D01*
X10871998D01*
Y7416800D01*
Y7522200D01*
D02*
G37*
G36*
X13619611Y7518400D02*
X13531911D01*
Y7430700D01*
X13619611D01*
Y7518400D01*
D02*
G37*
G36*
X10990097Y7522200D02*
X10897398D01*
Y7429500D01*
X10990097D01*
Y7522200D01*
D02*
G37*
G36*
Y7404100D02*
X10897398D01*
Y7311400D01*
X10990097D01*
Y7404100D01*
D02*
G37*
G36*
X16174998Y7552272D02*
X15894199D01*
Y7271472D01*
X16174998D01*
Y7552272D01*
D02*
G37*
G36*
X13144501Y7332713D02*
Y7260403D01*
X13216809D01*
X13211380Y7280666D01*
X13200137Y7300140D01*
X13184238Y7316040D01*
X13164763Y7327283D01*
X13144501Y7332713D01*
D02*
G37*
G36*
X13119099D02*
X13098837Y7327283D01*
X13079362Y7316040D01*
X13063463Y7300140D01*
X13052220Y7280666D01*
X13046791Y7260403D01*
X13119099D01*
Y7332713D01*
D02*
G37*
G36*
X14294427Y7631500D02*
X14267993D01*
X14242458Y7624658D01*
X14219563Y7611440D01*
X14200871Y7592747D01*
X14187653Y7569853D01*
X14180811Y7544318D01*
Y7533267D01*
X14180331Y7531217D01*
X14180161Y7526107D01*
X14179684Y7522223D01*
X14178865Y7518399D01*
X14177686Y7514577D01*
X14176122Y7510722D01*
X14174130Y7506792D01*
X14171683Y7502778D01*
X14168736Y7498669D01*
X14167973Y7497745D01*
X13625053Y6954826D01*
X13604729Y6970421D01*
X13612769Y6984347D01*
X13619611Y7009882D01*
Y7036318D01*
X13612769Y7061853D01*
X13599550Y7084747D01*
X13580858Y7103440D01*
X13557964Y7116658D01*
X13532428Y7123500D01*
X13505994D01*
X13480457Y7116658D01*
X13457562Y7103440D01*
X13438870Y7084747D01*
X13425653Y7061853D01*
X13418811Y7036318D01*
Y7009882D01*
X13425653Y6984347D01*
X13438870Y6961453D01*
X13457562Y6942760D01*
X13480457Y6929542D01*
X13505994Y6922700D01*
X13532428D01*
X13557964Y6929542D01*
X13571889Y6937582D01*
X13587485Y6917257D01*
X13552565Y6882337D01*
X13551640Y6881572D01*
X13547534Y6878628D01*
X13543517Y6876178D01*
X13539590Y6874191D01*
X13535732Y6872624D01*
X13531911Y6871445D01*
X13528085Y6870626D01*
X13524203Y6870151D01*
X13519093Y6869979D01*
X13517044Y6869500D01*
X13505994D01*
X13480457Y6862658D01*
X13457562Y6849440D01*
X13438870Y6830747D01*
X13425653Y6807853D01*
X13418811Y6782318D01*
Y6755882D01*
X13425653Y6730347D01*
X13438870Y6707453D01*
X13457562Y6688760D01*
X13480457Y6675542D01*
X13505994Y6668700D01*
X13532428D01*
X13557964Y6675542D01*
X13580858Y6688760D01*
X13599550Y6707453D01*
X13612769Y6730347D01*
X13619611Y6755882D01*
Y6766933D01*
X13620090Y6768983D01*
X13620261Y6774093D01*
X13620737Y6777977D01*
X13621556Y6781801D01*
X13622736Y6785623D01*
X13624300Y6789478D01*
X13626289Y6793408D01*
X13628738Y6797422D01*
X13631683Y6801531D01*
X13632446Y6802453D01*
X14175368Y7345375D01*
X14195692Y7329779D01*
X14187653Y7315853D01*
X14180811Y7290318D01*
Y7263882D01*
X14187653Y7238347D01*
X14200871Y7215453D01*
X14219563Y7196760D01*
X14242458Y7183542D01*
X14267993Y7176700D01*
X14294427D01*
X14319963Y7183542D01*
X14342857Y7196760D01*
X14361549Y7215453D01*
X14374768Y7238347D01*
X14381610Y7263882D01*
Y7290318D01*
X14374768Y7315853D01*
X14361549Y7338747D01*
X14342857Y7357440D01*
X14319963Y7370658D01*
X14294427Y7377500D01*
X14267993D01*
X14242458Y7370658D01*
X14228532Y7362618D01*
X14212936Y7382943D01*
X14247855Y7417862D01*
X14248781Y7418628D01*
X14252887Y7421572D01*
X14256905Y7424022D01*
X14260831Y7426009D01*
X14264690Y7427576D01*
X14268509Y7428755D01*
X14272334Y7429574D01*
X14276218Y7430049D01*
X14281328Y7430221D01*
X14283377Y7430700D01*
X14294427D01*
X14319963Y7437542D01*
X14342857Y7450760D01*
X14361549Y7469453D01*
X14374768Y7492347D01*
X14381610Y7517882D01*
Y7544318D01*
X14374768Y7569853D01*
X14361549Y7592747D01*
X14342857Y7611440D01*
X14319963Y7624658D01*
X14294427Y7631500D01*
D02*
G37*
G36*
X13216809Y7235003D02*
X13144501D01*
Y7162694D01*
X13164763Y7168123D01*
X13184238Y7179366D01*
X13200137Y7195266D01*
X13211380Y7214740D01*
X13216809Y7235003D01*
D02*
G37*
G36*
X13119099D02*
X13046791D01*
X13052220Y7214740D01*
X13063463Y7195266D01*
X13079362Y7179366D01*
X13098837Y7168123D01*
X13119099Y7162694D01*
Y7235003D01*
D02*
G37*
G36*
X13411414Y8019004D02*
X13240614D01*
Y7848204D01*
X13297522D01*
Y7457597D01*
X13300658Y7441834D01*
X13309587Y7428470D01*
X13408313Y7329744D01*
X13409740Y7327644D01*
X13411430Y7324438D01*
X13413078Y7320392D01*
X13414606Y7315471D01*
X13415932Y7309681D01*
X13416953Y7303352D01*
X13418227Y7286899D01*
X13418301Y7279267D01*
X13417175Y7261560D01*
X13416200Y7254141D01*
X13414931Y7247306D01*
X13413440Y7241351D01*
X13411784Y7236288D01*
X13410036Y7232123D01*
X13408275Y7228837D01*
X13406842Y7226739D01*
X13312497Y7132394D01*
X12866600D01*
Y7181602D01*
X12685800D01*
Y7132394D01*
X12641102D01*
X12625339Y7129258D01*
X12611976Y7120329D01*
X12366073Y6874427D01*
X12357144Y6861063D01*
X12354009Y6845300D01*
Y6487852D01*
X12353765Y6486345D01*
X12353072Y6483758D01*
X12352007Y6480900D01*
X12350508Y6477748D01*
X12348523Y6474312D01*
X12346227Y6470927D01*
X12339034Y6462226D01*
X12334632Y6457699D01*
X12333351Y6455722D01*
X12326863Y6449234D01*
X12315620Y6429760D01*
X12309800Y6408040D01*
Y6385554D01*
X12315620Y6363834D01*
X12326863Y6344360D01*
X12342763Y6328460D01*
X12362237Y6317217D01*
X12383957Y6311397D01*
X12406443D01*
X12428163Y6317217D01*
X12447637Y6328460D01*
X12463537Y6344360D01*
X12474780Y6363834D01*
X12480600Y6385554D01*
Y6408040D01*
X12474780Y6429760D01*
X12463537Y6449234D01*
X12457049Y6455722D01*
X12455768Y6457699D01*
X12451111Y6462488D01*
X12447459Y6466659D01*
X12444390Y6470607D01*
X12441877Y6474312D01*
X12439892Y6477749D01*
X12438393Y6480899D01*
X12437328Y6483760D01*
X12436635Y6486345D01*
X12436391Y6487852D01*
Y6828238D01*
X12658165Y7050011D01*
X12685800D01*
Y7000803D01*
X12866600D01*
Y7050011D01*
X13329559D01*
X13345322Y7053147D01*
X13358685Y7062076D01*
X13464352Y7167743D01*
X13466446Y7169157D01*
X13469569Y7170780D01*
X13473489Y7172330D01*
X13478252Y7173727D01*
X13483870Y7174899D01*
X13489990Y7175736D01*
X13506084Y7176508D01*
X13515176Y7176287D01*
X13517554Y7176700D01*
X13532428D01*
X13557964Y7183542D01*
X13580858Y7196760D01*
X13599550Y7215453D01*
X13612769Y7238347D01*
X13619611Y7263882D01*
Y7290318D01*
X13612769Y7315853D01*
X13599550Y7338747D01*
X13580858Y7357440D01*
X13557964Y7370658D01*
X13532428Y7377500D01*
X13521342D01*
X13519260Y7377982D01*
X13500493Y7378561D01*
X13493286Y7379305D01*
X13486626Y7380380D01*
X13480840Y7381706D01*
X13475917Y7383232D01*
X13471873Y7384879D01*
X13468665Y7386572D01*
X13466566Y7387997D01*
X13447330Y7407234D01*
X13457051Y7430700D01*
X13506509D01*
Y7518400D01*
X13418811D01*
Y7474886D01*
X13395212Y7464590D01*
X13379906Y7476968D01*
Y7848204D01*
X13411414D01*
Y8019004D01*
D02*
G37*
G36*
X14735999Y7184310D02*
Y7112001D01*
X14808308D01*
X14802879Y7132264D01*
X14791637Y7151737D01*
X14775735Y7167637D01*
X14756262Y7178880D01*
X14735999Y7184310D01*
D02*
G37*
G36*
X14808308Y7086601D02*
X14735999D01*
Y7014291D01*
X14756262Y7019721D01*
X14775735Y7030964D01*
X14791637Y7046864D01*
X14802879Y7066337D01*
X14808308Y7086601D01*
D02*
G37*
G36*
X14294427Y7123500D02*
X14267993D01*
X14242458Y7116658D01*
X14219563Y7103440D01*
X14200871Y7084747D01*
X14187653Y7061853D01*
X14180811Y7036318D01*
Y7009882D01*
X14187653Y6984347D01*
X14200871Y6961453D01*
X14219563Y6942760D01*
X14242458Y6929542D01*
X14267993Y6922700D01*
X14294427D01*
X14319963Y6929542D01*
X14342857Y6942760D01*
X14361549Y6961453D01*
X14374768Y6984347D01*
X14381610Y7009882D01*
Y7036318D01*
X14374768Y7061853D01*
X14361549Y7084747D01*
X14342857Y7103440D01*
X14319963Y7116658D01*
X14294427Y7123500D01*
D02*
G37*
G36*
X9385300Y6918000D02*
Y6845300D01*
X9458000D01*
Y6918000D01*
X9385300D01*
D02*
G37*
G36*
X8442398Y6834097D02*
X8364699D01*
Y6756397D01*
X8442398D01*
Y6834097D01*
D02*
G37*
G36*
X8339299D02*
X8261599D01*
Y6756397D01*
X8339299D01*
Y6834097D01*
D02*
G37*
G36*
X9458000Y6819900D02*
X9385300D01*
Y6747200D01*
X9458000D01*
Y6819900D01*
D02*
G37*
G36*
X10304902Y6791000D02*
X10232202D01*
Y6718300D01*
X10304902D01*
Y6791000D01*
D02*
G37*
G36*
X13217200Y6833099D02*
X13046400D01*
Y6662299D01*
X13217200D01*
Y6833099D01*
D02*
G37*
G36*
X8442398Y6730997D02*
X8364699D01*
Y6653298D01*
X8442398D01*
Y6730997D01*
D02*
G37*
G36*
X8339299D02*
X8261599D01*
Y6653298D01*
X8339299D01*
Y6730997D01*
D02*
G37*
G36*
X7407900Y6834097D02*
X7384097D01*
X7361105Y6827937D01*
X7340492Y6816035D01*
X7323660Y6799204D01*
X7311759Y6778590D01*
X7305599Y6755599D01*
Y6731796D01*
X7311759Y6708804D01*
X7323660Y6688191D01*
X7340492Y6671360D01*
X7361105Y6659458D01*
X7384097Y6653298D01*
X7407900D01*
X7430891Y6659458D01*
X7451505Y6671360D01*
X7468336Y6688191D01*
X7480238Y6708804D01*
X7486398Y6731796D01*
Y6755599D01*
X7480238Y6778590D01*
X7468336Y6799204D01*
X7451505Y6816035D01*
X7430891Y6827937D01*
X7407900Y6834097D01*
D02*
G37*
G36*
X14935718Y6717100D02*
X14935201D01*
Y6629400D01*
X15022900D01*
Y6629918D01*
X15016058Y6655453D01*
X15002840Y6678347D01*
X14984148Y6697040D01*
X14961253Y6710258D01*
X14935718Y6717100D01*
D02*
G37*
G36*
X16017937Y6778500D02*
X16014700D01*
Y6629400D01*
X16163800D01*
Y6632636D01*
X16157582Y6663895D01*
X16145386Y6693341D01*
X16127678Y6719842D01*
X16105142Y6742378D01*
X16078641Y6760085D01*
X16049194Y6772282D01*
X16017937Y6778500D01*
D02*
G37*
G36*
X15989301D02*
X15986064D01*
X15954805Y6772282D01*
X15925359Y6760085D01*
X15898859Y6742378D01*
X15876321Y6719842D01*
X15858615Y6693341D01*
X15846419Y6663895D01*
X15840199Y6632636D01*
Y6629400D01*
X15989301D01*
Y6778500D01*
D02*
G37*
G36*
X14909801Y6717100D02*
X14909282D01*
X14883746Y6710258D01*
X14860854Y6697040D01*
X14842160Y6678347D01*
X14828941Y6655453D01*
X14822099Y6629918D01*
Y6629400D01*
X14909801D01*
Y6717100D01*
D02*
G37*
G36*
X10304902Y6692900D02*
X10232202D01*
Y6620200D01*
X10304902D01*
Y6692900D01*
D02*
G37*
G36*
X10206802D02*
X10134102D01*
Y6620200D01*
X10206802D01*
Y6692900D01*
D02*
G37*
G36*
X15022900Y6604000D02*
X14935201D01*
Y6516300D01*
X14935718D01*
X14961253Y6523142D01*
X14984148Y6536360D01*
X15002840Y6555053D01*
X15016058Y6577947D01*
X15022900Y6603482D01*
Y6604000D01*
D02*
G37*
G36*
X16163800D02*
X16014700D01*
Y6454900D01*
X16017937D01*
X16049194Y6461118D01*
X16078641Y6473315D01*
X16105142Y6491022D01*
X16127678Y6513558D01*
X16145386Y6540059D01*
X16157582Y6569505D01*
X16163800Y6600764D01*
Y6604000D01*
D02*
G37*
G36*
X15989301D02*
X15840199D01*
Y6600764D01*
X15846419Y6569505D01*
X15858615Y6540059D01*
X15876321Y6513558D01*
X15898859Y6491022D01*
X15925359Y6473315D01*
X15954805Y6461118D01*
X15986064Y6454900D01*
X15989301D01*
Y6604000D01*
D02*
G37*
G36*
X14294427Y6869500D02*
X14267993D01*
X14242458Y6862658D01*
X14219563Y6849440D01*
X14200871Y6830747D01*
X14187653Y6807853D01*
X14180811Y6782318D01*
Y6771267D01*
X14180331Y6769217D01*
X14180161Y6764107D01*
X14179684Y6760223D01*
X14178865Y6756399D01*
X14177686Y6752577D01*
X14176122Y6748722D01*
X14174130Y6744792D01*
X14171683Y6740778D01*
X14168736Y6736669D01*
X14167973Y6735745D01*
X13749814Y6317586D01*
X13358067D01*
X13355559Y6317855D01*
X13351904Y6318450D01*
X13348903Y6319136D01*
X13346581Y6319850D01*
X13344937Y6320514D01*
X13343954Y6321029D01*
X13343559Y6321297D01*
X13342239Y6322469D01*
X13340709Y6323365D01*
X13334636Y6329438D01*
X13315163Y6340681D01*
X13293443Y6346501D01*
X13270956D01*
X13249236Y6340681D01*
X13229762Y6329438D01*
X13213863Y6313538D01*
X13202620Y6294064D01*
X13196800Y6272344D01*
Y6249858D01*
X13202620Y6228138D01*
X13213863Y6208664D01*
X13229762Y6192764D01*
X13249236Y6181521D01*
X13270956Y6175701D01*
X13293443D01*
X13315163Y6181521D01*
X13334636Y6192764D01*
X13340709Y6198837D01*
X13342239Y6199733D01*
X13343559Y6200905D01*
X13343954Y6201174D01*
X13344937Y6201688D01*
X13346581Y6202352D01*
X13348904Y6203066D01*
X13351904Y6203752D01*
X13355247Y6204296D01*
X13359116Y6204616D01*
X13773210D01*
X13773212Y6204615D01*
X13794827Y6208915D01*
X13813153Y6221160D01*
X14247855Y6655862D01*
X14248781Y6656628D01*
X14252887Y6659572D01*
X14256905Y6662022D01*
X14260831Y6664009D01*
X14264690Y6665576D01*
X14268509Y6666755D01*
X14272334Y6667574D01*
X14276218Y6668049D01*
X14281328Y6668221D01*
X14283377Y6668700D01*
X14294427D01*
X14319963Y6675542D01*
X14342857Y6688760D01*
X14361549Y6707453D01*
X14374768Y6730347D01*
X14381610Y6755882D01*
Y6782318D01*
X14374768Y6807853D01*
X14361549Y6830747D01*
X14342857Y6849440D01*
X14319963Y6862658D01*
X14294427Y6869500D01*
D02*
G37*
G36*
X13117603Y6346501D02*
X13044904D01*
Y6273801D01*
X13117603D01*
Y6346501D01*
D02*
G37*
G36*
X13019502D02*
X12946803D01*
Y6273801D01*
X13019502D01*
Y6346501D01*
D02*
G37*
G36*
X13117603Y6248401D02*
X13044904D01*
Y6175701D01*
X13117603D01*
Y6248401D01*
D02*
G37*
G36*
X13019502D02*
X12946803D01*
Y6175701D01*
X13019502D01*
Y6248401D01*
D02*
G37*
G36*
X12480600Y6232200D02*
X12407900D01*
Y6159500D01*
X12480600D01*
Y6232200D01*
D02*
G37*
G36*
X12382500D02*
X12309800D01*
Y6159500D01*
X12382500D01*
Y6232200D01*
D02*
G37*
G36*
X12480600Y6134100D02*
X12407900D01*
Y6061400D01*
X12480600D01*
Y6134100D01*
D02*
G37*
G36*
X12382500D02*
X12309800D01*
Y6061400D01*
X12382500D01*
Y6134100D01*
D02*
G37*
G36*
X15022900Y6209100D02*
X14822099D01*
Y6008300D01*
X15022900D01*
Y6209100D01*
D02*
G37*
G36*
X8721700Y6064121D02*
Y5994400D01*
X8791422D01*
X8786251Y6013698D01*
X8775337Y6032602D01*
X8759902Y6048036D01*
X8740998Y6058951D01*
X8721700Y6064121D01*
D02*
G37*
G36*
X8696300D02*
X8677002Y6058951D01*
X8658098Y6048036D01*
X8642664Y6032602D01*
X8631750Y6013698D01*
X8626579Y5994400D01*
X8696300D01*
Y6064121D01*
D02*
G37*
G36*
X10535604Y6173699D02*
X10511801D01*
X10488810Y6167539D01*
X10468196Y6155637D01*
X10451365Y6138806D01*
X10439463Y6118192D01*
X10433303Y6095201D01*
Y6071398D01*
X10439463Y6048406D01*
X10451365Y6027793D01*
X10468196Y6010962D01*
X10488810Y5999060D01*
X10511801Y5992900D01*
X10535604D01*
X10558596Y5999060D01*
X10579209Y6010962D01*
X10596041Y6027793D01*
X10607942Y6048406D01*
X10614102Y6071398D01*
Y6095201D01*
X10607942Y6118192D01*
X10596041Y6138806D01*
X10579209Y6155637D01*
X10558596Y6167539D01*
X10535604Y6173699D01*
D02*
G37*
G36*
X9658102D02*
X9477303D01*
Y5992900D01*
X9658102D01*
Y6173699D01*
D02*
G37*
G36*
X15308704Y7184700D02*
X15137903D01*
Y7013901D01*
X15182112D01*
Y6887397D01*
X15185246Y6871634D01*
X15194176Y6858270D01*
X15831563Y6220883D01*
X15836179Y6215919D01*
X15839333Y6211994D01*
X15840199Y6210756D01*
Y5946900D01*
X16163800D01*
Y6270500D01*
X15899944D01*
X15898994Y6271164D01*
X15891016Y6277939D01*
X15264494Y6904459D01*
Y7013901D01*
X15308704D01*
Y7184700D01*
D02*
G37*
G36*
X8154576Y6137900D02*
X8126824D01*
X8100017Y6130717D01*
X8075983Y6116841D01*
X8056359Y6097217D01*
X8042483Y6073183D01*
X8035300Y6046376D01*
Y6018624D01*
X8042483Y5991817D01*
X8056359Y5967783D01*
X8075983Y5948159D01*
X8100017Y5934283D01*
X8126824Y5927100D01*
X8154576D01*
X8181383Y5934283D01*
X8205417Y5948159D01*
X8225041Y5967783D01*
X8238917Y5991817D01*
X8246100Y6018624D01*
Y6046376D01*
X8238917Y6073183D01*
X8225041Y6097217D01*
X8205417Y6116841D01*
X8181383Y6130717D01*
X8154576Y6137900D01*
D02*
G37*
G36*
X7379876D02*
X7352124D01*
X7325317Y6130717D01*
X7301283Y6116841D01*
X7281659Y6097217D01*
X7267783Y6073183D01*
X7260600Y6046376D01*
Y6018624D01*
X7267783Y5991817D01*
X7281659Y5967783D01*
X7301283Y5948159D01*
X7325317Y5934283D01*
X7352124Y5927100D01*
X7379876D01*
X7406683Y5934283D01*
X7430717Y5948159D01*
X7450341Y5967783D01*
X7464217Y5991817D01*
X7471400Y6018624D01*
Y6046376D01*
X7464217Y6073183D01*
X7450341Y6097217D01*
X7430717Y6116841D01*
X7406683Y6130717D01*
X7379876Y6137900D01*
D02*
G37*
G36*
X8791422Y5969000D02*
X8721700D01*
Y5899279D01*
X8740998Y5904449D01*
X8759902Y5915364D01*
X8775337Y5930798D01*
X8786251Y5949702D01*
X8791422Y5969000D01*
D02*
G37*
G36*
X8696300D02*
X8626579D01*
X8631750Y5949702D01*
X8642664Y5930798D01*
X8658098Y5915364D01*
X8677002Y5904449D01*
X8696300Y5899279D01*
Y5969000D01*
D02*
G37*
G36*
X8591900Y6064600D02*
X8426100D01*
Y5898800D01*
X8591900D01*
Y6064600D01*
D02*
G37*
G36*
X14286700Y6072552D02*
X14262898D01*
X14239906Y6066391D01*
X14219293Y6054490D01*
X14202461Y6037659D01*
X14190561Y6017045D01*
X14184399Y5994054D01*
Y5970251D01*
X14190561Y5947259D01*
X14202461Y5926645D01*
X14219293Y5909814D01*
X14239906Y5897913D01*
X14262898Y5891752D01*
X14286700D01*
X14309692Y5897913D01*
X14330307Y5909814D01*
X14347137Y5926645D01*
X14359039Y5947259D01*
X14365199Y5970251D01*
Y5994054D01*
X14359039Y6017045D01*
X14347137Y6037659D01*
X14330307Y6054490D01*
X14309692Y6066391D01*
X14286700Y6072552D01*
D02*
G37*
G36*
X13689801Y6072547D02*
X13665999D01*
X13643007Y6066386D01*
X13622392Y6054485D01*
X13605562Y6037654D01*
X13593661Y6017040D01*
X13587500Y5994048D01*
Y5970246D01*
X13593661Y5947254D01*
X13605562Y5926640D01*
X13622392Y5909809D01*
X13643007Y5897908D01*
X13665999Y5891747D01*
X13689801D01*
X13712793Y5897908D01*
X13733408Y5909809D01*
X13750238Y5926640D01*
X13762138Y5947254D01*
X13768300Y5970246D01*
Y5994048D01*
X13762138Y6017040D01*
X13750238Y6037654D01*
X13733408Y6054485D01*
X13712793Y6066386D01*
X13689801Y6072547D01*
D02*
G37*
G36*
X11513547Y6086903D02*
X11486453D01*
X11460282Y6079891D01*
X11436818Y6066344D01*
X11417660Y6047185D01*
X11404113Y6023721D01*
X11397100Y5997550D01*
Y5970456D01*
X11404113Y5944285D01*
X11417660Y5920821D01*
X11436818Y5901663D01*
X11460282Y5888116D01*
X11486453Y5881103D01*
X11513547D01*
X11539718Y5888116D01*
X11563182Y5901663D01*
X11582341Y5920821D01*
X11595888Y5944285D01*
X11602900Y5970456D01*
Y5997550D01*
X11595888Y6023721D01*
X11582341Y6047185D01*
X11563182Y6066344D01*
X11539718Y6079891D01*
X11513547Y6086903D01*
D02*
G37*
G36*
X8537551Y5454400D02*
X8505849D01*
X8475227Y5446195D01*
X8447773Y5430344D01*
X8438290Y5420861D01*
X8436877Y5420055D01*
X8434673Y5418141D01*
X8433193Y5417189D01*
X8430657Y5415962D01*
X8427018Y5414631D01*
X8422297Y5413336D01*
X8416529Y5412174D01*
X8410048Y5411252D01*
X8393210Y5410051D01*
X8015190D01*
X7998352Y5411252D01*
X7991871Y5412174D01*
X7986100Y5413337D01*
X7981382Y5414631D01*
X7977744Y5415961D01*
X7975207Y5417189D01*
X7973727Y5418141D01*
X7971523Y5420055D01*
X7970110Y5420861D01*
X7960627Y5430344D01*
X7933173Y5446195D01*
X7902551Y5454400D01*
X7870849D01*
X7840227Y5446195D01*
X7812773Y5430344D01*
X7790356Y5407927D01*
X7774505Y5380473D01*
X7766300Y5349851D01*
Y5318149D01*
X7774505Y5287527D01*
X7790356Y5260073D01*
X7812773Y5237656D01*
X7840227Y5221805D01*
X7870849Y5213600D01*
X7902551D01*
X7933173Y5221805D01*
X7960627Y5237656D01*
X7970110Y5247139D01*
X7971523Y5247945D01*
X7973727Y5249859D01*
X7975207Y5250811D01*
X7977743Y5252038D01*
X7981382Y5253369D01*
X7986103Y5254664D01*
X7991871Y5255826D01*
X7998352Y5256748D01*
X8015190Y5257949D01*
X8393210D01*
X8410048Y5256748D01*
X8416529Y5255826D01*
X8422300Y5254663D01*
X8427018Y5253369D01*
X8430656Y5252039D01*
X8433193Y5250811D01*
X8434673Y5249859D01*
X8436877Y5247945D01*
X8438290Y5247139D01*
X8447773Y5237656D01*
X8475227Y5221805D01*
X8505849Y5213600D01*
X8537551D01*
X8568173Y5221805D01*
X8595627Y5237656D01*
X8618044Y5260073D01*
X8633895Y5287527D01*
X8642100Y5318149D01*
Y5349851D01*
X8633895Y5380473D01*
X8618044Y5407927D01*
X8595627Y5430344D01*
X8568173Y5446195D01*
X8537551Y5454400D01*
D02*
G37*
G36*
X12449236Y5419600D02*
X12446000D01*
Y5270500D01*
X12595100D01*
Y5273736D01*
X12588882Y5304995D01*
X12576685Y5334441D01*
X12558978Y5360942D01*
X12536442Y5383478D01*
X12509941Y5401185D01*
X12480495Y5413382D01*
X12449236Y5419600D01*
D02*
G37*
G36*
X12420600D02*
X12417364D01*
X12386105Y5413382D01*
X12356659Y5401185D01*
X12330158Y5383478D01*
X12307622Y5360942D01*
X12289915Y5334441D01*
X12277718Y5304995D01*
X12271500Y5273736D01*
Y5270500D01*
X12420600D01*
Y5419600D01*
D02*
G37*
G36*
X11525805Y5459830D02*
X11494103D01*
X11463482Y5451625D01*
X11436027Y5435774D01*
X11413610Y5413358D01*
X11397760Y5385903D01*
X11389554Y5355281D01*
Y5323580D01*
X11397760Y5292958D01*
X11413610Y5265503D01*
X11436027Y5243087D01*
X11463482Y5227236D01*
X11494103Y5219031D01*
X11525805D01*
X11556427Y5227236D01*
X11583881Y5243087D01*
X11606298Y5265503D01*
X11622149Y5292958D01*
X11630354Y5323580D01*
Y5355281D01*
X11622149Y5385903D01*
X11606298Y5413358D01*
X11583881Y5435774D01*
X11556427Y5451625D01*
X11525805Y5459830D01*
D02*
G37*
G36*
X10890805D02*
X10859103D01*
X10828482Y5451625D01*
X10801027Y5435774D01*
X10778610Y5413358D01*
X10762760Y5385903D01*
X10754554Y5355281D01*
Y5323580D01*
X10762760Y5292958D01*
X10778610Y5265503D01*
X10801027Y5243087D01*
X10828482Y5227236D01*
X10859103Y5219031D01*
X10890805D01*
X10921427Y5227236D01*
X10948881Y5243087D01*
X10971298Y5265503D01*
X10987149Y5292958D01*
X10995354Y5323580D01*
Y5355281D01*
X10987149Y5385903D01*
X10971298Y5413358D01*
X10948881Y5435774D01*
X10921427Y5451625D01*
X10890805Y5459830D01*
D02*
G37*
G36*
X10360354D02*
X10119554D01*
Y5219031D01*
X10360354D01*
Y5459830D01*
D02*
G37*
G36*
X7372100Y5454400D02*
X7131300D01*
Y5213600D01*
X7372100D01*
Y5454400D01*
D02*
G37*
G36*
X9211306Y7951702D02*
X9187503D01*
X9164512Y7945542D01*
X9143898Y7933640D01*
X9127067Y7916809D01*
X9115165Y7896196D01*
X9109005Y7873204D01*
Y7849401D01*
X9115165Y7826410D01*
X9127067Y7805796D01*
X9128352Y7804511D01*
Y7563518D01*
X9127967Y7546000D01*
X9127083Y7534610D01*
X9126583Y7530842D01*
X9126159Y7528581D01*
X9123058Y7525480D01*
X9108853Y7500876D01*
X9101500Y7473433D01*
Y7445023D01*
X9108853Y7417580D01*
X9116450Y7404421D01*
X9118749Y7332884D01*
Y6760403D01*
X9121341Y6740720D01*
X9128938Y6722378D01*
X9141024Y6706627D01*
X9204217Y6643434D01*
X9194497Y6619968D01*
X7975776D01*
X7960013Y6616832D01*
X7946649Y6607903D01*
X7590873Y6252127D01*
X7581944Y6238763D01*
X7578809Y6223000D01*
Y6156255D01*
X7578248Y6153441D01*
X7577039Y6149665D01*
X7575124Y6145249D01*
X7572416Y6140233D01*
X7568863Y6134676D01*
X7564632Y6128903D01*
X7552731Y6115113D01*
X7545527Y6107782D01*
X7544202Y6105760D01*
X7535659Y6097217D01*
X7521783Y6073183D01*
X7514600Y6046376D01*
Y6018624D01*
X7521783Y5991817D01*
X7535659Y5967783D01*
X7555283Y5948159D01*
X7579317Y5934283D01*
X7606124Y5927100D01*
X7633876D01*
X7660683Y5934283D01*
X7684717Y5948159D01*
X7704341Y5967783D01*
X7718217Y5991817D01*
X7725400Y6018624D01*
Y6046376D01*
X7718217Y6073183D01*
X7704341Y6097217D01*
X7695982Y6105576D01*
X7694833Y6107407D01*
X7680687Y6122395D01*
X7675559Y6128642D01*
X7671138Y6134675D01*
X7667584Y6140234D01*
X7664876Y6145249D01*
X7662961Y6149666D01*
X7661752Y6153440D01*
X7661191Y6156255D01*
Y6205938D01*
X7992838Y6537585D01*
X8238245D01*
X8248902Y6516599D01*
X8248903Y6512185D01*
Y6467391D01*
X8137515D01*
X8121752Y6464255D01*
X8108389Y6455326D01*
X7857573Y6204511D01*
X7848644Y6191147D01*
X7845509Y6175384D01*
Y6156255D01*
X7844948Y6153441D01*
X7843739Y6149665D01*
X7841824Y6145249D01*
X7839116Y6140233D01*
X7835563Y6134676D01*
X7831332Y6128903D01*
X7819431Y6115113D01*
X7812227Y6107782D01*
X7810902Y6105760D01*
X7802359Y6097217D01*
X7788483Y6073183D01*
X7781300Y6046376D01*
Y6018624D01*
X7788483Y5991817D01*
X7802359Y5967783D01*
X7821983Y5948159D01*
X7846017Y5934283D01*
X7872824Y5927100D01*
X7900576D01*
X7927383Y5934283D01*
X7951417Y5948159D01*
X7971041Y5967783D01*
X7984917Y5991817D01*
X7992100Y6018624D01*
Y6046376D01*
X7984917Y6073183D01*
X7971041Y6097217D01*
X7962682Y6105576D01*
X7961533Y6107407D01*
X7947387Y6122395D01*
X7942259Y6128642D01*
X7937838Y6134675D01*
X7934284Y6140234D01*
X7931576Y6145249D01*
X7929661Y6149666D01*
X7928452Y6153440D01*
X7927891Y6156255D01*
Y6158322D01*
X8154577Y6385008D01*
X8248903D01*
Y6335800D01*
X8429702D01*
Y6512185D01*
X8429703Y6516599D01*
X8440360Y6537585D01*
X9232991D01*
X9253568Y6537090D01*
X9280111Y6534789D01*
X9290478Y6533198D01*
X9298029Y6531589D01*
X9301126Y6529674D01*
X9310630Y6522620D01*
X9315633Y6518319D01*
X9316729Y6517700D01*
X9320163Y6514266D01*
X9339637Y6503023D01*
X9346455Y6501196D01*
X9462527Y6385124D01*
X9478278Y6373038D01*
X9496620Y6365441D01*
X9516303Y6362849D01*
X11728699D01*
X12718669Y5372879D01*
X12751706Y5337316D01*
X12764746Y5321037D01*
X12774943Y5306410D01*
X12779500Y5298463D01*
Y5096000D01*
X13103101D01*
Y5419600D01*
X12900636D01*
X12892693Y5424156D01*
X12878352Y5434151D01*
X12843120Y5463993D01*
X12829668Y5476985D01*
X11813976Y6492676D01*
X11798225Y6504762D01*
X11779883Y6512359D01*
X11760200Y6514951D01*
X9547804D01*
X9454007Y6608748D01*
X9452180Y6615566D01*
X9440937Y6635040D01*
X9425037Y6650940D01*
X9405563Y6662183D01*
X9398745Y6664010D01*
X9339021Y6723734D01*
X9348742Y6747200D01*
X9359900D01*
Y6832600D01*
Y6918000D01*
X9287200D01*
X9270851Y6936628D01*
Y7341040D01*
X9271109Y7351398D01*
X9272266Y7364033D01*
X9272963Y7368248D01*
X9273722Y7371488D01*
X9273837Y7371839D01*
X9275652Y7372887D01*
X9295741Y7392976D01*
X9309947Y7417580D01*
X9317300Y7445023D01*
Y7473433D01*
X9309947Y7500876D01*
X9295741Y7525480D01*
X9283631Y7537591D01*
X9283534Y7537847D01*
X9282931Y7540104D01*
X9282385Y7542966D01*
X9280453Y7568725D01*
Y7820883D01*
X9283644Y7826410D01*
X9289804Y7849401D01*
Y7873204D01*
X9283644Y7896196D01*
X9271742Y7916809D01*
X9254911Y7933640D01*
X9234298Y7945542D01*
X9211306Y7951702D01*
D02*
G37*
G36*
X12595100Y5245100D02*
X12446000D01*
Y5096000D01*
X12449236D01*
X12480495Y5102218D01*
X12509941Y5114415D01*
X12536442Y5132122D01*
X12558978Y5154658D01*
X12576685Y5181159D01*
X12588882Y5210605D01*
X12595100Y5241864D01*
Y5245100D01*
D02*
G37*
G36*
X12420600D02*
X12271500D01*
Y5241864D01*
X12277718Y5210605D01*
X12289915Y5181159D01*
X12307622Y5154658D01*
X12330158Y5132122D01*
X12356659Y5114415D01*
X12386105Y5102218D01*
X12417364Y5096000D01*
X12420600D01*
Y5245100D01*
D02*
G37*
G36*
X13982237Y5116338D02*
Y5038852D01*
X14059724D01*
X14053777Y5061045D01*
X14041876Y5081659D01*
X14025044Y5098490D01*
X14004431Y5110391D01*
X13982237Y5116338D01*
D02*
G37*
G36*
X13956837D02*
X13934645Y5110391D01*
X13914030Y5098490D01*
X13897200Y5081659D01*
X13885298Y5061045D01*
X13879352Y5038852D01*
X13956837D01*
Y5116338D01*
D02*
G37*
G36*
X9512160Y5162700D02*
X9487040D01*
X9462777Y5156198D01*
X9441023Y5143639D01*
X9423261Y5125877D01*
X9410702Y5104123D01*
X9404200Y5079860D01*
Y5054740D01*
X9410702Y5030477D01*
X9423261Y5008723D01*
X9441023Y4990961D01*
X9462777Y4978402D01*
X9487040Y4971900D01*
X9512160D01*
X9536423Y4978402D01*
X9558177Y4990961D01*
X9575939Y5008723D01*
X9588498Y5030477D01*
X9595000Y5054740D01*
Y5079860D01*
X9588498Y5104123D01*
X9575939Y5125877D01*
X9558177Y5143639D01*
X9536423Y5156198D01*
X9512160Y5162700D01*
D02*
G37*
G36*
X9341000D02*
X9150200D01*
Y4971900D01*
X9341000D01*
Y5162700D01*
D02*
G37*
G36*
X14059724Y5013452D02*
X13982237D01*
Y4935966D01*
X14004431Y4941913D01*
X14025044Y4953814D01*
X14041876Y4970645D01*
X14053777Y4991259D01*
X14059724Y5013452D01*
D02*
G37*
G36*
X13956837D02*
X13879352D01*
X13885298Y4991259D01*
X13897200Y4970645D01*
X13914030Y4953814D01*
X13934645Y4941913D01*
X13956837Y4935966D01*
Y5013452D01*
D02*
G37*
G36*
X14365199Y5116552D02*
X14184399D01*
Y4935752D01*
X14365199D01*
Y5116552D01*
D02*
G37*
G36*
X13768300Y5116547D02*
X13587500D01*
Y4935747D01*
X13768300D01*
Y5116547D01*
D02*
G37*
G36*
X15584076Y5134600D02*
X15556323D01*
X15529517Y5127417D01*
X15505482Y5113541D01*
X15485860Y5093917D01*
X15471983Y5069883D01*
X15464799Y5043076D01*
Y5015324D01*
X15471983Y4988517D01*
X15485860Y4964483D01*
X15505482Y4944859D01*
X15529517Y4930983D01*
X15556323Y4923800D01*
X15584076D01*
X15610883Y4930983D01*
X15634917Y4944859D01*
X15654541Y4964483D01*
X15668417Y4988517D01*
X15675600Y5015324D01*
Y5043076D01*
X15668417Y5069883D01*
X15654541Y5093917D01*
X15634917Y5113541D01*
X15610883Y5127417D01*
X15584076Y5134600D01*
D02*
G37*
G36*
X14059938Y6072552D02*
X13879138D01*
Y5891752D01*
X13990837D01*
X13991806Y5891559D01*
X13992776Y5891752D01*
X14000113D01*
X14001256Y5890957D01*
X14009209Y5884227D01*
X14404449Y5488986D01*
X14417813Y5480057D01*
X14433577Y5476922D01*
X14810225D01*
X15199565Y5087582D01*
X15201160Y5085194D01*
X15202972Y5081672D01*
X15204742Y5077191D01*
X15206375Y5071728D01*
X15207791Y5065295D01*
X15208882Y5058215D01*
X15210217Y5040050D01*
X15210307Y5029772D01*
X15210800Y5027404D01*
Y5015324D01*
X15217982Y4988517D01*
X15231859Y4964483D01*
X15251483Y4944859D01*
X15275517Y4930983D01*
X15302324Y4923800D01*
X15330077D01*
X15356883Y4930983D01*
X15380917Y4944859D01*
X15400542Y4964483D01*
X15414417Y4988517D01*
X15421600Y5015324D01*
Y5043076D01*
X15414417Y5069883D01*
X15400542Y5093917D01*
X15380917Y5113541D01*
X15356883Y5127417D01*
X15330077Y5134600D01*
X15318256D01*
X15316147Y5135083D01*
X15295547Y5135678D01*
X15287498Y5136469D01*
X15280109Y5137609D01*
X15273672Y5139025D01*
X15268207Y5140658D01*
X15263728Y5142427D01*
X15260207Y5144240D01*
X15257819Y5145835D01*
X14856413Y5547240D01*
X14843050Y5556169D01*
X14827287Y5559305D01*
X14450639D01*
X14068695Y5941248D01*
X14064043Y5946259D01*
X14060936Y5950141D01*
X14059938Y5951577D01*
Y5958914D01*
X14060130Y5959883D01*
X14059938Y5960853D01*
Y6072552D01*
D02*
G37*
G36*
X14923676Y5134600D02*
X14895924D01*
X14869118Y5127417D01*
X14845084Y5113541D01*
X14825459Y5093917D01*
X14811583Y5069883D01*
X14804401Y5043076D01*
Y5015324D01*
X14811583Y4988517D01*
X14825459Y4964483D01*
X14845084Y4944859D01*
X14869118Y4930983D01*
X14895924Y4923800D01*
X14923676D01*
X14950484Y4930983D01*
X14974516Y4944859D01*
X14994141Y4964483D01*
X15008017Y4988517D01*
X15015199Y5015324D01*
Y5043076D01*
X15008017Y5069883D01*
X14994141Y5093917D01*
X14974516Y5113541D01*
X14950484Y5127417D01*
X14923676Y5134600D01*
D02*
G37*
G36*
X14669676D02*
X14641924D01*
X14615117Y5127417D01*
X14591083Y5113541D01*
X14571458Y5093917D01*
X14557584Y5069883D01*
X14550400Y5043076D01*
Y5015324D01*
X14557584Y4988517D01*
X14571458Y4964483D01*
X14591083Y4944859D01*
X14615117Y4930983D01*
X14641924Y4923800D01*
X14669676D01*
X14696483Y4930983D01*
X14720517Y4944859D01*
X14740141Y4964483D01*
X14754018Y4988517D01*
X14761200Y5015324D01*
Y5043076D01*
X14754018Y5069883D01*
X14740141Y5093917D01*
X14720517Y5113541D01*
X14696483Y5127417D01*
X14669676Y5134600D01*
D02*
G37*
%LPD*%
G36*
X11093575Y12911600D02*
X11087290Y12917393D01*
X11080391Y12922578D01*
X11072880Y12927153D01*
X11064756Y12931117D01*
X11056019Y12934473D01*
X11046669Y12937218D01*
X11036706Y12939352D01*
X11026130Y12940878D01*
X11014942Y12941794D01*
X11003140Y12942099D01*
Y13042097D01*
X11014942Y13042403D01*
X11026130Y13043320D01*
X11036706Y13044844D01*
X11046669Y13046979D01*
X11056019Y13049722D01*
X11064756Y13053079D01*
X11072880Y13057043D01*
X11080391Y13061620D01*
X11087290Y13066803D01*
X11093575Y13072598D01*
Y12911600D01*
D02*
G37*
G36*
X9076495Y12192783D02*
X9068263Y12184095D01*
X9060906Y12175370D01*
X9054426Y12166610D01*
X9048822Y12157813D01*
X9044094Y12148981D01*
X9040242Y12140112D01*
X9037266Y12131207D01*
X9035167Y12122266D01*
X9033943Y12113288D01*
X9033595Y12104275D01*
X8917276Y12220594D01*
X8926289Y12220942D01*
X8935267Y12222166D01*
X8944208Y12224265D01*
X8953113Y12227241D01*
X8961982Y12231093D01*
X8970814Y12235821D01*
X8979611Y12241425D01*
X8988371Y12247905D01*
X8997096Y12255261D01*
X9005784Y12263494D01*
X9076495Y12192783D01*
D02*
G37*
G36*
X9799209Y12003100D02*
X9798206Y12012600D01*
X9795197Y12021100D01*
X9790181Y12028600D01*
X9783160Y12035100D01*
X9774133Y12040600D01*
X9763099Y12045100D01*
X9750059Y12048600D01*
X9735014Y12051100D01*
X9717962Y12052600D01*
X9698904Y12053100D01*
Y12153100D01*
X9717962Y12153600D01*
X9735014Y12155100D01*
X9750059Y12157600D01*
X9763099Y12161100D01*
X9774133Y12165600D01*
X9783160Y12171100D01*
X9790181Y12177600D01*
X9795197Y12185100D01*
X9798206Y12193600D01*
X9799209Y12203100D01*
Y12003100D01*
D02*
G37*
G36*
X8474306Y11513095D02*
X8460871Y11499173D01*
X8438243Y11472651D01*
X8429051Y11460052D01*
X8421273Y11447892D01*
X8414909Y11436173D01*
X8409959Y11424895D01*
X8406424Y11414058D01*
X8404302Y11403661D01*
X8403595Y11393705D01*
X8284205Y11513095D01*
X8294161Y11513802D01*
X8304558Y11515924D01*
X8315395Y11519459D01*
X8326673Y11524409D01*
X8338392Y11530773D01*
X8350551Y11538551D01*
X8363151Y11547743D01*
X8376192Y11558350D01*
X8403595Y11583806D01*
X8474306Y11513095D01*
D02*
G37*
G36*
X11929395Y11163068D02*
X11925037Y11158566D01*
X11917708Y11150077D01*
X11914736Y11146090D01*
X11912225Y11142274D01*
X11910176Y11138631D01*
X11908589Y11135159D01*
X11907463Y11131859D01*
X11906799Y11128731D01*
X11906597Y11125775D01*
X11849675Y11182697D01*
X11852632Y11182899D01*
X11855760Y11183563D01*
X11859060Y11184689D01*
X11862531Y11186276D01*
X11866175Y11188325D01*
X11869990Y11190835D01*
X11873977Y11193807D01*
X11882466Y11201137D01*
X11886968Y11205494D01*
X11929395Y11163068D01*
D02*
G37*
G36*
X12199410Y11116000D02*
X12198807Y11121700D01*
X12196997Y11126800D01*
X12193982Y11131300D01*
X12189761Y11135200D01*
X12184334Y11138500D01*
X12177700Y11141200D01*
X12169860Y11143300D01*
X12160815Y11144800D01*
X12150563Y11145700D01*
X12139105Y11146000D01*
Y11206000D01*
X12150563Y11206300D01*
X12160815Y11207200D01*
X12169860Y11208700D01*
X12177700Y11210800D01*
X12184334Y11213500D01*
X12189761Y11216800D01*
X12193982Y11220700D01*
X12196997Y11225200D01*
X12198807Y11230300D01*
X12199410Y11236000D01*
Y11116000D01*
D02*
G37*
G36*
X12157559Y11119089D02*
X12164377Y11117958D01*
X12169436Y11116603D01*
X12172650Y11115295D01*
X12173400Y11114839D01*
Y11043100D01*
X12203530D01*
X12214051Y11017700D01*
X12199954Y11003603D01*
X12182457Y10973298D01*
X12173400Y10939497D01*
Y10904503D01*
X12182457Y10870702D01*
X12199954Y10840397D01*
X12224697Y10815654D01*
X12235070Y10809665D01*
Y10780335D01*
X12224697Y10774346D01*
X12199954Y10749603D01*
X12182457Y10719298D01*
X12173400Y10685497D01*
Y10650503D01*
X12176851Y10637624D01*
X12154078Y10624476D01*
X11940758Y10837796D01*
X11936105Y10842807D01*
X11932999Y10846689D01*
X11932000Y10848125D01*
Y10855462D01*
X11932193Y10856431D01*
X11932000Y10857400D01*
Y10954100D01*
X11932001D01*
X11927767Y10964320D01*
X12082962Y11119515D01*
X12152708D01*
X12157559Y11119089D01*
D02*
G37*
G36*
X11361601Y10904100D02*
X11360010Y10905240D01*
X11357587Y10906260D01*
X11354333Y10907160D01*
X11350247Y10907940D01*
X11345331Y10908600D01*
X11333005Y10909560D01*
X11308283Y10910100D01*
Y11010100D01*
X11317355Y11010160D01*
X11350247Y11012260D01*
X11354333Y11013040D01*
X11357587Y11013940D01*
X11360010Y11014960D01*
X11361601Y11016100D01*
Y10904100D01*
D02*
G37*
G36*
X11904598Y10854098D02*
X11903750Y10851340D01*
Y10848158D01*
X11904598Y10844552D01*
X11906295Y10840521D01*
X11908841Y10836066D01*
X11912235Y10831187D01*
X11916478Y10825884D01*
X11927509Y10814005D01*
X11906295Y10792792D01*
X11900144Y10798731D01*
X11889113Y10808065D01*
X11884234Y10811459D01*
X11879779Y10814005D01*
X11875748Y10815702D01*
X11872142Y10816550D01*
X11868960D01*
X11866203Y10815702D01*
X11863869Y10814005D01*
X11906295Y10856431D01*
X11904598Y10854098D01*
D02*
G37*
G36*
X11423890Y10626405D02*
X11419223Y10629799D01*
X11413708Y10631496D01*
X11407344D01*
X11400131Y10629799D01*
X11392070Y10626405D01*
X11383161Y10621314D01*
X11373403Y10614526D01*
X11362796Y10606040D01*
X11339038Y10583979D01*
X11296611Y10626405D01*
X11308490Y10638709D01*
X11327158Y10660770D01*
X11333946Y10670528D01*
X11339038Y10679438D01*
X11342432Y10687499D01*
X11344129Y10694711D01*
Y10701075D01*
X11342432Y10706591D01*
X11339038Y10711258D01*
X11423890Y10626405D01*
D02*
G37*
G36*
X13873978Y10388390D02*
X13874168Y10381101D01*
X13874744Y10374124D01*
X13875700Y10367458D01*
X13877043Y10361104D01*
X13878767Y10355062D01*
X13880875Y10349331D01*
X13883365Y10343912D01*
X13886238Y10338805D01*
X13889494Y10334009D01*
X13893135Y10329525D01*
X13791888Y10336702D01*
X13796086Y10340646D01*
X13799841Y10344966D01*
X13803154Y10349663D01*
X13806026Y10354735D01*
X13808455Y10360183D01*
X13810443Y10366008D01*
X13811989Y10372209D01*
X13813094Y10378785D01*
X13813756Y10385738D01*
X13813977Y10393067D01*
X13873978Y10388390D01*
D02*
G37*
G36*
X10463700Y8728837D02*
X10464600Y8718585D01*
X10466100Y8709540D01*
X10468201Y8701700D01*
X10470901Y8695066D01*
X10474201Y8689639D01*
X10478100Y8685418D01*
X10482600Y8682402D01*
X10487700Y8680593D01*
X10493400Y8679990D01*
X10373401D01*
X10379101Y8680593D01*
X10384201Y8682402D01*
X10388701Y8685418D01*
X10392600Y8689639D01*
X10395900Y8695066D01*
X10398600Y8701700D01*
X10400701Y8709540D01*
X10402201Y8718585D01*
X10403101Y8728837D01*
X10403401Y8740295D01*
X10463400D01*
X10463700Y8728837D01*
D02*
G37*
G36*
X9265026Y8405493D02*
X9267602Y8373493D01*
X9269856Y8360493D01*
X9272753Y8349493D01*
X9276295Y8340493D01*
X9280480Y8333493D01*
X9285309Y8328493D01*
X9290783Y8325493D01*
X9296900Y8324493D01*
X9132509D01*
X9138626Y8325493D01*
X9144100Y8328493D01*
X9148929Y8333493D01*
X9153114Y8340493D01*
X9156656Y8349493D01*
X9159553Y8360493D01*
X9161807Y8373493D01*
X9163417Y8388493D01*
X9164705Y8424493D01*
X9264704D01*
X9265026Y8405493D01*
D02*
G37*
G36*
X14144293Y8193250D02*
X14145203Y8190700D01*
X14146716Y8188450D01*
X14148839Y8186500D01*
X14151566Y8184850D01*
X14154900Y8183500D01*
X14158839Y8182450D01*
X14163385Y8181700D01*
X14168536Y8181250D01*
X14174295Y8181100D01*
Y8151100D01*
X14168536Y8150950D01*
X14163385Y8150500D01*
X14158839Y8149750D01*
X14154900Y8148700D01*
X14151566Y8147350D01*
X14148839Y8145700D01*
X14146716Y8143750D01*
X14145203Y8141500D01*
X14144293Y8138950D01*
X14143990Y8136100D01*
Y8196100D01*
X14144293Y8193250D01*
D02*
G37*
G36*
X10103041Y7956514D02*
X10125139Y7937785D01*
X10134906Y7930967D01*
X10143819Y7925845D01*
X10151877Y7922421D01*
X10159080Y7920693D01*
X10165429Y7920663D01*
X10170923Y7922329D01*
X10175562Y7925693D01*
X10091014Y7841145D01*
X10094378Y7845784D01*
X10096045Y7851278D01*
X10096014Y7857627D01*
X10094287Y7864831D01*
X10090862Y7872888D01*
X10085740Y7881801D01*
X10078922Y7891568D01*
X10070406Y7902190D01*
X10048283Y7925998D01*
X10090710Y7968424D01*
X10103041Y7956514D01*
D02*
G37*
G36*
X10209704Y7796008D02*
X10204604Y7794207D01*
X10200105Y7791207D01*
X10196205Y7787008D01*
X10192905Y7781607D01*
X10190205Y7775008D01*
X10188105Y7767207D01*
X10186604Y7758207D01*
X10185705Y7748008D01*
X10185405Y7736608D01*
X10125405D01*
X10125105Y7748008D01*
X10124205Y7758207D01*
X10122705Y7767207D01*
X10120605Y7775008D01*
X10117905Y7781607D01*
X10114605Y7787008D01*
X10110705Y7791207D01*
X10106205Y7794207D01*
X10101105Y7796008D01*
X10095405Y7796607D01*
X10215405D01*
X10209704Y7796008D01*
D02*
G37*
G36*
X10185467Y7590023D02*
X10188440Y7546823D01*
X10189368Y7543823D01*
X10190422Y7542023D01*
X10191598Y7541423D01*
X10095405Y7541119D01*
X10101105Y7541739D01*
X10106205Y7543561D01*
X10110705Y7546586D01*
X10114605Y7550813D01*
X10117905Y7556242D01*
X10120605Y7562874D01*
X10122705Y7570708D01*
X10124205Y7579744D01*
X10125105Y7589983D01*
X10125405Y7601423D01*
X10185405D01*
X10185467Y7590023D01*
D02*
G37*
G36*
X10163703Y7376433D02*
X10158603Y7374633D01*
X10154103Y7371633D01*
X10150203Y7367433D01*
X10146903Y7362033D01*
X10144203Y7355433D01*
X10142103Y7347633D01*
X10140603Y7338633D01*
X10139703Y7328433D01*
X10139403Y7317033D01*
X10079403D01*
X10079103Y7328433D01*
X10078203Y7338633D01*
X10076703Y7347633D01*
X10074603Y7355433D01*
X10071903Y7362033D01*
X10068603Y7367433D01*
X10064703Y7371633D01*
X10060203Y7374633D01*
X10055103Y7376433D01*
X10049403Y7377033D01*
X10169403D01*
X10163703Y7376433D01*
D02*
G37*
G36*
X10052911Y6746585D02*
X10048432Y6741936D01*
X10040899Y6733046D01*
X10037846Y6728804D01*
X10035267Y6724697D01*
X10033163Y6720727D01*
X10031534Y6716892D01*
X10030380Y6713192D01*
X10029701Y6709628D01*
X10029497Y6706200D01*
X9970100Y6765597D01*
X9973528Y6765801D01*
X9977092Y6766480D01*
X9980792Y6767634D01*
X9984627Y6769263D01*
X9988597Y6771367D01*
X9992704Y6773946D01*
X9996946Y6776999D01*
X10001323Y6780528D01*
X10010485Y6789011D01*
X10052911Y6746585D01*
D02*
G37*
G36*
X9819792Y11379756D02*
X9807232Y11365147D01*
X9802129Y11358136D01*
X9797812Y11351319D01*
X9794279Y11344698D01*
X9791532Y11338272D01*
X9789569Y11332041D01*
X9788392Y11326005D01*
X9787999Y11320165D01*
X9758000D01*
X9757607Y11326005D01*
X9756430Y11332041D01*
X9754467Y11338272D01*
X9751720Y11344698D01*
X9748187Y11351319D01*
X9743870Y11358136D01*
X9738767Y11365147D01*
X9732879Y11372354D01*
X9718749Y11387353D01*
X9827250D01*
X9819792Y11379756D01*
D02*
G37*
G36*
X7466208Y6487892D02*
X7462728Y6483981D01*
X7459624Y6479582D01*
X7456895Y6474697D01*
X7454541Y6469324D01*
X7452563Y6463463D01*
X7450959Y6457115D01*
X7449732Y6450280D01*
X7448879Y6442957D01*
X7448401Y6435147D01*
X7448299Y6426849D01*
X7383952Y6491196D01*
X7392250Y6491298D01*
X7407383Y6492629D01*
X7414218Y6493856D01*
X7420566Y6495460D01*
X7426427Y6497438D01*
X7431800Y6499792D01*
X7436685Y6502521D01*
X7441084Y6505625D01*
X7444995Y6509105D01*
X7466208Y6487892D01*
D02*
G37*
G36*
X11887215Y9737800D02*
X11883157Y9738338D01*
X11879009Y9738302D01*
X11874771Y9737692D01*
X11870442Y9736508D01*
X11866024Y9734750D01*
X11861515Y9732419D01*
X11856916Y9729513D01*
X11852228Y9726034D01*
X11847448Y9721980D01*
X11842579Y9717353D01*
X11809671Y9769297D01*
X11814384Y9774153D01*
X11825956Y9787879D01*
X11828959Y9792174D01*
X11831534Y9796328D01*
X11833681Y9800341D01*
X11835401Y9804214D01*
X11836693Y9807946D01*
X11837557Y9811538D01*
X11887215Y9737800D01*
D02*
G37*
G36*
X10789033Y8663807D02*
X10784114Y8658619D01*
X10779719Y8653418D01*
X10775847Y8648202D01*
X10772498Y8642972D01*
X10769673Y8637729D01*
X10767371Y8632471D01*
X10765592Y8627199D01*
X10764337Y8621914D01*
X10763605Y8616614D01*
X10763397Y8611300D01*
X10694100Y8680597D01*
X10699414Y8680805D01*
X10704714Y8681537D01*
X10709999Y8682792D01*
X10715271Y8684571D01*
X10720529Y8686873D01*
X10725772Y8689698D01*
X10731002Y8693047D01*
X10736218Y8696919D01*
X10741419Y8701314D01*
X10746607Y8706233D01*
X10789033Y8663807D01*
D02*
G37*
G36*
X14972144Y8474150D02*
X14968021Y8468944D01*
X14964384Y8463436D01*
X14961230Y8457627D01*
X14958563Y8451517D01*
X14956381Y8445105D01*
X14954684Y8438392D01*
X14953471Y8431377D01*
X14952744Y8424061D01*
X14952501Y8416443D01*
X14892500D01*
X14892259Y8424061D01*
X14891531Y8431377D01*
X14890318Y8438392D01*
X14888622Y8445105D01*
X14886440Y8451517D01*
X14883771Y8457627D01*
X14880618Y8463436D01*
X14876981Y8468944D01*
X14872858Y8474150D01*
X14868251Y8479055D01*
X14976752D01*
X14972144Y8474150D01*
D02*
G37*
G36*
X14868726Y6459220D02*
X14874252Y6454646D01*
X14879871Y6450619D01*
X14885580Y6447136D01*
X14891382Y6444199D01*
X14897273Y6441808D01*
X14903256Y6439962D01*
X14909331Y6438661D01*
X14915494Y6437906D01*
X14921750Y6437696D01*
X14847504Y6363450D01*
X14847295Y6369706D01*
X14846539Y6375870D01*
X14845238Y6381944D01*
X14843391Y6387926D01*
X14841000Y6393818D01*
X14838065Y6399619D01*
X14834581Y6405329D01*
X14830554Y6410947D01*
X14825980Y6416475D01*
X14820860Y6421912D01*
X14863287Y6464339D01*
X14868726Y6459220D01*
D02*
G37*
G36*
X14280460Y7456104D02*
X14274205Y7455894D01*
X14268040Y7455139D01*
X14261967Y7453838D01*
X14255984Y7451992D01*
X14250092Y7449601D01*
X14244292Y7446664D01*
X14238582Y7443181D01*
X14232964Y7439154D01*
X14227435Y7434580D01*
X14221999Y7429461D01*
X14179572Y7471888D01*
X14184691Y7477325D01*
X14189264Y7482853D01*
X14193292Y7488471D01*
X14196774Y7494181D01*
X14199712Y7499982D01*
X14202103Y7505874D01*
X14203949Y7511856D01*
X14205249Y7517930D01*
X14206004Y7524094D01*
X14206213Y7530350D01*
X14280460Y7456104D01*
D02*
G37*
G36*
X13620850Y6828312D02*
X13615730Y6822875D01*
X13611157Y6817347D01*
X13607129Y6811729D01*
X13603647Y6806019D01*
X13600710Y6800218D01*
X13598318Y6794326D01*
X13596472Y6788344D01*
X13595171Y6782270D01*
X13594415Y6776106D01*
X13594206Y6769850D01*
X13519962Y6844096D01*
X13526216Y6844306D01*
X13532381Y6845061D01*
X13538454Y6846362D01*
X13544437Y6848208D01*
X13550328Y6850599D01*
X13556129Y6853536D01*
X13561839Y6857019D01*
X13567458Y6861046D01*
X13572986Y6865620D01*
X13578423Y6870739D01*
X13620850Y6828312D01*
D02*
G37*
G36*
X13365865Y7873609D02*
X13363313Y7872709D01*
X13361063Y7871209D01*
X13359113Y7869108D01*
X13357465Y7866408D01*
X13356113Y7863108D01*
X13355063Y7859209D01*
X13354314Y7854709D01*
X13353864Y7849609D01*
X13353712Y7843909D01*
X13323714D01*
X13323563Y7849609D01*
X13323114Y7854709D01*
X13322363Y7859209D01*
X13321313Y7863108D01*
X13319963Y7866408D01*
X13318314Y7869108D01*
X13316364Y7871209D01*
X13314114Y7872709D01*
X13311563Y7873609D01*
X13308714Y7873909D01*
X13368713D01*
X13365865Y7873609D01*
D02*
G37*
G36*
X13450345Y7367709D02*
X13455305Y7364339D01*
X13460919Y7361378D01*
X13467184Y7358825D01*
X13474100Y7356682D01*
X13481670Y7354947D01*
X13489890Y7353621D01*
X13498761Y7352704D01*
X13518460Y7352096D01*
X13444781Y7278417D01*
X13515807Y7202177D01*
X13505779Y7202421D01*
X13487608Y7201550D01*
X13479466Y7200435D01*
X13471951Y7198868D01*
X13465067Y7196848D01*
X13458810Y7194375D01*
X13453181Y7191450D01*
X13448183Y7188072D01*
X13443811Y7184241D01*
X13423364Y7206221D01*
X13427086Y7210462D01*
X13430444Y7215378D01*
X13433440Y7220969D01*
X13436072Y7227235D01*
X13438341Y7234176D01*
X13440247Y7241791D01*
X13441788Y7250082D01*
X13442967Y7259048D01*
X13444206Y7278570D01*
X13444115Y7288026D01*
X13442690Y7306422D01*
X13441364Y7314642D01*
X13439629Y7322210D01*
X13437485Y7329127D01*
X13434933Y7335391D01*
X13431972Y7341004D01*
X13428603Y7345965D01*
X13424823Y7350275D01*
X13446036Y7371488D01*
X13450345Y7367709D01*
D02*
G37*
G36*
X12840894Y7118353D02*
X12841801Y7115802D01*
X12843318Y7113552D01*
X12845439Y7111602D01*
X12848166Y7109953D01*
X12851500Y7108602D01*
X12855440Y7107552D01*
X12859985Y7106802D01*
X12865137Y7106353D01*
X12870895Y7106202D01*
Y7076203D01*
X12865137Y7076052D01*
X12859985Y7075603D01*
X12855440Y7074853D01*
X12851500Y7073802D01*
X12848166Y7072452D01*
X12845439Y7070802D01*
X12843318Y7068853D01*
X12841801Y7066603D01*
X12840894Y7064052D01*
X12840590Y7061203D01*
Y7121202D01*
X12840894Y7118353D01*
D02*
G37*
G36*
X12711810Y7061203D02*
X12711507Y7064052D01*
X12710598Y7066603D01*
X12709082Y7068853D01*
X12706961Y7070802D01*
X12704234Y7072452D01*
X12700900Y7073802D01*
X12696960Y7074853D01*
X12692415Y7075603D01*
X12687263Y7076052D01*
X12681505Y7076203D01*
Y7106202D01*
X12687263Y7106353D01*
X12692415Y7106802D01*
X12696960Y7107552D01*
X12700900Y7108602D01*
X12704234Y7109953D01*
X12706961Y7111602D01*
X12709082Y7113552D01*
X12710598Y7115802D01*
X12711507Y7118353D01*
X12711810Y7121202D01*
Y7061203D01*
D02*
G37*
G36*
X12410470Y6485919D02*
X12411280Y6480912D01*
X12412630Y6475872D01*
X12414520Y6470798D01*
X12416950Y6465690D01*
X12419920Y6460548D01*
X12423430Y6455373D01*
X12427480Y6450164D01*
X12432070Y6444922D01*
X12437200Y6439645D01*
X12353200D01*
X12358330Y6444922D01*
X12366970Y6455373D01*
X12370480Y6460548D01*
X12373450Y6465690D01*
X12375880Y6470798D01*
X12377770Y6475872D01*
X12379120Y6480912D01*
X12379930Y6485919D01*
X12380200Y6490892D01*
X12410200D01*
X12410470Y6485919D01*
D02*
G37*
G36*
X14280460Y6694104D02*
X14274205Y6693894D01*
X14268040Y6693139D01*
X14261967Y6691838D01*
X14255984Y6689992D01*
X14250092Y6687601D01*
X14244292Y6684664D01*
X14238582Y6681181D01*
X14232964Y6677154D01*
X14227435Y6672580D01*
X14221999Y6667461D01*
X14179572Y6709888D01*
X14184691Y6715325D01*
X14189264Y6720853D01*
X14193292Y6726471D01*
X14196774Y6732181D01*
X14199712Y6737982D01*
X14202103Y6743874D01*
X14203949Y6749856D01*
X14205249Y6755930D01*
X14206004Y6762094D01*
X14206213Y6768350D01*
X14280460Y6694104D01*
D02*
G37*
G36*
X13327615Y6300821D02*
X13330617Y6298781D01*
X13334048Y6296981D01*
X13337912Y6295421D01*
X13342207Y6294101D01*
X13346935Y6293021D01*
X13352094Y6292181D01*
X13357684Y6291581D01*
X13370161Y6291101D01*
Y6231101D01*
X13363707Y6230981D01*
X13352094Y6230021D01*
X13346935Y6229181D01*
X13342207Y6228101D01*
X13337912Y6226781D01*
X13334048Y6225221D01*
X13330617Y6223421D01*
X13327615Y6221381D01*
X13325047Y6219101D01*
Y6303101D01*
X13327615Y6300821D01*
D02*
G37*
G36*
X15250453Y7039305D02*
X15247903Y7038406D01*
X15245653Y7036905D01*
X15243703Y7034805D01*
X15242053Y7032105D01*
X15240703Y7028805D01*
X15239653Y7024905D01*
X15238902Y7020406D01*
X15238454Y7015306D01*
X15238303Y7009605D01*
X15208302D01*
X15208153Y7015306D01*
X15207703Y7020406D01*
X15206953Y7024905D01*
X15205904Y7028805D01*
X15204553Y7032105D01*
X15202904Y7034805D01*
X15200954Y7036905D01*
X15198703Y7038406D01*
X15196153Y7039305D01*
X15193303Y7039605D01*
X15253304D01*
X15250453Y7039305D01*
D02*
G37*
G36*
X15872084Y6260038D02*
X15883151Y6250644D01*
X15888040Y6247219D01*
X15892497Y6244643D01*
X15896526Y6242915D01*
X15900122Y6242036D01*
X15903288Y6242006D01*
X15906026Y6242824D01*
X15908331Y6244490D01*
X15866209Y6202369D01*
X15867876Y6204675D01*
X15868694Y6207411D01*
X15868665Y6210578D01*
X15867786Y6214175D01*
X15866057Y6218203D01*
X15863481Y6222660D01*
X15860056Y6227549D01*
X15855783Y6232867D01*
X15844691Y6244795D01*
X15865906Y6266008D01*
X15872084Y6260038D01*
D02*
G37*
G36*
X8453857Y5267500D02*
X8450246Y5270635D01*
X8445884Y5273440D01*
X8440770Y5275915D01*
X8434904Y5278060D01*
X8428286Y5279875D01*
X8420917Y5281360D01*
X8412796Y5282515D01*
X8394299Y5283835D01*
X8383923Y5284000D01*
Y5384000D01*
X8394299Y5384165D01*
X8412796Y5385485D01*
X8420917Y5386640D01*
X8428286Y5388125D01*
X8434904Y5389940D01*
X8440770Y5392085D01*
X8445884Y5394560D01*
X8450246Y5397365D01*
X8453857Y5400500D01*
Y5267500D01*
D02*
G37*
G36*
X7958154Y5397365D02*
X7962516Y5394560D01*
X7967630Y5392085D01*
X7973496Y5389940D01*
X7980114Y5388125D01*
X7987483Y5386640D01*
X7995604Y5385485D01*
X8014101Y5384165D01*
X8024477Y5384000D01*
Y5284000D01*
X8014101Y5283835D01*
X7995604Y5282515D01*
X7987483Y5281360D01*
X7980114Y5279875D01*
X7973496Y5278060D01*
X7967630Y5275915D01*
X7962516Y5273440D01*
X7958154Y5270635D01*
X7954543Y5267500D01*
Y5400500D01*
X7958154Y5397365D01*
D02*
G37*
G36*
X9254493Y7568586D02*
X9256670Y7539556D01*
X9257668Y7534329D01*
X9258848Y7529913D01*
X9260209Y7526308D01*
X9261751Y7523516D01*
X9263475Y7521535D01*
X9148187Y7514538D01*
X9149368Y7516333D01*
X9150424Y7518967D01*
X9151357Y7522439D01*
X9152165Y7526749D01*
X9152848Y7531899D01*
X9153843Y7544712D01*
X9154402Y7570222D01*
X9254402Y7577873D01*
X9254493Y7568586D01*
D02*
G37*
G36*
X9255812Y7391021D02*
X9253720Y7389115D01*
X9251848Y7386391D01*
X9250196Y7382851D01*
X9248764Y7378495D01*
X9247553Y7373322D01*
X9246562Y7367332D01*
X9245241Y7352904D01*
X9244800Y7335209D01*
X9144800Y7328530D01*
X9142135Y7411461D01*
X9255812Y7391021D01*
D02*
G37*
G36*
X9327921Y6609880D02*
X9328644Y6610282D01*
X9333440Y6614154D01*
Y6543399D01*
X9332100Y6544480D01*
X9332517Y6537956D01*
X9326811Y6542862D01*
X9315678Y6551124D01*
X9310250Y6554481D01*
X9307660Y6555860D01*
X9305668Y6556440D01*
X9295148Y6558682D01*
X9283196Y6560516D01*
X9254998Y6562961D01*
X9221076Y6563776D01*
Y6593776D01*
X9238753Y6593980D01*
X9283196Y6597037D01*
X9295148Y6598871D01*
X9301700Y6600267D01*
X9302707Y6600778D01*
X9307646Y6603859D01*
X9312561Y6607500D01*
X9317451Y6611702D01*
X9322318Y6616463D01*
X9327160Y6621785D01*
X9327921Y6609880D01*
D02*
G37*
G36*
X8274912Y6396200D02*
X8274609Y6399049D01*
X8273700Y6401600D01*
X8272185Y6403850D01*
X8270063Y6405799D01*
X8267336Y6407449D01*
X8264003Y6408799D01*
X8260063Y6409850D01*
X8255517Y6410600D01*
X8250366Y6411049D01*
X8244608Y6411200D01*
Y6441199D01*
X8250366Y6441350D01*
X8255517Y6441799D01*
X8260063Y6442549D01*
X8264003Y6443600D01*
X8267336Y6444950D01*
X8270063Y6446600D01*
X8272185Y6448549D01*
X8273700Y6450799D01*
X8274609Y6453350D01*
X8274912Y6456199D01*
Y6396200D01*
D02*
G37*
G36*
X7902110Y6153120D02*
X7903340Y6146939D01*
X7905390Y6140541D01*
X7908260Y6133923D01*
X7911950Y6127088D01*
X7916460Y6120034D01*
X7921790Y6112761D01*
X7927940Y6105269D01*
X7942700Y6089631D01*
X7830700D01*
X7838490Y6097560D01*
X7851610Y6112761D01*
X7856940Y6120034D01*
X7861450Y6127088D01*
X7865140Y6133923D01*
X7868010Y6140541D01*
X7870060Y6146939D01*
X7871290Y6153120D01*
X7871700Y6159081D01*
X7901700D01*
X7902110Y6153120D01*
D02*
G37*
G36*
X7635410D02*
X7636640Y6146939D01*
X7638690Y6140541D01*
X7641560Y6133923D01*
X7645250Y6127088D01*
X7649760Y6120034D01*
X7655090Y6112761D01*
X7661240Y6105269D01*
X7676000Y6089631D01*
X7564000D01*
X7571790Y6097560D01*
X7584910Y6112761D01*
X7590240Y6120034D01*
X7594750Y6127088D01*
X7598440Y6133923D01*
X7601310Y6140541D01*
X7603360Y6146939D01*
X7604590Y6153120D01*
X7605000Y6159081D01*
X7635000D01*
X7635410Y6153120D01*
D02*
G37*
G36*
X12825739Y5444777D02*
X12862544Y5413603D01*
X12878818Y5402259D01*
X12893669Y5393743D01*
X12907101Y5388056D01*
X12919113Y5385196D01*
X12929704Y5385166D01*
X12938876Y5387964D01*
X12946626Y5393590D01*
X12805510Y5252474D01*
X12811136Y5260224D01*
X12813934Y5269396D01*
X12813904Y5279987D01*
X12811044Y5291999D01*
X12805357Y5305431D01*
X12796841Y5320283D01*
X12785497Y5336555D01*
X12771324Y5354248D01*
X12734494Y5393895D01*
X12805205Y5464606D01*
X12825739Y5444777D01*
D02*
G37*
G36*
X14032536Y5957550D02*
X14031686Y5954792D01*
Y5951610D01*
X14032536Y5948004D01*
X14034233Y5943973D01*
X14036778Y5939519D01*
X14040173Y5934640D01*
X14044415Y5929336D01*
X14055446Y5917457D01*
X14034233Y5896244D01*
X14028081Y5902184D01*
X14017050Y5911517D01*
X14012170Y5914911D01*
X14007716Y5917457D01*
X14003687Y5919154D01*
X14000079Y5920003D01*
X13996898D01*
X13994141Y5919154D01*
X13991806Y5917457D01*
X14034233Y5959883D01*
X14032536Y5957550D01*
D02*
G37*
G36*
X15241806Y5125387D02*
X15247044Y5121887D01*
X15253020Y5118812D01*
X15259727Y5116162D01*
X15267171Y5113938D01*
X15275348Y5112139D01*
X15284259Y5110765D01*
X15293906Y5109817D01*
X15315401Y5109196D01*
X15236205Y5030000D01*
X15236105Y5041115D01*
X15234634Y5061141D01*
X15233261Y5070052D01*
X15231462Y5078229D01*
X15229237Y5085672D01*
X15226588Y5092380D01*
X15223512Y5098355D01*
X15220013Y5103594D01*
X15216087Y5108100D01*
X15237300Y5129313D01*
X15241806Y5125387D01*
D02*
G37*
D10*
X9194800Y6760403D02*
X9372600Y6582603D01*
X9196963Y7446791D02*
X9209400Y7459228D01*
X9194800Y7398667D02*
X9196963Y7400830D01*
Y7446791D01*
X9194800Y6760403D02*
Y7398667D01*
X10287000Y9784494D02*
Y10223500D01*
X9214704Y8712198D02*
X10287000Y9784494D01*
Y10223500D02*
X11023600Y10960100D01*
X7886700Y5334000D02*
X8521700D01*
X9214704Y8242298D02*
Y8712198D01*
X8343900Y11203400D02*
X8815800Y10731500D01*
X9186700D01*
X9199405Y7861303D02*
X9204402Y7856305D01*
Y7464226D02*
Y7856305D01*
Y7464226D02*
X9209400Y7459228D01*
X11023600Y10960100D02*
X11418733D01*
X8508399Y11617899D02*
X8810227D01*
X8343900Y11453400D02*
X8508399Y11617899D01*
X9295428Y12103100D02*
X9916099D01*
X8810227Y11617899D02*
X9295428Y12103100D01*
X9422699Y9259001D02*
X9423400Y9258300D01*
X8598601Y9259001D02*
X9422699D01*
X8018302Y9118601D02*
X8458201D01*
X8598601Y9259001D01*
X9516303Y6438900D02*
X11760200D01*
X9376427Y6578776D02*
X9516303Y6438900D01*
X11760200D02*
X12941299Y5257800D01*
X9368773Y6578776D02*
X9372600Y6582603D01*
X8916101Y12103100D02*
X9805100Y12992097D01*
X11175702D01*
D11*
X12059565Y11176000D02*
X12306300D01*
X11867665Y10984100D02*
X12059565Y11176000D01*
X11768653Y10984100D02*
X11867665D01*
X10433401Y8610600D02*
Y9221880D01*
X11554132Y10342612D01*
X10693400Y8610600D02*
X11882800Y9800000D01*
X11900000D01*
X13843977Y10281468D02*
Y10873242D01*
X13378319Y11338900D02*
X13843977Y10873242D01*
X12062800Y11338900D02*
X13378319D01*
X11849100Y11125200D02*
X12062800Y11338900D01*
X9932651Y8084056D02*
Y9220018D01*
Y8084056D02*
X10155405Y7861303D01*
X10109403Y7459228D02*
X10155405Y7505230D01*
Y7861303D01*
X10109403Y6845503D02*
Y7459228D01*
X9969500Y6705600D02*
X10109403Y6845503D01*
X11554132Y10769579D02*
X11768653Y10984100D01*
X11554132Y10342612D02*
Y10769579D01*
X9932651Y9220018D02*
X11418733Y10706100D01*
X14922501Y8226649D02*
Y8534401D01*
X14607899Y7912046D02*
X14922501Y8226649D01*
X14607899Y6677301D02*
Y7912046D01*
Y6677301D02*
X14922501Y6362700D01*
X13282199Y6261101D02*
X13773212D01*
X14281210Y6769100D01*
X13519209D02*
X14281210Y7531100D01*
D12*
X13969537Y5982152D02*
X14433577Y5518113D01*
X14827287D01*
X12641102Y7091202D02*
X12776200D01*
X12395200Y6845300D02*
X12641102Y7091202D01*
X12395200Y6396797D02*
Y6845300D01*
X12776200Y7091202D02*
X13329559D01*
X13515456Y7277100D01*
X13519209D01*
X11849100Y10871200D02*
X14207175Y8513127D01*
Y8183674D02*
Y8513127D01*
X14189600Y8166100D02*
X14207175Y8183674D01*
X14084599Y8166100D02*
X14189600D01*
X7886700Y6175384D02*
X8137515Y6426199D01*
X7886700Y6032500D02*
Y6175384D01*
X8137515Y6426199D02*
X8339303D01*
X7605900Y8964800D02*
X9773000Y11131900D01*
X7605900Y6648797D02*
Y8964800D01*
X7383302Y6426199D02*
X7605900Y6648797D01*
X7620000Y6223000D02*
X7975776Y6578776D01*
X7620000Y6032500D02*
Y6223000D01*
X7975776Y6578776D02*
X9368773D01*
X9773000Y11131900D02*
Y11442699D01*
X15223303Y6887397D02*
Y7099301D01*
Y6887397D02*
X16002000Y6108700D01*
X14827287Y5518113D02*
X15316200Y5029200D01*
X13338713Y7457597D02*
Y7920904D01*
X13326013Y7933604D02*
X13338713Y7920904D01*
Y7457597D02*
X13519209Y7277100D01*
D13*
X17094200Y4787900D02*
D03*
X6477000D02*
D03*
X17094200Y13792198D02*
D03*
X6476998D02*
D03*
D14*
X7886700Y5334000D02*
D03*
X8521700D02*
D03*
X10874954Y5339431D02*
D03*
X11509954D02*
D03*
D15*
X7251700Y5334000D02*
D03*
X10239954Y5339431D02*
D03*
D16*
X14909801Y5029200D02*
D03*
X14655800D02*
D03*
X10426700Y7416800D02*
D03*
X10655701D02*
D03*
X8140700Y6032500D02*
D03*
X7886700D02*
D03*
X7366000D02*
D03*
X7620000D02*
D03*
X15011400Y7569200D02*
D03*
Y7823200D02*
D03*
X15570200Y5029200D02*
D03*
X15316200D02*
D03*
D17*
X9499600Y5067300D02*
D03*
X10953399Y7924800D02*
D03*
X10693400D02*
D03*
X10953399Y8610600D02*
D03*
X10693400D02*
D03*
D18*
X9245600Y5067300D02*
D03*
D19*
X11500000Y8600000D02*
D03*
D20*
Y5984003D02*
D03*
X10134100Y10083800D02*
D03*
X9246100Y10412650D02*
D03*
X9773000Y11442699D02*
D03*
X14922501Y8826500D02*
D03*
X15759706Y10147300D02*
D03*
X14922501Y8534401D02*
D03*
X15176498Y9118599D02*
D03*
D21*
X8243001Y10172700D02*
D03*
Y7772400D02*
D03*
X14588852Y12042638D02*
D03*
Y10281468D02*
D03*
D22*
X7493000Y10172700D02*
D03*
Y7772400D02*
D03*
X13838850Y12042638D02*
D03*
Y10281468D02*
D03*
D23*
X16080807Y11480800D02*
D03*
X16002000Y6616700D02*
D03*
X7670800Y12928600D02*
D03*
X12433300Y5257800D02*
D03*
D24*
X16080807Y10972800D02*
D03*
X16002000Y6108700D02*
D03*
D25*
X12306300Y10668000D02*
D03*
Y10922000D02*
D03*
D26*
Y11176000D02*
D03*
D27*
X10998202Y11976098D02*
D03*
X12700000Y11950700D02*
D03*
D28*
X10998202Y9436098D02*
D03*
X12700000Y9410700D02*
D03*
D29*
X9372600Y6832600D02*
D03*
X8343900Y11453400D02*
D03*
X12395200Y6146800D02*
D03*
X13131799Y6747699D02*
D03*
D30*
X9372600Y6582603D02*
D03*
X8343900Y11203400D02*
D03*
X13322000Y8166100D02*
D03*
X14088612Y7933604D02*
D03*
X13282199Y6261101D02*
D03*
X12395200Y6396797D02*
D03*
X13131799Y7247703D02*
D03*
X14723299Y7099301D02*
D03*
X9969500Y6705600D02*
D03*
D31*
X10433401Y7924800D02*
D03*
Y8610600D02*
D03*
D32*
X10884698Y7416800D02*
D03*
D33*
X7395998Y6743697D02*
D03*
X7383302Y6426199D02*
D03*
X9186700Y10731500D02*
D03*
X8018302Y9118601D02*
D03*
X10523703Y6083299D02*
D03*
X8966200Y8813800D02*
D03*
X9199405Y7861303D02*
D03*
X13969537Y5026152D02*
D03*
X14274800Y5982152D02*
D03*
X13677901Y5982147D02*
D03*
X12776200Y8047203D02*
D03*
D34*
X8351999Y6743697D02*
D03*
X8339303Y6426199D02*
D03*
X10142700Y10731500D02*
D03*
X8974303Y9118601D02*
D03*
X9567702Y6083299D02*
D03*
X8010200Y8813800D02*
D03*
X10155405Y7861303D02*
D03*
D35*
X9246100Y10083800D02*
D03*
X10134100Y10412650D02*
D03*
X9022998Y11442699D02*
D03*
X15176500Y8826500D02*
D03*
X16509708Y10147300D02*
D03*
X15176501Y8534401D02*
D03*
X14922499Y9118599D02*
D03*
D36*
X8709000Y5981700D02*
D03*
X11849100Y11125200D02*
D03*
D37*
X8509000Y5981700D02*
D03*
D38*
X14084599Y8166100D02*
D03*
X13326013Y7933604D02*
D03*
X13032204Y6261101D02*
D03*
X15223303Y7099301D02*
D03*
X10219502Y6705600D02*
D03*
D39*
X13519209Y7531100D02*
D03*
X14922501Y6108700D02*
D03*
D40*
X13519209Y7277100D02*
D03*
Y7023100D02*
D03*
Y6769100D02*
D03*
X14281210Y7531100D02*
D03*
Y7277100D02*
D03*
Y7023100D02*
D03*
Y6769100D02*
D03*
X14922501Y6616700D02*
D03*
Y6362700D02*
D03*
D41*
X10114703Y8242298D02*
D03*
X9209400Y7459228D02*
D03*
D42*
X9214704Y8242298D02*
D03*
X10109403Y7459228D02*
D03*
D43*
X13969537Y5982152D02*
D03*
X14274800Y5026152D02*
D03*
X13677901Y5026147D02*
D03*
X12776200Y7091202D02*
D03*
D44*
X16034598Y7411872D02*
D03*
D45*
Y9671873D02*
D03*
X11175702Y12992097D02*
D03*
D46*
X8915701D02*
D03*
D47*
X9916099Y12103100D02*
D03*
D48*
X7416099D02*
D03*
X8916101D02*
D03*
X8166100D02*
D03*
D49*
X15011400Y8077200D02*
D03*
D50*
X8178800Y12928600D02*
D03*
X12941299Y5257800D02*
D03*
D51*
X11849100Y10871200D02*
D03*
D52*
X11418733Y11214100D02*
D03*
Y10960100D02*
D03*
D53*
Y10706100D02*
D03*
D54*
X15367000Y10058400D02*
D03*
D55*
Y10439400D02*
D03*
Y10820400D02*
D03*
Y11201400D02*
D03*
D56*
X11900000Y9800000D02*
D03*
X9423400Y9258300D02*
D03*
%TF.MD5,6d500203c45abf0aacfbde581229c33a*%
M02*
