%TF.GenerationSoftware,Altium Limited,Altium Designer,24.6.1 (21)*%
G04 Layer_Color=2752767*
%FSLAX45Y45*%
%MOMM*%
%TF.SameCoordinates,0617DE4C-FBCD-45B3-9FC9-0F316C81E249*%
%TF.FilePolarity,Positive*%
%TF.FileFunction,Drawing*%
%TF.Part,Single*%
G01*
G75*
%TA.AperFunction,NonConductor*%
%ADD112C,0.12700*%
%ADD114C,0.16933*%
%ADD115C,0.10160*%
D112*
X17094200Y4787900D02*
Y4872539D01*
X17136520Y4914859D01*
X17178839Y4872539D01*
Y4787900D01*
Y4851379D01*
X17094200D01*
X6477000Y4787900D02*
Y4872539D01*
X6519320Y4914859D01*
X6561639Y4872539D01*
Y4787900D01*
Y4851379D01*
X6477000D01*
X17094200Y13792198D02*
Y13876837D01*
X17136520Y13919157D01*
X17178839Y13876837D01*
Y13792198D01*
Y13855676D01*
X17094200D01*
X7835900Y5283200D02*
X7861300Y5334000D01*
X7835900Y5384800D01*
X7886700Y5359400D01*
X7937500Y5384800D01*
X7912100Y5334000D01*
X7937500Y5283200D01*
X7886700Y5308600D01*
X7835900Y5283200D01*
X8470900D02*
X8496300Y5334000D01*
X8470900Y5384800D01*
X8521700Y5359400D01*
X8572500Y5384800D01*
X8547100Y5334000D01*
X8572500Y5283200D01*
X8521700Y5308600D01*
X8470900Y5283200D01*
X7200900D02*
X7226300Y5334000D01*
X7200900Y5384800D01*
X7251700Y5359400D01*
X7302500Y5384800D01*
X7277100Y5334000D01*
X7302500Y5283200D01*
X7251700Y5308600D01*
X7200900Y5283200D01*
X14909801Y4978400D02*
X14859000Y5080000D01*
X14960600D01*
X14909801Y4978400D01*
Y4998720D02*
X14879320Y5059680D01*
X14940280D01*
X14909801Y4998720D01*
X14655800Y4978400D02*
X14605000Y5080000D01*
X14706599D01*
X14655800Y4978400D01*
Y4998720D02*
X14625320Y5059680D01*
X14686279D01*
X14655800Y4998720D01*
X9499600Y5194259D02*
Y5067300D01*
X9563079D01*
X9584239Y5088460D01*
Y5109620D01*
X9563079Y5130779D01*
X9499600D01*
X9563079D01*
X9584239Y5151939D01*
Y5173099D01*
X9563079Y5194259D01*
X9499600D01*
X9245600D02*
Y5067300D01*
X9309079D01*
X9330239Y5088460D01*
Y5109620D01*
X9309079Y5130779D01*
X9245600D01*
X9309079D01*
X9330239Y5151939D01*
Y5173099D01*
X9309079Y5194259D01*
X9245600D01*
X11500000Y8549200D02*
X11449200Y8650800D01*
X11550800D01*
X11500000Y8549200D01*
Y8569520D02*
X11469520Y8630480D01*
X11530480D01*
X11500000Y8569520D01*
Y5933203D02*
X11449200Y6034803D01*
X11550800D01*
X11500000Y5933203D01*
Y5953523D02*
X11469520Y6014483D01*
X11530480D01*
X11500000Y5953523D01*
X8192201Y10121900D02*
X8217601D01*
X8243001Y10147300D01*
X8268401Y10121900D01*
X8293801D01*
Y10147300D01*
X8268401Y10172700D01*
X8293801Y10198100D01*
Y10223500D01*
X8268401D01*
X8243001Y10198100D01*
X8217601Y10223500D01*
X8192201D01*
Y10198100D01*
X8217601Y10172700D01*
X8192201Y10147300D01*
Y10121900D01*
X7442200D02*
X7467600D01*
X7493000Y10147300D01*
X7518400Y10121900D01*
X7543800D01*
Y10147300D01*
X7518400Y10172700D01*
X7543800Y10198100D01*
Y10223500D01*
X7518400D01*
X7493000Y10198100D01*
X7467600Y10223500D01*
X7442200D01*
Y10198100D01*
X7467600Y10172700D01*
X7442200Y10147300D01*
Y10121900D01*
X12255500Y10617200D02*
X12280900Y10668000D01*
X12255500Y10718800D01*
X12306300Y10693400D01*
X12357100Y10718800D01*
X12331700Y10668000D01*
X12357100Y10617200D01*
X12306300Y10642600D01*
X12255500Y10617200D01*
Y10871200D02*
X12280900Y10922000D01*
X12255500Y10972800D01*
X12306300Y10947400D01*
X12357100Y10972800D01*
X12331700Y10922000D01*
X12357100Y10871200D01*
X12306300Y10896600D01*
X12255500Y10871200D01*
Y11125200D02*
X12280900Y11176000D01*
X12255500Y11226800D01*
X12306300Y11201400D01*
X12357100Y11226800D01*
X12331700Y11176000D01*
X12357100Y11125200D01*
X12306300Y11150600D01*
X12255500Y11125200D01*
X10947402Y11925298D02*
X10972802D01*
X10998202Y11950698D01*
X11023602Y11925298D01*
X11049002D01*
Y11950698D01*
X11023602Y11976098D01*
X11049002Y12001498D01*
Y12026898D01*
X11023602D01*
X10998202Y12001498D01*
X10972802Y12026898D01*
X10947402D01*
Y12001498D01*
X10972802Y11976098D01*
X10947402Y11950698D01*
Y11925298D01*
X10967722Y11945618D02*
X10982962D01*
X10998202Y11960858D01*
X11013442Y11945618D01*
X11028682D01*
Y11960858D01*
X11013442Y11976098D01*
X11028682Y11991338D01*
Y12006578D01*
X11013442D01*
X10998202Y11991338D01*
X10982962Y12006578D01*
X10967722D01*
Y11991338D01*
X10982962Y11976098D01*
X10967722Y11960858D01*
Y11945618D01*
X10947402Y9385298D02*
X10972802D01*
X10998202Y9410698D01*
X11023602Y9385298D01*
X11049002D01*
Y9410698D01*
X11023602Y9436098D01*
X11049002Y9461498D01*
Y9486898D01*
X11023602D01*
X10998202Y9461498D01*
X10972802Y9486898D01*
X10947402D01*
Y9461498D01*
X10972802Y9436098D01*
X10947402Y9410698D01*
Y9385298D01*
X10967722Y9405618D02*
X10982962D01*
X10998202Y9420858D01*
X11013442Y9405618D01*
X11028682D01*
Y9420858D01*
X11013442Y9436098D01*
X11028682Y9451338D01*
Y9466578D01*
X11013442D01*
X10998202Y9451338D01*
X10982962Y9466578D01*
X10967722D01*
Y9451338D01*
X10982962Y9436098D01*
X10967722Y9420858D01*
Y9405618D01*
X10824154Y5288631D02*
X10849554Y5339431D01*
X10824154Y5390231D01*
X10874954Y5364831D01*
X10925754Y5390231D01*
X10900354Y5339431D01*
X10925754Y5288631D01*
X10874954Y5314031D01*
X10824154Y5288631D01*
X11459154D02*
X11484554Y5339431D01*
X11459154Y5390231D01*
X11509954Y5364831D01*
X11560754Y5390231D01*
X11535354Y5339431D01*
X11560754Y5288631D01*
X11509954Y5314031D01*
X11459154Y5288631D01*
X10189154D02*
X10214554Y5339431D01*
X10189154Y5390231D01*
X10239954Y5364831D01*
X10290754Y5390231D01*
X10265354Y5339431D01*
X10290754Y5288631D01*
X10239954Y5314031D01*
X10189154Y5288631D01*
X9321800Y6832600D02*
X9372600Y6883400D01*
X9423400Y6832600D01*
X9372600Y6781800D01*
X9321800Y6832600D01*
Y6582603D02*
X9372600Y6633403D01*
X9423400Y6582603D01*
X9372600Y6531803D01*
X9321800Y6582603D01*
X10433401Y7874000D02*
X10382601Y7975600D01*
X10484201D01*
X10433401Y7874000D01*
X10953399D02*
X10902599Y7975600D01*
X11004199D01*
X10953399Y7874000D01*
X10693400D02*
X10642600Y7975600D01*
X10744200D01*
X10693400Y7874000D01*
X10426700Y7366000D02*
X10375900Y7467600D01*
X10477500D01*
X10426700Y7366000D01*
Y7386320D02*
X10396220Y7447280D01*
X10457180D01*
X10426700Y7386320D01*
X10655701Y7366000D02*
X10604901Y7467600D01*
X10706501D01*
X10655701Y7366000D01*
Y7386320D02*
X10625221Y7447280D01*
X10686181D01*
X10655701Y7386320D01*
X10884698Y7366000D02*
X10833898Y7467600D01*
X10935498D01*
X10884698Y7366000D01*
Y7386320D02*
X10854218Y7447280D01*
X10915178D01*
X10884698Y7386320D01*
X10433401Y8559800D02*
X10382601Y8661400D01*
X10484201D01*
X10433401Y8559800D01*
X10953399D02*
X10902599Y8661400D01*
X11004199D01*
X10953399Y8559800D01*
X10693400D02*
X10642600Y8661400D01*
X10744200D01*
X10693400Y8559800D01*
X7345198Y6692897D02*
Y6794497D01*
X7446798D01*
Y6692897D01*
X7345198D01*
X7365518Y6713217D02*
Y6774177D01*
X7426478D01*
Y6713217D01*
X7365518D01*
X8301199Y6692897D02*
Y6794497D01*
X8402799D01*
Y6692897D01*
X8301199D01*
X8321519Y6713217D02*
Y6774177D01*
X8382479D01*
Y6713217D01*
X8321519D01*
X7332502Y6375399D02*
Y6476999D01*
X7434102D01*
Y6375399D01*
X7332502D01*
X7352822Y6395719D02*
Y6456679D01*
X7413782D01*
Y6395719D01*
X7352822D01*
X8288503Y6375399D02*
Y6476999D01*
X8390103D01*
Y6375399D01*
X8288503D01*
X8308823Y6395719D02*
Y6456679D01*
X8369783D01*
Y6395719D01*
X8308823D01*
X7442200Y7721600D02*
X7467600D01*
X7493000Y7747000D01*
X7518400Y7721600D01*
X7543800D01*
Y7747000D01*
X7518400Y7772400D01*
X7543800Y7797800D01*
Y7823200D01*
X7518400D01*
X7493000Y7797800D01*
X7467600Y7823200D01*
X7442200D01*
Y7797800D01*
X7467600Y7772400D01*
X7442200Y7747000D01*
Y7721600D01*
X8192201D02*
X8217601D01*
X8243001Y7747000D01*
X8268401Y7721600D01*
X8293801D01*
Y7747000D01*
X8268401Y7772400D01*
X8293801Y7797800D01*
Y7823200D01*
X8268401D01*
X8243001Y7797800D01*
X8217601Y7823200D01*
X8192201D01*
Y7797800D01*
X8217601Y7772400D01*
X8192201Y7747000D01*
Y7721600D01*
X9246100Y10033000D02*
X9195300Y10134600D01*
X9296900D01*
X9246100Y10033000D01*
Y10053320D02*
X9215620Y10114280D01*
X9276580D01*
X9246100Y10053320D01*
X10134100Y10033000D02*
X10083300Y10134600D01*
X10184900D01*
X10134100Y10033000D01*
Y10053320D02*
X10103620Y10114280D01*
X10164580D01*
X10134100Y10053320D01*
Y10361850D02*
X10083300Y10463450D01*
X10184900D01*
X10134100Y10361850D01*
Y10382170D02*
X10103620Y10443130D01*
X10164580D01*
X10134100Y10382170D01*
X9246100Y10361850D02*
X9195300Y10463450D01*
X9296900D01*
X9246100Y10361850D01*
Y10382170D02*
X9215620Y10443130D01*
X9276580D01*
X9246100Y10382170D01*
X10091900Y10680700D02*
Y10782300D01*
X10193500D01*
Y10680700D01*
X10091900D01*
X10112220Y10701020D02*
Y10761980D01*
X10173180D01*
Y10701020D01*
X10112220D01*
X9135900Y10680700D02*
Y10782300D01*
X9237500D01*
Y10680700D01*
X9135900D01*
X9156220Y10701020D02*
Y10761980D01*
X9217180D01*
Y10701020D01*
X9156220D01*
X9022998Y11391899D02*
X8972198Y11493499D01*
X9073798D01*
X9022998Y11391899D01*
Y11412219D02*
X8992518Y11473179D01*
X9053478D01*
X9022998Y11412219D01*
X9773000Y11391899D02*
X9722200Y11493499D01*
X9823800D01*
X9773000Y11391899D01*
Y11412219D02*
X9742520Y11473179D01*
X9803480D01*
X9773000Y11412219D01*
X8140700Y5981700D02*
X8089900Y6083300D01*
X8191500D01*
X8140700Y5981700D01*
Y6002020D02*
X8110220Y6062980D01*
X8171180D01*
X8140700Y6002020D01*
X7886700Y5981700D02*
X7835900Y6083300D01*
X7937500D01*
X7886700Y5981700D01*
Y6002020D02*
X7856220Y6062980D01*
X7917180D01*
X7886700Y6002020D01*
X7366000Y5981700D02*
X7315200Y6083300D01*
X7416800D01*
X7366000Y5981700D01*
Y6002020D02*
X7335520Y6062980D01*
X7396480D01*
X7366000Y6002020D01*
X7620000Y5981700D02*
X7569200Y6083300D01*
X7670800D01*
X7620000Y5981700D01*
Y6002020D02*
X7589520Y6062980D01*
X7650480D01*
X7620000Y6002020D01*
X7967502Y9067801D02*
Y9169401D01*
X8069102D01*
Y9067801D01*
X7967502D01*
X7987822Y9088121D02*
Y9149081D01*
X8048782D01*
Y9088121D01*
X7987822D01*
X8923503Y9067801D02*
Y9169401D01*
X9025103D01*
Y9067801D01*
X8923503D01*
X8943823Y9088121D02*
Y9149081D01*
X9004783D01*
Y9088121D01*
X8943823D01*
X9516902Y6032499D02*
Y6134099D01*
X9618502D01*
Y6032499D01*
X9516902D01*
X9537222Y6052819D02*
Y6113779D01*
X9598182D01*
Y6052819D01*
X9537222D01*
X10472903Y6032499D02*
Y6134099D01*
X10574503D01*
Y6032499D01*
X10472903D01*
X10493223Y6052819D02*
Y6113779D01*
X10554183D01*
Y6052819D01*
X10493223D01*
X7959400Y8763000D02*
Y8864600D01*
X8061000D01*
Y8763000D01*
X7959400D01*
X7979720Y8783320D02*
Y8844280D01*
X8040680D01*
Y8783320D01*
X7979720D01*
X8915400Y8763000D02*
Y8864600D01*
X9017000D01*
Y8763000D01*
X8915400D01*
X8935720Y8783320D02*
Y8844280D01*
X8996680D01*
Y8783320D01*
X8935720D01*
X8293100Y11203400D02*
X8343900Y11254200D01*
X8394700Y11203400D01*
X8343900Y11152600D01*
X8293100Y11203400D01*
Y11453400D02*
X8343900Y11504200D01*
X8394700Y11453400D01*
X8343900Y11402600D01*
X8293100Y11453400D01*
X8658200Y5930900D02*
X8683600Y5981700D01*
X8658200Y6032500D01*
X8709000Y6007100D01*
X8759800Y6032500D01*
X8734400Y5981700D01*
X8759800Y5930900D01*
X8709000Y5956300D01*
X8658200Y5930900D01*
X8678520Y5951220D02*
X8693760Y5981700D01*
X8678520Y6012180D01*
X8709000Y5996940D01*
X8739480Y6012180D01*
X8724240Y5981700D01*
X8739480Y5951220D01*
X8709000Y5966460D01*
X8678520Y5951220D01*
X8458200Y5930900D02*
X8483600Y5981700D01*
X8458200Y6032500D01*
X8509000Y6007100D01*
X8559800Y6032500D01*
X8534400Y5981700D01*
X8559800Y5930900D01*
X8509000Y5956300D01*
X8458200Y5930900D01*
X8478520Y5951220D02*
X8493760Y5981700D01*
X8478520Y6012180D01*
X8509000Y5996940D01*
X8539480Y6012180D01*
X8524240Y5981700D01*
X8539480Y5951220D01*
X8509000Y5966460D01*
X8478520Y5951220D01*
X13271201Y8166100D02*
X13322000Y8216900D01*
X13372800Y8166100D01*
X13322000Y8115300D01*
X13271201Y8166100D01*
X14033800D02*
X14084599Y8216900D01*
X14135400Y8166100D01*
X14084599Y8115300D01*
X14033800Y8166100D01*
X14037813Y7933604D02*
X14088612Y7984404D01*
X14139413Y7933604D01*
X14088612Y7882804D01*
X14037813Y7933604D01*
X13275214D02*
X13326013Y7984404D01*
X13376813Y7933604D01*
X13326013Y7882804D01*
X13275214Y7933604D01*
X14897099Y8801100D02*
Y8775700D01*
X14947900D01*
Y8801100D01*
X14973300D01*
Y8851900D01*
X14947900D01*
Y8877300D01*
X14897099D01*
Y8851900D01*
X14871700D01*
Y8801100D01*
X14897099D01*
X15151100D02*
Y8775700D01*
X15201900D01*
Y8801100D01*
X15227299D01*
Y8851900D01*
X15201900D01*
Y8877300D01*
X15151100D01*
Y8851900D01*
X15125700D01*
Y8801100D01*
X15151100D01*
X13519209Y7480300D02*
X13468410Y7581900D01*
X13570010D01*
X13519209Y7480300D01*
Y7226300D02*
X13468410Y7327900D01*
X13570010D01*
X13519209Y7226300D01*
Y6972300D02*
X13468410Y7073900D01*
X13570010D01*
X13519209Y6972300D01*
Y6718300D02*
X13468410Y6819900D01*
X13570010D01*
X13519209Y6718300D01*
X14281210Y7480300D02*
X14230409Y7581900D01*
X14332010D01*
X14281210Y7480300D01*
Y7226300D02*
X14230409Y7327900D01*
X14332010D01*
X14281210Y7226300D01*
Y6972300D02*
X14230409Y7073900D01*
X14332010D01*
X14281210Y6972300D01*
Y6718300D02*
X14230409Y6819900D01*
X14332010D01*
X14281210Y6718300D01*
X13231400Y6261101D02*
X13282199Y6311901D01*
X13332999Y6261101D01*
X13282199Y6210301D01*
X13231400Y6261101D01*
X12981403D02*
X13032204Y6311901D01*
X13083003Y6261101D01*
X13032204Y6210301D01*
X12981403Y6261101D01*
X15759706Y10096500D02*
X15708907Y10198100D01*
X15810506D01*
X15759706Y10096500D01*
Y10116820D02*
X15729227Y10177780D01*
X15790186D01*
X15759706Y10116820D01*
X16509708Y10096500D02*
X16458907Y10198100D01*
X16560507D01*
X16509708Y10096500D01*
Y10116820D02*
X16479227Y10177780D01*
X16540187D01*
X16509708Y10116820D01*
X12344400Y6396797D02*
X12395200Y6447597D01*
X12446000Y6396797D01*
X12395200Y6345997D01*
X12344400Y6396797D01*
Y6146800D02*
X12395200Y6197600D01*
X12446000Y6146800D01*
X12395200Y6096000D01*
X12344400Y6146800D01*
X12649200Y9359900D02*
X12674600D01*
X12700000Y9385300D01*
X12725400Y9359900D01*
X12750800D01*
Y9385300D01*
X12725400Y9410700D01*
X12750800Y9436100D01*
Y9461500D01*
X12725400D01*
X12700000Y9436100D01*
X12674600Y9461500D01*
X12649200D01*
Y9436100D01*
X12674600Y9410700D01*
X12649200Y9385300D01*
Y9359900D01*
X12669520Y9380220D02*
X12684760D01*
X12700000Y9395460D01*
X12715240Y9380220D01*
X12730480D01*
Y9395460D01*
X12715240Y9410700D01*
X12730480Y9425940D01*
Y9441180D01*
X12715240D01*
X12700000Y9425940D01*
X12684760Y9441180D01*
X12669520D01*
Y9425940D01*
X12684760Y9410700D01*
X12669520Y9395460D01*
Y9380220D01*
X12649200Y11899900D02*
X12674600D01*
X12700000Y11925300D01*
X12725400Y11899900D01*
X12750800D01*
Y11925300D01*
X12725400Y11950700D01*
X12750800Y11976100D01*
Y12001500D01*
X12725400D01*
X12700000Y11976100D01*
X12674600Y12001500D01*
X12649200D01*
Y11976100D01*
X12674600Y11950700D01*
X12649200Y11925300D01*
Y11899900D01*
X12669520Y11920220D02*
X12684760D01*
X12700000Y11935460D01*
X12715240Y11920220D01*
X12730480D01*
Y11935460D01*
X12715240Y11950700D01*
X12730480Y11965940D01*
Y11981180D01*
X12715240D01*
X12700000Y11965940D01*
X12684760Y11981180D01*
X12669520D01*
Y11965940D01*
X12684760Y11950700D01*
X12669520Y11935460D01*
Y11920220D01*
X10114703Y8191498D02*
X10140103Y8216898D01*
X10165503D01*
X10140103Y8242298D01*
X10165503Y8267698D01*
X10140103D01*
X10114703Y8293098D01*
X10089303Y8267698D01*
X10063903D01*
X10089303Y8242298D01*
X10063903Y8216898D01*
X10089303D01*
X10114703Y8191498D01*
X9214704D02*
X9240104Y8216898D01*
X9265504D01*
X9240104Y8242298D01*
X9265504Y8267698D01*
X9240104D01*
X9214704Y8293098D01*
X9189304Y8267698D01*
X9163904D01*
X9189304Y8242298D01*
X9163904Y8216898D01*
X9189304D01*
X9214704Y8191498D01*
X10109403Y7408428D02*
X10134803Y7433828D01*
X10160203D01*
X10134803Y7459228D01*
X10160203Y7484628D01*
X10134803D01*
X10109403Y7510028D01*
X10084003Y7484628D01*
X10058603D01*
X10084003Y7459228D01*
X10058603Y7433828D01*
X10084003D01*
X10109403Y7408428D01*
X9209400D02*
X9234800Y7433828D01*
X9260200D01*
X9234800Y7459228D01*
X9260200Y7484628D01*
X9234800D01*
X9209400Y7510028D01*
X9184000Y7484628D01*
X9158600D01*
X9184000Y7459228D01*
X9158600Y7433828D01*
X9184000D01*
X9209400Y7408428D01*
X9148605Y7810503D02*
Y7912103D01*
X9250205D01*
Y7810503D01*
X9148605D01*
X9168925Y7830823D02*
Y7891783D01*
X9229885D01*
Y7830823D01*
X9168925D01*
X10104605Y7810503D02*
Y7912103D01*
X10206205D01*
Y7810503D01*
X10104605D01*
X10124925Y7830823D02*
Y7891783D01*
X10185885D01*
Y7830823D01*
X10124925D01*
X13918738Y4975352D02*
Y5076952D01*
X14020338D01*
Y4975352D01*
X13918738D01*
X13939058Y4995672D02*
Y5056632D01*
X14000018D01*
Y4995672D01*
X13939058D01*
X13918738Y5931352D02*
Y6032952D01*
X14020338D01*
Y5931352D01*
X13918738D01*
X13939058Y5951672D02*
Y6012632D01*
X14000018D01*
Y5951672D01*
X13939058D01*
X16034598Y7361072D02*
X16059998Y7386472D01*
X16085397D01*
X16059998Y7411872D01*
X16085397Y7437272D01*
X16059998D01*
X16034598Y7462672D01*
X16009198Y7437272D01*
X15983798D01*
X16009198Y7411872D01*
X15983798Y7386472D01*
X16009198D01*
X16034598Y7361072D01*
Y7381392D02*
X16049838Y7396632D01*
X16065079D01*
X16049838Y7411872D01*
X16065079Y7427112D01*
X16049838D01*
X16034598Y7442352D01*
X16019357Y7427112D01*
X16004118D01*
X16019357Y7411872D01*
X16004118Y7396632D01*
X16019357D01*
X16034598Y7381392D01*
Y9621073D02*
X16059998Y9646473D01*
X16085397D01*
X16059998Y9671873D01*
X16085397Y9697273D01*
X16059998D01*
X16034598Y9722673D01*
X16009198Y9697273D01*
X15983798D01*
X16009198Y9671873D01*
X15983798Y9646473D01*
X16009198D01*
X16034598Y9621073D01*
Y9641393D02*
X16049838Y9656633D01*
X16065079D01*
X16049838Y9671873D01*
X16065079Y9687113D01*
X16049838D01*
X16034598Y9702353D01*
X16019357Y9687113D01*
X16004118D01*
X16019357Y9671873D01*
X16004118Y9656633D01*
X16019357D01*
X16034598Y9641393D01*
X14922501Y6565900D02*
X14871700Y6667500D01*
X14973300D01*
X14922501Y6565900D01*
Y6311900D02*
X14871700Y6413500D01*
X14973300D01*
X14922501Y6311900D01*
Y6057900D02*
X14871700Y6159500D01*
X14973300D01*
X14922501Y6057900D01*
X13081000Y7247703D02*
X13131799Y7298503D01*
X13182600Y7247703D01*
X13131799Y7196903D01*
X13081000Y7247703D01*
Y6747699D02*
X13131799Y6798499D01*
X13182600Y6747699D01*
X13131799Y6696899D01*
X13081000Y6747699D01*
X14672499Y7099301D02*
X14723299Y7150101D01*
X14774100Y7099301D01*
X14723299Y7048501D01*
X14672499Y7099301D01*
X15172504D02*
X15223303Y7150101D01*
X15274103Y7099301D01*
X15223303Y7048501D01*
X15172504Y7099301D01*
X14538052Y11991838D02*
X14563452D01*
X14588852Y12017238D01*
X14614252Y11991838D01*
X14639651D01*
Y12017238D01*
X14614252Y12042638D01*
X14639651Y12068038D01*
Y12093438D01*
X14614252D01*
X14588852Y12068038D01*
X14563452Y12093438D01*
X14538052D01*
Y12068038D01*
X14563452Y12042638D01*
X14538052Y12017238D01*
Y11991838D01*
X13788051D02*
X13813451D01*
X13838850Y12017238D01*
X13864252Y11991838D01*
X13889651D01*
Y12017238D01*
X13864252Y12042638D01*
X13889651Y12068038D01*
Y12093438D01*
X13864252D01*
X13838850Y12068038D01*
X13813451Y12093438D01*
X13788051D01*
Y12068038D01*
X13813451Y12042638D01*
X13788051Y12017238D01*
Y11991838D01*
X9918700Y6705600D02*
X9969500Y6756400D01*
X10020300Y6705600D01*
X9969500Y6654800D01*
X9918700Y6705600D01*
X10168702D02*
X10219502Y6756400D01*
X10270302Y6705600D01*
X10219502Y6654800D01*
X10168702Y6705600D01*
X11175702Y12941298D02*
X11201102Y12966698D01*
X11226502D01*
X11201102Y12992097D01*
X11226502Y13017497D01*
X11201102D01*
X11175702Y13042899D01*
X11150302Y13017497D01*
X11124902D01*
X11150302Y12992097D01*
X11124902Y12966698D01*
X11150302D01*
X11175702Y12941298D01*
Y12961618D02*
X11190942Y12976859D01*
X11206182D01*
X11190942Y12992097D01*
X11206182Y13007338D01*
X11190942D01*
X11175702Y13022578D01*
X11160462Y13007338D01*
X11145222D01*
X11160462Y12992097D01*
X11145222Y12976859D01*
X11160462D01*
X11175702Y12961618D01*
X8915701Y12941298D02*
X8941101Y12966698D01*
X8966501D01*
X8941101Y12992097D01*
X8966501Y13017497D01*
X8941101D01*
X8915701Y13042899D01*
X8890301Y13017497D01*
X8864901D01*
X8890301Y12992097D01*
X8864901Y12966698D01*
X8890301D01*
X8915701Y12941298D01*
Y12961618D02*
X8930941Y12976859D01*
X8946181D01*
X8930941Y12992097D01*
X8946181Y13007338D01*
X8930941D01*
X8915701Y13022578D01*
X8900461Y13007338D01*
X8885221D01*
X8900461Y12992097D01*
X8885221Y12976859D01*
X8900461D01*
X8915701Y12961618D01*
X9865299Y12052300D02*
Y12153900D01*
X9966899D01*
Y12052300D01*
X9865299D01*
X7365299D02*
Y12153900D01*
X7466899D01*
Y12052300D01*
X7365299D01*
X8865301D02*
Y12153900D01*
X8966901D01*
Y12052300D01*
X8865301D01*
X8115300D02*
Y12153900D01*
X8216900D01*
Y12052300D01*
X8115300D01*
X15011400Y7518400D02*
X14960600Y7620000D01*
X15062199D01*
X15011400Y7518400D01*
Y7538720D02*
X14980920Y7599680D01*
X15041879D01*
X15011400Y7538720D01*
Y7772400D02*
X14960600Y7874000D01*
X15062199D01*
X15011400Y7772400D01*
Y7792720D02*
X14980920Y7853680D01*
X15041879D01*
X15011400Y7792720D01*
Y8026400D02*
X14960600Y8128000D01*
X15062199D01*
X15011400Y8026400D01*
Y8046720D02*
X14980920Y8107680D01*
X15041879D01*
X15011400Y8046720D01*
X6476998Y13792198D02*
Y13876837D01*
X6519318Y13919157D01*
X6561637Y13876837D01*
Y13792198D01*
Y13855676D01*
X6476998D01*
X14224001Y5931352D02*
Y6032952D01*
X14325600D01*
Y5931352D01*
X14224001D01*
X14244321Y5951672D02*
Y6012632D01*
X14305280D01*
Y5951672D01*
X14244321D01*
X14224001Y4975352D02*
Y5076952D01*
X14325600D01*
Y4975352D01*
X14224001D01*
X14244321Y4995672D02*
Y5056632D01*
X14305280D01*
Y4995672D01*
X14244321D01*
X11798300Y10820400D02*
X11823700Y10871200D01*
X11798300Y10922000D01*
X11849100Y10896600D01*
X11899900Y10922000D01*
X11874500Y10871200D01*
X11899900Y10820400D01*
X11849100Y10845800D01*
X11798300Y10820400D01*
X11818620Y10840720D02*
X11833860Y10871200D01*
X11818620Y10901680D01*
X11849100Y10886440D01*
X11879580Y10901680D01*
X11864340Y10871200D01*
X11879580Y10840720D01*
X11849100Y10855960D01*
X11818620Y10840720D01*
X11798300Y11074400D02*
X11823700Y11125200D01*
X11798300Y11176000D01*
X11849100Y11150600D01*
X11899900Y11176000D01*
X11874500Y11125200D01*
X11899900Y11074400D01*
X11849100Y11099800D01*
X11798300Y11074400D01*
X11818620Y11094720D02*
X11833860Y11125200D01*
X11818620Y11155680D01*
X11849100Y11140440D01*
X11879580Y11155680D01*
X11864340Y11125200D01*
X11879580Y11094720D01*
X11849100Y11109960D01*
X11818620Y11094720D01*
X13627100Y4975347D02*
Y5076947D01*
X13728700D01*
Y4975347D01*
X13627100D01*
X13647420Y4995667D02*
Y5056627D01*
X13708380D01*
Y4995667D01*
X13647420D01*
X13627100Y5931347D02*
Y6032947D01*
X13728700D01*
Y5931347D01*
X13627100D01*
X13647420Y5951667D02*
Y6012627D01*
X13708380D01*
Y5951667D01*
X13647420D01*
X12725400Y7040402D02*
Y7142002D01*
X12827000D01*
Y7040402D01*
X12725400D01*
X12745720Y7060722D02*
Y7121682D01*
X12806680D01*
Y7060722D01*
X12745720D01*
X12725400Y7996403D02*
Y8098003D01*
X12827000D01*
Y7996403D01*
X12725400D01*
X12745720Y8016723D02*
Y8077683D01*
X12806680D01*
Y8016723D01*
X12745720D01*
X15151102Y8509001D02*
Y8483601D01*
X15201901D01*
Y8509001D01*
X15227301D01*
Y8559801D01*
X15201901D01*
Y8585201D01*
X15151102D01*
Y8559801D01*
X15125700D01*
Y8509001D01*
X15151102D01*
X14897101D02*
Y8483601D01*
X14947900D01*
Y8509001D01*
X14973302D01*
Y8559801D01*
X14947900D01*
Y8585201D01*
X14897101D01*
Y8559801D01*
X14871701D01*
Y8509001D01*
X14897101D01*
X15570200Y4978400D02*
X15519400Y5080000D01*
X15621001D01*
X15570200Y4978400D01*
Y4998720D02*
X15539720Y5059680D01*
X15600681D01*
X15570200Y4998720D01*
X15316200Y4978400D02*
X15265401Y5080000D01*
X15367000D01*
X15316200Y4978400D01*
Y4998720D02*
X15285719Y5059680D01*
X15346680D01*
X15316200Y4998720D01*
X15151099Y9093199D02*
Y9067799D01*
X15201900D01*
Y9093199D01*
X15227299D01*
Y9143999D01*
X15201900D01*
Y9169399D01*
X15151099D01*
Y9143999D01*
X15125699D01*
Y9093199D01*
X15151099D01*
X14897099D02*
Y9067799D01*
X14947899D01*
Y9093199D01*
X14973299D01*
Y9143999D01*
X14947899D01*
Y9169399D01*
X14897099D01*
Y9143999D01*
X14871700D01*
Y9093199D01*
X14897099D01*
X11418733Y11163300D02*
X11367933Y11264900D01*
X11469533D01*
X11418733Y11163300D01*
Y11183620D02*
X11388253Y11244580D01*
X11449213D01*
X11418733Y11183620D01*
Y10909300D02*
X11367933Y11010900D01*
X11469533D01*
X11418733Y10909300D01*
Y10929620D02*
X11388253Y10990580D01*
X11449213D01*
X11418733Y10929620D01*
Y10655300D02*
X11367933Y10756900D01*
X11469533D01*
X11418733Y10655300D01*
Y10675620D02*
X11388253Y10736580D01*
X11449213D01*
X11418733Y10675620D01*
X15341600Y10033000D02*
Y10007600D01*
X15392400D01*
Y10033000D01*
X15417799D01*
Y10083800D01*
X15392400D01*
Y10109200D01*
X15341600D01*
Y10083800D01*
X15316200D01*
Y10033000D01*
X15341600D01*
X15351759Y10043160D02*
Y10027920D01*
X15382240D01*
Y10043160D01*
X15397479D01*
Y10073640D01*
X15382240D01*
Y10088880D01*
X15351759D01*
Y10073640D01*
X15336520D01*
Y10043160D01*
X15351759D01*
X15341600Y10414000D02*
Y10388600D01*
X15392400D01*
Y10414000D01*
X15417799D01*
Y10464800D01*
X15392400D01*
Y10490200D01*
X15341600D01*
Y10464800D01*
X15316200D01*
Y10414000D01*
X15341600D01*
X15351759Y10424160D02*
Y10408920D01*
X15382240D01*
Y10424160D01*
X15397479D01*
Y10454640D01*
X15382240D01*
Y10469880D01*
X15351759D01*
Y10454640D01*
X15336520D01*
Y10424160D01*
X15351759D01*
X15341600Y10795000D02*
Y10769600D01*
X15392400D01*
Y10795000D01*
X15417799D01*
Y10845800D01*
X15392400D01*
Y10871200D01*
X15341600D01*
Y10845800D01*
X15316200D01*
Y10795000D01*
X15341600D01*
X15351759Y10805160D02*
Y10789920D01*
X15382240D01*
Y10805160D01*
X15397479D01*
Y10835640D01*
X15382240D01*
Y10850880D01*
X15351759D01*
Y10835640D01*
X15336520D01*
Y10805160D01*
X15351759D01*
X15341600Y11176000D02*
Y11150600D01*
X15392400D01*
Y11176000D01*
X15417799D01*
Y11226800D01*
X15392400D01*
Y11252200D01*
X15341600D01*
Y11226800D01*
X15316200D01*
Y11176000D01*
X15341600D01*
X15351759Y11186160D02*
Y11170920D01*
X15382240D01*
Y11186160D01*
X15397479D01*
Y11216640D01*
X15382240D01*
Y11231880D01*
X15351759D01*
Y11216640D01*
X15336520D01*
Y11186160D01*
X15351759D01*
X13788051Y10230668D02*
X13813451D01*
X13838850Y10256068D01*
X13864252Y10230668D01*
X13889651D01*
Y10256068D01*
X13864252Y10281468D01*
X13889651Y10306868D01*
Y10332268D01*
X13864252D01*
X13838850Y10306868D01*
X13813451Y10332268D01*
X13788051D01*
Y10306868D01*
X13813451Y10281468D01*
X13788051Y10256068D01*
Y10230668D01*
X14538052D02*
X14563452D01*
X14588852Y10256068D01*
X14614252Y10230668D01*
X14639651D01*
Y10256068D01*
X14614252Y10281468D01*
X14639651Y10306868D01*
Y10332268D01*
X14614252D01*
X14588852Y10306868D01*
X14563452Y10332268D01*
X14538052D01*
Y10306868D01*
X14563452Y10281468D01*
X14538052Y10256068D01*
Y10230668D01*
D114*
X16131607Y11480800D02*
G03*
X16131607Y11480800I-50800J0D01*
G01*
Y10972800D02*
G03*
X16131607Y10972800I-50800J0D01*
G01*
X16052800Y6616700D02*
G03*
X16052800Y6616700I-50800J0D01*
G01*
Y6108700D02*
G03*
X16052800Y6108700I-50800J0D01*
G01*
X8229600Y12928600D02*
G03*
X8229600Y12928600I-50800J0D01*
G01*
X7721600D02*
G03*
X7721600Y12928600I-50800J0D01*
G01*
X12992101Y5257800D02*
G03*
X12992101Y5257800I-50800J0D01*
G01*
X12484100D02*
G03*
X12484100Y5257800I-50800J0D01*
G01*
X11950800Y9800000D02*
G03*
X11950800Y9800000I-50800J0D01*
G01*
X9474200Y9258300D02*
G03*
X9474200Y9258300I-50800J0D01*
G01*
D115*
X11930480Y9800000D02*
G03*
X11930480Y9800000I-30480J0D01*
G01*
X9453880Y9258300D02*
G03*
X9453880Y9258300I-30480J0D01*
G01*
%TF.MD5,9583149560afa79a0f34cabd143866b0*%
M02*
