%TF.GenerationSoftware,Altium Limited,Altium Designer,24.6.1 (21)*%
G04 Layer_Color=32768*
%FSLAX45Y45*%
%MOMM*%
%TF.SameCoordinates,0617DE4C-FBCD-45B3-9FC9-0F316C81E249*%
%TF.FilePolarity,Positive*%
%TF.FileFunction,Other,Top_Courtyard*%
%TF.Part,Single*%
G01*
G75*
%TA.AperFunction,NonConductor*%
%ADD59C,0.20000*%
D59*
X17386140Y4787900D02*
G03*
X16802260Y4787900I-291940J0D01*
G01*
D02*
G03*
X17386140Y4787900I291940J0D01*
G01*
X6768940D02*
G03*
X6185060Y4787900I-291940J0D01*
G01*
D02*
G03*
X6768940Y4787900I291940J0D01*
G01*
X17094200Y14084138D02*
G03*
X17094200Y13500258I0J-291940D01*
G01*
D02*
G03*
X17094200Y14084138I0J291940D01*
G01*
X8703000Y10172702D02*
G03*
X7032999Y10172702I-835000J0D01*
G01*
D02*
G03*
X8703000Y10172702I835000J0D01*
G01*
X9372601Y6357601D02*
G03*
X9372601Y7057602I0J350000D01*
G01*
D02*
G03*
X9372601Y6357601I0J-350000D01*
G01*
X7032999Y7772398D02*
G03*
X8703000Y7772398I835000J0D01*
G01*
D02*
G03*
X7032999Y7772398I-835000J0D01*
G01*
X8343900Y11678400D02*
G03*
X8343900Y10978400I0J-350000D01*
G01*
D02*
G03*
X8343900Y11678400I0J350000D01*
G01*
X8324000Y5981700D02*
G03*
X8894000Y5981700I285000J0D01*
G01*
D02*
G03*
X8324000Y5981700I-285000J0D01*
G01*
X12807201Y6261100D02*
G03*
X13507201Y6261100I350000J0D01*
G01*
D02*
G03*
X12807201Y6261100I-350000J0D01*
G01*
X12395200Y5921798D02*
G03*
X12395200Y6621799I0J350000D01*
G01*
D02*
G03*
X12395200Y5921798I0J-350000D01*
G01*
X13378851Y12042640D02*
G03*
X15048851Y12042640I835000J0D01*
G01*
D02*
G03*
X13378851Y12042640I-835000J0D01*
G01*
X10444500Y6705600D02*
G03*
X9744499Y6705600I-350000J0D01*
G01*
D02*
G03*
X10444500Y6705600I350000J0D01*
G01*
X6185060Y13792200D02*
G03*
X6768940Y13792200I291940J0D01*
G01*
D02*
G03*
X6185060Y13792200I-291940J0D01*
G01*
X15048851Y10281470D02*
G03*
X13378851Y10281470I-835000J0D01*
G01*
D02*
G03*
X15048851Y10281470I835000J0D01*
G01*
X11784998Y5896500D02*
Y8687503D01*
X11215002Y5896500D02*
X11784998D01*
X11215002D02*
Y8687503D01*
X11784998D01*
X15524706Y11998803D02*
X16636905D01*
X15524706Y10454803D02*
Y11998803D01*
Y10454803D02*
X16636905D01*
Y11998803D01*
X12092549Y10378501D02*
Y11465499D01*
Y10378501D02*
X12595550D01*
Y11465499D01*
X12092549D02*
X12595550D01*
X11643205Y8950099D02*
Y12462096D01*
X10353205Y8950099D02*
X11643205D01*
X10353205D02*
Y12462096D01*
X11643205D01*
X8427000Y6603698D02*
Y6883697D01*
X7321002D02*
X8427000D01*
X7321002Y6603698D02*
Y6883697D01*
Y6603698D02*
X8427000D01*
X8414299Y6286200D02*
Y6566199D01*
X7308301D02*
X8414299D01*
X7308301Y6286200D02*
Y6566199D01*
Y6286200D02*
X8414299D01*
X9158600Y10233800D02*
X10221600D01*
Y9933800D02*
Y10233800D01*
X9158600Y9933800D02*
X10221600D01*
X9158600D02*
Y10233800D01*
Y10262650D02*
X10221600D01*
X9158600D02*
Y10562650D01*
X10221600D01*
Y10262650D02*
Y10562650D01*
X9111700Y10591500D02*
X10217700D01*
X9111700D02*
Y10871500D01*
X10217700D01*
Y10591500D02*
Y10871500D01*
X8787998Y11702698D02*
X10008000D01*
Y11182700D02*
Y11702698D01*
X8787998Y11182700D02*
X10008000D01*
X8787998D02*
Y11702698D01*
X9049299Y8978601D02*
Y9258600D01*
X7943301D02*
X9049299D01*
X7943301Y8978601D02*
Y9258600D01*
Y8978601D02*
X9049299D01*
X9492701Y6223299D02*
X10598699D01*
Y5943300D02*
Y6223299D01*
X9492701Y5943300D02*
X10598699D01*
X9492701D02*
Y6223299D01*
X7935199Y8953800D02*
X9041196D01*
Y8673800D02*
Y8953800D01*
X7935199Y8673800D02*
X9041196D01*
X7935199D02*
Y8953800D01*
X14154602Y8060599D02*
Y8271601D01*
X13251997D02*
X14154602D01*
X13251997Y8060599D02*
Y8271601D01*
Y8060599D02*
X14154602D01*
X13256017Y7828102D02*
Y8039105D01*
Y7828102D02*
X14158615D01*
Y8039105D01*
X13256017D02*
X14158615D01*
X16744707Y9887301D02*
Y10407299D01*
X15524706D02*
X16744707D01*
X15524706Y9887301D02*
Y10407299D01*
Y9887301D02*
X16744707D01*
X12054997Y12436704D02*
X13344997D01*
X12054997Y8924701D02*
Y12436704D01*
Y8924701D02*
X13344997D01*
Y12436704D01*
X10230401Y7721303D02*
Y8001302D01*
X9124403D02*
X10230401D01*
X9124403Y7721303D02*
Y8001302D01*
Y7721303D02*
X10230401D01*
X13829538Y6057148D02*
X14109537D01*
X13829538Y4951151D02*
Y6057148D01*
Y4951151D02*
X14109537D01*
Y6057148D01*
X15574599Y7241875D02*
Y9841875D01*
X16494597D01*
Y7241875D02*
Y9841875D01*
X15574599Y7241875D02*
X16494597D01*
X12996799Y6677702D02*
X13266801D01*
Y7317700D01*
X12996799D02*
X13266801D01*
X12996799Y6677702D02*
Y7317700D01*
X15293300Y6964300D02*
Y7234302D01*
X14653302D02*
X15293300D01*
X14653302Y6964300D02*
Y7234302D01*
Y6964300D02*
X15293300D01*
X15445903Y7134703D02*
X16558102D01*
X15445903Y5590703D02*
Y7134703D01*
Y5590703D02*
X16558102D01*
Y7134703D01*
X8745699Y12532099D02*
Y13452098D01*
Y12532099D02*
X11345699D01*
Y13452098D01*
X8745699D02*
X11345699D01*
X7141098Y11778102D02*
X10191100D01*
X7141098D02*
Y12278101D01*
X10191100D01*
Y11778102D02*
Y12278101D01*
X7152803Y13484703D02*
X8696803D01*
Y12372503D02*
Y13484703D01*
X7152803Y12372503D02*
X8696803D01*
X7152803D02*
Y13484703D01*
X14134801Y4951151D02*
X14414799D01*
Y6057148D01*
X14134801D02*
X14414799D01*
X14134801Y4951151D02*
Y6057148D01*
X11719098Y10803199D02*
Y11193201D01*
X11979103D01*
Y10803199D02*
Y11193201D01*
X11719098Y10803199D02*
X11979103D01*
X13537900Y4951151D02*
Y6057148D01*
X13817900D01*
Y4951151D02*
Y6057148D01*
X13537900Y4951151D02*
X13817900D01*
X12636200Y7016201D02*
Y8122199D01*
X12916200D01*
Y7016201D02*
Y8122199D01*
X12636200Y7016201D02*
X12916200D01*
X15094499Y9880900D02*
Y11375903D01*
X15479501D01*
Y9880900D02*
Y11375903D01*
X15094499Y9880900D02*
X15479501D01*
X11915297Y5813897D02*
X13459297D01*
Y4701697D02*
Y5813897D01*
X11915297Y4701697D02*
X13459297D01*
X11915297D02*
Y5813897D01*
%TF.MD5,e657a3b89e650ddaa87825cd72ee9ffb*%
M02*
