%TF.GenerationSoftware,Altium Limited,Altium Designer,24.6.1 (21)*%
G04 Layer_Color=65535*
%FSLAX45Y45*%
%MOMM*%
%TF.SameCoordinates,0617DE4C-FBCD-45B3-9FC9-0F316C81E249*%
%TF.FilePolarity,Positive*%
%TF.FileFunction,Legend,Top*%
%TF.Part,Single*%
G01*
G75*
%TA.AperFunction,NonConductor*%
%ADD57C,0.15000*%
%ADD58C,0.25000*%
%ADD59C,0.20000*%
%ADD60C,0.60000*%
%ADD61C,0.15240*%
%ADD62C,0.25400*%
%ADD63R,0.66599X2.36002*%
%ADD64R,0.66604X2.36002*%
D57*
X17376140Y4787900D02*
G03*
X17376140Y4787900I-281940J0D01*
G01*
X6758940D02*
G03*
X6758940Y4787900I-281940J0D01*
G01*
X17376140Y13792198D02*
G03*
X17376140Y13792198I-281940J0D01*
G01*
X8692999Y10172702D02*
G03*
X8692999Y10172702I-825000J0D01*
G01*
X9712601Y6707602D02*
G03*
X9712601Y6707602I-340000J0D01*
G01*
X8692999Y7772398D02*
G03*
X8692999Y7772398I-825000J0D01*
G01*
X8683900Y11328400D02*
G03*
X8683900Y11328400I-340000J0D01*
G01*
X8884000Y5981700D02*
G03*
X8884000Y5981700I-275000J0D01*
G01*
X13497200Y6261100D02*
G03*
X13497200Y6261100I-340000J0D01*
G01*
X12735200Y6271798D02*
G03*
X12735200Y6271798I-340000J0D01*
G01*
X15038850Y12042640D02*
G03*
X15038850Y12042640I-825000J0D01*
G01*
X10434500Y6705600D02*
G03*
X10434500Y6705600I-340000J0D01*
G01*
X6758940Y13792200D02*
G03*
X6758940Y13792200I-281940J0D01*
G01*
X15038850Y10281470D02*
G03*
X15038850Y10281470I-825000J0D01*
G01*
X8928100Y5066076D02*
X9028068D01*
X8978084Y5116060D02*
Y5016092D01*
D58*
X7264200Y5484000D02*
G03*
X7264200Y5484000I-12500J0D01*
G01*
X12056549Y11177001D02*
G03*
X12056549Y11177001I-12500J0D01*
G01*
X10252454Y5489429D02*
G03*
X10252454Y5489429I-12500J0D01*
G01*
X10320900Y7924800D02*
G03*
X10320900Y7924800I-12500J0D01*
G01*
X11123202Y7416800D02*
G03*
X11123202Y7416800I-12500J0D01*
G01*
X10320900Y8610600D02*
G03*
X10320900Y8610600I-12500J0D01*
G01*
X13531711Y7661100D02*
G03*
X13531711Y7661100I-12500J0D01*
G01*
X14935001Y5802700D02*
G03*
X14935001Y5802700I-12500J0D01*
G01*
X10253597Y12103098D02*
G03*
X10253597Y12103098I-12500J0D01*
G01*
X15023900Y8398200D02*
G03*
X15023900Y8398200I-12500J0D01*
G01*
X11681231Y10706102D02*
G03*
X11681231Y10706102I-12500J0D01*
G01*
X15357002Y9818400D02*
G03*
X15357002Y9818400I-12500J0D01*
G01*
D59*
X9667600Y5067300D02*
G03*
X9667600Y5067300I-295000J0D01*
G01*
X10485714Y7814836D02*
G03*
X10500001Y7791298I207686J109964D01*
G01*
X10886799D02*
G03*
X10906349Y7825410I-193399J133502D01*
G01*
X10906330Y8024227D02*
G03*
X10485734Y8034800I-212930J-99427D01*
G01*
X10485714Y8500636D02*
G03*
X10500001Y8477098I207686J109964D01*
G01*
X10886799D02*
G03*
X10906349Y8511210I-193399J133502D01*
G01*
X10906330Y8710027D02*
G03*
X10485734Y8720600I-212930J-99427D01*
G01*
X13836710Y7660100D02*
G03*
X13963710Y7660100I63500J0D01*
G01*
X8839200Y3423001D02*
Y5404002D01*
X6934200Y3423001D02*
X8839200D01*
X6934200Y5404002D02*
X7116699D01*
X6934200Y3423001D02*
Y5404002D01*
X8637199D02*
X8839200D01*
X8002199D02*
X8406201D01*
X7386701D02*
X7771201D01*
X11775001Y6167000D02*
Y8417003D01*
X11224999Y6167000D02*
X11775001D01*
X11224999D02*
Y8417003D01*
X11775001D01*
X11500000D02*
Y8482500D01*
Y6101504D02*
Y6167000D01*
X8560501Y9740199D02*
Y10605201D01*
X15534808Y11988800D02*
X16626807D01*
X15534808Y10464800D02*
Y11988800D01*
Y10464800D02*
X16626807D01*
Y11988800D01*
X12102551Y10388503D02*
Y11455502D01*
Y10388503D02*
X12585548D01*
Y11455502D01*
X12102551D02*
X12585548D01*
X11633202Y8960097D02*
Y12452099D01*
X10363202Y8960097D02*
X11633202D01*
X10363202D02*
Y12452099D01*
X11633202D01*
X11827454Y3428431D02*
Y5409433D01*
X9922454Y3428431D02*
X11827454D01*
X9922454Y5409433D02*
X10104953D01*
X9922454Y3428431D02*
Y5409433D01*
X11625453D02*
X11827454D01*
X10990453D02*
X11394455D01*
X10374955D02*
X10759455D01*
X9197599Y6985102D02*
X9547601D01*
X10499999Y7791298D02*
X10886801D01*
X10265700Y7296800D02*
X11045698D01*
X10265700Y7265802D02*
X11045698D01*
X10265700Y7565801D02*
X11045698D01*
X10265700Y7265802D02*
Y7565801D01*
X11045698Y7265802D02*
Y7565801D01*
X10499999Y8477098D02*
X10886801D01*
X7501002Y6743697D02*
X7559000D01*
X8189002D02*
X8247000D01*
X8189002Y6613695D02*
Y6873700D01*
X7559000D02*
X8189002D01*
X7559000Y6613695D02*
Y6873700D01*
Y6613695D02*
X8189002D01*
X7488301Y6426199D02*
X7546299D01*
X8176301D02*
X8234299D01*
X8176301Y6296197D02*
Y6556202D01*
X7546299D02*
X8176301D01*
X7546299Y6296197D02*
Y6556202D01*
Y6296197D02*
X8176301D01*
X8560501Y7339899D02*
Y8204901D01*
X9430100Y10223800D02*
X9950100D01*
Y9943800D02*
Y10223800D01*
X9430100Y9943800D02*
X9950100D01*
X9430100D02*
Y10223800D01*
X9363600Y10083800D02*
X9430100D01*
X9950100D02*
X10016600D01*
X9560100Y9950800D02*
Y10216800D01*
X9430100Y10272650D02*
X9950100D01*
X9430100D02*
Y10552650D01*
X9950100D01*
Y10272650D02*
Y10552650D01*
Y10412650D02*
X10016600D01*
X9363600D02*
X9430100D01*
X9820100Y10279650D02*
Y10545650D01*
X9349700Y10601500D02*
X9979700D01*
X9349700D02*
Y10861500D01*
X9979700D01*
Y10601500D02*
Y10861500D01*
Y10731500D02*
X10037700D01*
X9291700D02*
X9349700D01*
X8798000Y11692701D02*
X9997998D01*
Y11192702D02*
Y11692701D01*
X8798000Y11192702D02*
X9997998D01*
X8798000D02*
Y11692701D01*
X8123301Y9118601D02*
X8181299D01*
X8811301D02*
X8869299D01*
X8811301Y8988598D02*
Y9248603D01*
X8181299D02*
X8811301D01*
X8181299Y8988598D02*
Y9248603D01*
Y8988598D02*
X8811301D01*
X9730699Y6213302D02*
X10360701D01*
Y5953297D02*
Y6213302D01*
X9730699Y5953297D02*
X10360701D01*
X9730699D02*
Y6213302D01*
X9672701Y6083299D02*
X9730699D01*
X10360701D02*
X10418699D01*
X8173197Y8943802D02*
X8803198D01*
Y8683798D02*
Y8943802D01*
X8173197Y8683798D02*
X8803198D01*
X8173197D02*
Y8943802D01*
X8115198Y8813800D02*
X8173197D01*
X8803198D02*
X8861196D01*
X8168900Y11605900D02*
X8518900D01*
X8389000Y5844200D02*
Y6119200D01*
X13435300Y8166100D02*
X13475299D01*
X13931300D02*
X13971300D01*
X13853302Y8080599D02*
Y8251601D01*
X13931300Y8070601D02*
Y8261599D01*
X13475299D02*
X13931300D01*
X13475299Y8070601D02*
Y8261599D01*
Y8070601D02*
X13931300D01*
X13935313Y7933604D02*
X13975314D01*
X13439317D02*
X13479318D01*
X13557317Y7848102D02*
Y8019105D01*
X13479318Y7838105D02*
Y8029103D01*
Y7838105D02*
X13935313D01*
Y8029103D01*
X13479318D02*
X13935313D01*
X14757503Y8706002D02*
Y8947003D01*
X15341498D01*
Y8706002D02*
Y8947003D01*
X14757503Y8706002D02*
X15341498D01*
X13635213Y6640098D02*
Y7660102D01*
X14165208Y6640098D02*
Y7660102D01*
X13635213D02*
X13836710D01*
X13963710D02*
X14165208D01*
X13635213Y6640098D02*
X14165208D01*
X12879701Y6086100D02*
Y6436102D01*
X16734705Y9897298D02*
Y10397302D01*
X15534708D02*
X16734705D01*
X15534708Y9897298D02*
Y10397302D01*
Y9897298D02*
X16734705D01*
X12220199Y5994298D02*
X12570201D01*
X12065000Y12426701D02*
X13335001D01*
X12065000Y8934699D02*
Y12426701D01*
Y8934699D02*
X13335001D01*
Y12426701D01*
X9432951Y8124300D02*
Y8360296D01*
Y8124300D02*
X9896451D01*
Y8360296D01*
X9432951D02*
X9896451D01*
X9427652Y7341230D02*
X9891151D01*
X9427652D02*
Y7577226D01*
X9891151D01*
Y7341230D02*
Y7577226D01*
X9304403Y7861303D02*
X9362401D01*
X9992403D02*
X10050401D01*
X9992403Y7731300D02*
Y7991305D01*
X9362401D02*
X9992403D01*
X9362401Y7731300D02*
Y7991305D01*
Y7731300D02*
X9992403D01*
X13969537Y5131151D02*
Y5189149D01*
Y5819150D02*
Y5877149D01*
X13839536Y5819150D02*
X14099541D01*
X13839536Y5189149D02*
Y5819150D01*
Y5189149D02*
X14099541D01*
Y5819150D01*
X15584596Y7251873D02*
Y9831873D01*
X16484599D01*
Y7251873D02*
Y9831873D01*
X15584596Y7251873D02*
X16484599D01*
X14707500Y5867700D02*
Y6857700D01*
X14657503Y5867700D02*
Y6857700D01*
X15097501Y5867700D02*
Y6857700D01*
X14657503D02*
X15097501D01*
X14657503Y5867700D02*
X15097501D01*
X13006802Y6797701D02*
X13034300D01*
X13229300D02*
X13256798D01*
Y7197701D01*
X13006802D02*
X13034300D01*
X13229300D02*
X13256798D01*
X13006802Y6797701D02*
Y7197701D01*
X15173302Y6974302D02*
Y7001800D01*
Y7196801D02*
Y7224299D01*
X14773302D02*
X15173302D01*
X14773302Y6974302D02*
Y7001800D01*
Y7196801D02*
Y7224299D01*
Y6974302D02*
X15173302D01*
X15456001Y7124700D02*
X16547998D01*
X15456001Y5600700D02*
Y7124700D01*
Y5600700D02*
X16547998D01*
Y7124700D01*
X14906352Y11610137D02*
Y12475139D01*
X10372004Y6530599D02*
Y6880601D01*
X8755702Y12542097D02*
Y13442101D01*
Y12542097D02*
X11335701D01*
Y13442101D01*
X8755702D02*
X11335701D01*
X7151101Y11788099D02*
X10181097D01*
X7151101D02*
Y12268098D01*
X10181097D01*
Y11788099D02*
Y12268098D01*
X15227402Y7313198D02*
Y8333202D01*
X15277399Y7313198D02*
Y8333202D01*
X14807402Y7313198D02*
Y8333202D01*
Y7313198D02*
X15277399D01*
X14807402Y8333202D02*
X15277399D01*
X7162800Y13474599D02*
X8686800D01*
Y12382602D02*
Y13474599D01*
X7162800Y12382602D02*
X8686800D01*
X7162800D02*
Y13474599D01*
X14274800Y5819150D02*
Y5877149D01*
Y5131151D02*
Y5189149D01*
X14144798D02*
X14404802D01*
Y5819150D01*
X14144798D02*
X14404802D01*
X14144798Y5189149D02*
Y5819150D01*
X11729100Y10813202D02*
Y11183198D01*
X11944101D02*
X11969100D01*
X11729100D02*
X11754099D01*
X11969100Y10813202D02*
Y11183198D01*
X11944101Y10813202D02*
X11969100D01*
X11729100D02*
X11754099D01*
X13547897Y5189149D02*
Y5819150D01*
X13807903D01*
Y5189149D02*
Y5819150D01*
X13547897Y5189149D02*
X13807903D01*
X13677901Y5131151D02*
Y5189149D01*
Y5819150D02*
Y5877149D01*
X12646198Y7254199D02*
Y7884201D01*
X12906203D01*
Y7254199D02*
Y7884201D01*
X12646198Y7254199D02*
X12906203D01*
X12776200Y7196201D02*
Y7254199D01*
Y7884201D02*
Y7942199D01*
X14757503Y8413903D02*
X15341499D01*
Y8654899D01*
X14757503D02*
X15341499D01*
X14757503Y8413903D02*
Y8654899D01*
X15341496Y8998101D02*
Y9239097D01*
X14757501Y8998101D02*
X15341496D01*
X14757501D02*
Y9239097D01*
X15341496D01*
X11133734Y11495100D02*
X11603731D01*
X11133734Y10425100D02*
X11603731D01*
Y11495100D01*
X11133734Y10425100D02*
Y11495100D01*
X11183732Y10425100D02*
Y11495100D01*
X15104501Y9890902D02*
Y11365901D01*
X15469499D01*
Y9890902D02*
Y9928403D01*
Y10188402D02*
Y10309403D01*
Y10569402D02*
Y10690403D01*
Y10950402D02*
Y11071403D01*
Y11331402D02*
Y11365901D01*
X15104501Y9890902D02*
X15469499D01*
X14906352Y9848967D02*
Y10713969D01*
X11925300Y5803798D02*
X13449300D01*
Y4711802D02*
Y5803798D01*
X11925300Y4711802D02*
X13449300D01*
X11925300D02*
Y5803798D01*
D60*
X13765210Y7560100D02*
G03*
X13765210Y7560100I-30000J0D01*
G01*
D61*
X15036800Y4978375D02*
Y4902200D01*
Y4927592D01*
X15087582Y4978375D01*
X15049496Y4940288D01*
X15087582Y4902200D01*
X8280400Y6248375D02*
Y6172200D01*
Y6197592D01*
X8331183Y6248375D01*
X8293096Y6210288D01*
X8331183Y6172200D01*
X7239000Y6083325D02*
Y6159500D01*
Y6134108D01*
X7188217Y6083325D01*
X7226304Y6121412D01*
X7188217Y6159500D01*
X15189200Y5080025D02*
Y5156200D01*
Y5130808D01*
X15138417Y5080025D01*
X15176505Y5118112D01*
X15138417Y5156200D01*
D62*
X16713174Y13589064D02*
X16560825D01*
X16611607Y13639847D01*
X16560825Y13690631D01*
X16713174D01*
Y13741414D02*
X16560825D01*
Y13817590D01*
X16586217Y13842982D01*
X16637000D01*
X16662392Y13817590D01*
Y13741414D01*
X16713174Y13969942D02*
X16560825D01*
X16637000Y13893765D01*
Y13995332D01*
X9055046Y10807675D02*
Y10655324D01*
X8978871D01*
X8953479Y10680716D01*
Y10731499D01*
X8978871Y10756891D01*
X9055046D01*
X9004263D02*
X8953479Y10807675D01*
X8902696D02*
X8851912D01*
X8877304D01*
Y10655324D01*
X8902696Y10680716D01*
X8775737Y10807675D02*
X8724953D01*
X8750345D01*
Y10655324D01*
X8775737Y10680716D01*
X9105859Y9994924D02*
Y10147275D01*
X9029683D01*
X9004292Y10121883D01*
Y10020316D01*
X9029683Y9994924D01*
X9105859D01*
X8953508D02*
X8851941D01*
Y10020316D01*
X8953508Y10121883D01*
Y10147275D01*
X9105859Y10337824D02*
Y10490175D01*
X9029683D01*
X9004292Y10464783D01*
Y10363216D01*
X9029683Y10337824D01*
X9105859D01*
X8851941D02*
X8902725Y10363216D01*
X8953508Y10413999D01*
Y10464783D01*
X8928116Y10490175D01*
X8877333D01*
X8851941Y10464783D01*
Y10439391D01*
X8877333Y10413999D01*
X8953508D01*
X8623329Y6451583D02*
X8597937Y6476975D01*
X8547154D01*
X8521762Y6451583D01*
Y6350017D01*
X8547154Y6324625D01*
X8597937D01*
X8623329Y6350017D01*
X8674112Y6324625D02*
X8724896D01*
X8699504D01*
Y6476975D01*
X8674112Y6451583D01*
X8902639Y6324625D02*
X8801071D01*
X8902639Y6426192D01*
Y6451583D01*
X8877247Y6476975D01*
X8826463D01*
X8801071Y6451583D01*
X7810517Y11557008D02*
X7785125Y11531617D01*
Y11480833D01*
X7810517Y11455441D01*
X7912083D01*
X7937475Y11480833D01*
Y11531617D01*
X7912083Y11557008D01*
X7810517Y11607792D02*
X7785125Y11633184D01*
Y11683967D01*
X7810517Y11709359D01*
X7835908D01*
X7861300Y11683967D01*
X7886692Y11709359D01*
X7912083D01*
X7937475Y11683967D01*
Y11633184D01*
X7912083Y11607792D01*
X7886692D01*
X7861300Y11633184D01*
X7835908Y11607792D01*
X7810517D01*
X7861300Y11633184D02*
Y11683967D01*
X13462196Y8928067D02*
Y8826500D01*
X13512981Y8775717D01*
X13563765Y8826500D01*
Y8928067D01*
X13614548D02*
Y8775717D01*
X13690723D01*
X13716115Y8801108D01*
Y8902675D01*
X13690723Y8928067D01*
X13614548D01*
X13766899Y8775717D02*
X13817682D01*
X13792291D01*
Y8877284D01*
X13766899D01*
X13893858Y8775717D02*
X13970033D01*
X13995425Y8801108D01*
X13970033Y8826500D01*
X13919250D01*
X13893858Y8851892D01*
X13919250Y8877284D01*
X13995425D01*
X14046208Y8724933D02*
Y8877284D01*
X14122385D01*
X14147775Y8851892D01*
Y8801108D01*
X14122385Y8775717D01*
X14046208D01*
X14198560D02*
X14249342D01*
X14223952D01*
Y8928067D01*
X14198560D01*
X14350909Y8877284D02*
X14401694D01*
X14427084Y8851892D01*
Y8775717D01*
X14350909D01*
X14325517Y8801108D01*
X14350909Y8826500D01*
X14427084D01*
X14477869Y8877284D02*
Y8801108D01*
X14503261Y8775717D01*
X14579436D01*
Y8750325D01*
X14554044Y8724933D01*
X14528651D01*
X14579436Y8775717D02*
Y8877284D01*
X14630219Y8775717D02*
X14681003D01*
X14655611D01*
Y8928067D01*
X14630219Y8902675D01*
X16586224Y9817022D02*
X16738576D01*
Y9740846D01*
X16713184Y9715455D01*
X16662399D01*
X16637009Y9740846D01*
Y9817022D01*
Y9766238D02*
X16586224Y9715455D01*
X16713184Y9639279D02*
X16687791D01*
Y9664671D01*
Y9613888D01*
Y9639279D01*
X16611617D01*
X16586224Y9613888D01*
X16738576Y9537712D02*
X16586224D01*
X16662399D01*
X16687791Y9512320D01*
Y9461537D01*
X16662399Y9436145D01*
X16586224D01*
Y9385361D02*
Y9334578D01*
Y9359970D01*
X16738576D01*
X16713184Y9385361D01*
X10065175Y11714022D02*
X10217526D01*
Y11637846D01*
X10192134Y11612455D01*
X10141350D01*
X10115958Y11637846D01*
Y11714022D01*
Y11663238D02*
X10065175Y11612455D01*
X10192134Y11536279D02*
X10166742D01*
Y11561671D01*
Y11510888D01*
Y11536279D01*
X10090567D01*
X10065175Y11510888D01*
X10217526Y11434712D02*
X10065175D01*
X10141350D01*
X10166742Y11409320D01*
Y11358537D01*
X10141350Y11333145D01*
X10065175D01*
Y11180794D02*
Y11282361D01*
X10166742Y11180794D01*
X10192134D01*
X10217526Y11206186D01*
Y11256970D01*
X10192134Y11282361D01*
X13013739Y8075930D02*
X13166090D01*
Y8152105D01*
X13140698Y8177497D01*
X13039131D01*
X13013739Y8152105D01*
Y8075930D01*
X13166090Y8329848D02*
Y8228281D01*
X13064523Y8329848D01*
X13039131D01*
X13013739Y8304456D01*
Y8253673D01*
X13039131Y8228281D01*
X14396877Y8023774D02*
X14244525D01*
Y7947599D01*
X14269917Y7922207D01*
X14371484D01*
X14396877Y7947599D01*
Y8023774D01*
X14371484Y7871423D02*
X14396877Y7846032D01*
Y7795248D01*
X14371484Y7769856D01*
X14346092D01*
X14320702Y7795248D01*
Y7820640D01*
Y7795248D01*
X14295309Y7769856D01*
X14269917D01*
X14244525Y7795248D01*
Y7846032D01*
X14269917Y7871423D01*
X11949216Y6624608D02*
X11923825Y6599216D01*
Y6548433D01*
X11949216Y6523041D01*
X12050783D01*
X12076175Y6548433D01*
Y6599216D01*
X12050783Y6624608D01*
X11923825Y6776959D02*
X11949216Y6726175D01*
X12000000Y6675392D01*
X12050783D01*
X12076175Y6700784D01*
Y6751567D01*
X12050783Y6776959D01*
X12025392D01*
X12000000Y6751567D01*
Y6675392D01*
X13624608Y6550783D02*
X13599216Y6576175D01*
X13548433D01*
X13523041Y6550783D01*
Y6449216D01*
X13548433Y6423825D01*
X13599216D01*
X13624608Y6449216D01*
X13776959Y6576175D02*
X13675392D01*
Y6500000D01*
X13726175Y6525392D01*
X13751567D01*
X13776959Y6500000D01*
Y6449216D01*
X13751567Y6423825D01*
X13700784D01*
X13675392Y6449216D01*
X13284216Y7696183D02*
X13309608Y7721575D01*
X13360393D01*
X13385783Y7696183D01*
Y7670792D01*
X13360393Y7645400D01*
X13335001D01*
X13360393D01*
X13385783Y7620008D01*
Y7594617D01*
X13360393Y7569225D01*
X13309608D01*
X13284216Y7594617D01*
X12915958Y12534925D02*
Y12687275D01*
X12966740Y12636492D01*
X13017525Y12687275D01*
Y12534925D01*
X13068307D02*
Y12687275D01*
X13144484D01*
X13169876Y12661883D01*
Y12611100D01*
X13144484Y12585708D01*
X13068307D01*
X13220659Y12534925D02*
X13271443D01*
X13246051D01*
Y12687275D01*
X13220659Y12661883D01*
X11442766Y12534925D02*
Y12687275D01*
X11493549Y12636492D01*
X11544333Y12687275D01*
Y12534925D01*
X11595117D02*
Y12687275D01*
X11671292D01*
X11696684Y12661883D01*
Y12611100D01*
X11671292Y12585708D01*
X11595117D01*
X11849034Y12534925D02*
X11747467D01*
X11849034Y12636492D01*
Y12661883D01*
X11823643Y12687275D01*
X11772859D01*
X11747467Y12661883D01*
X15748026Y4991133D02*
X15900375D01*
Y5092700D01*
Y5143484D02*
Y5194267D01*
Y5168876D01*
X15748026D01*
X15773418Y5143484D01*
X6731041Y6121375D02*
Y5969025D01*
X6832608D01*
X6984959D02*
X6883392D01*
X6984959Y6070592D01*
Y6095983D01*
X6959567Y6121375D01*
X6908784D01*
X6883392Y6095983D01*
X9385259Y6152775D02*
Y6000424D01*
X9309083D01*
X9283692Y6025816D01*
Y6076599D01*
X9309083Y6101991D01*
X9385259D01*
X9334475D02*
X9283692Y6152775D01*
X9131341Y6000424D02*
X9182125Y6025816D01*
X9232908Y6076599D01*
Y6127383D01*
X9207516Y6152775D01*
X9156733D01*
X9131341Y6127383D01*
Y6101991D01*
X9156733Y6076599D01*
X9232908D01*
X14527985Y5900145D02*
X14461339D01*
Y5916806D01*
X14478000Y5933467D01*
X14527985D01*
X14478000D01*
X14461339Y5950129D01*
X14478000Y5966790D01*
X14527985D01*
Y6016774D02*
Y6050097D01*
X14511322Y6066758D01*
X14478000D01*
X14461339Y6050097D01*
Y6016774D01*
X14478000Y6000113D01*
X14511322D01*
X14527985Y6016774D01*
Y6100081D02*
Y6150064D01*
X14511322Y6166726D01*
X14494661Y6150064D01*
Y6116742D01*
X14478000Y6100081D01*
X14461339Y6116742D01*
Y6166726D01*
X14527985Y6216710D02*
X14444678D01*
X14478000D01*
Y6200048D01*
Y6233371D01*
Y6216710D01*
X14444678D01*
X14428017Y6233371D01*
X14527985Y6333339D02*
Y6300016D01*
X14511322Y6283355D01*
X14478000D01*
X14461339Y6300016D01*
Y6333339D01*
X14478000Y6350000D01*
X14494661D01*
Y6283355D01*
X14444678Y6399984D02*
X14461339D01*
Y6383323D01*
Y6416645D01*
Y6399984D01*
X14511322D01*
X14527985Y6416645D01*
X14428017Y6533274D02*
Y6466629D01*
X14478000D01*
Y6499951D01*
Y6466629D01*
X14527985D01*
X14461339Y6583258D02*
Y6616581D01*
X14478000Y6633242D01*
X14527985D01*
Y6583258D01*
X14511322Y6566597D01*
X14494661Y6583258D01*
Y6633242D01*
X14527985Y6666565D02*
X14461339D01*
Y6716548D01*
X14478000Y6733210D01*
X14527985D01*
Y6766532D02*
Y6799855D01*
Y6783194D01*
X14428017D01*
X14444678Y6766532D01*
X14139182Y8584384D02*
X14072536D01*
Y8534400D01*
X14105858D01*
X14072536D01*
Y8484416D01*
X14189165Y8551061D02*
X14222487D01*
X14239148Y8534400D01*
Y8484416D01*
X14189165D01*
X14172504Y8501077D01*
X14189165Y8517739D01*
X14239148D01*
X14272472Y8484416D02*
Y8551061D01*
X14322455D01*
X14339116Y8534400D01*
Y8484416D01*
X14472408Y8584384D02*
Y8517739D01*
X14505730Y8484416D01*
X14539052Y8517739D01*
Y8584384D01*
X14639018Y8567723D02*
X14622359Y8584384D01*
X14589037D01*
X14572374Y8567723D01*
Y8551061D01*
X14589037Y8534400D01*
X14622359D01*
X14639018Y8517739D01*
Y8501077D01*
X14622359Y8484416D01*
X14589037D01*
X14572374Y8501077D01*
X14672342Y8484416D02*
X14705666D01*
X14689005D01*
Y8584384D01*
X14672342Y8567723D01*
X11760224Y11290357D02*
Y11391925D01*
Y11341141D01*
X11912575D01*
X11760224Y11442708D02*
X11912575D01*
X11836400D01*
Y11544275D01*
X11760224D01*
X11912575D01*
Y11595059D02*
Y11645842D01*
Y11620451D01*
X11760224D01*
X11785616Y11595059D01*
X13754076Y6096041D02*
X13601724D01*
Y6172217D01*
X13627116Y6197608D01*
X13677901D01*
X13703291Y6172217D01*
Y6096041D01*
Y6146825D02*
X13754076Y6197608D01*
Y6349959D02*
Y6248392D01*
X13652509Y6349959D01*
X13627116D01*
X13601724Y6324567D01*
Y6273784D01*
X13627116Y6248392D01*
X12852374Y6654841D02*
X12700025D01*
Y6731017D01*
X12725417Y6756408D01*
X12776200D01*
X12801591Y6731017D01*
Y6654841D01*
Y6705625D02*
X12852374Y6756408D01*
X12725417Y6807192D02*
X12700025Y6832584D01*
Y6883367D01*
X12725417Y6908759D01*
X12750808D01*
X12776200Y6883367D01*
Y6857975D01*
Y6883367D01*
X12801591Y6908759D01*
X12826984D01*
X12852374Y6883367D01*
Y6832584D01*
X12826984Y6807192D01*
X13820576Y9181284D02*
X13853899D01*
X13837238D01*
Y9081316D01*
X13820576D01*
X13853899D01*
X13903882D02*
Y9147961D01*
X13953867D01*
X13970528Y9131300D01*
Y9081316D01*
X14070496Y9181284D02*
Y9081316D01*
X14020511D01*
X14003850Y9097977D01*
Y9131300D01*
X14020511Y9147961D01*
X14070496D01*
X14103818Y9081316D02*
X14137140D01*
X14120479D01*
Y9147961D01*
X14103818D01*
X14253769D02*
X14203786D01*
X14187125Y9131300D01*
Y9097977D01*
X14203786Y9081316D01*
X14253769D01*
X14303754Y9147961D02*
X14337076D01*
X14353737Y9131300D01*
Y9081316D01*
X14303754D01*
X14287093Y9097977D01*
X14303754Y9114639D01*
X14353737D01*
X14403722Y9164623D02*
Y9147961D01*
X14387061D01*
X14420383D01*
X14403722D01*
Y9097977D01*
X14420383Y9081316D01*
X14487029D02*
X14520351D01*
X14537012Y9097977D01*
Y9131300D01*
X14520351Y9147961D01*
X14487029D01*
X14470366Y9131300D01*
Y9097977D01*
X14487029Y9081316D01*
X14570334Y9147961D02*
Y9081316D01*
Y9114639D01*
X14586995Y9131300D01*
X14603658Y9147961D01*
X14620319D01*
X14670302Y9081316D02*
X14703624D01*
X14686963D01*
Y9181284D01*
X14670302Y9164623D01*
X6879023Y11877104D02*
Y11775537D01*
X6955198D01*
Y11826320D01*
Y11775537D01*
X7031374D01*
X6879023Y11927887D02*
X7031374D01*
Y12004063D01*
X7005982Y12029455D01*
X6980590D01*
X6955198Y12004063D01*
Y11927887D01*
Y12004063D01*
X6929807Y12029455D01*
X6904415D01*
X6879023Y12004063D01*
Y11927887D01*
X7031374Y12080238D02*
X6879023D01*
Y12156414D01*
X6904415Y12181805D01*
X6955198D01*
X6980590Y12156414D01*
Y12080238D01*
Y12131022D02*
X7031374Y12181805D01*
Y12232589D02*
Y12283372D01*
Y12257981D01*
X6879023D01*
X6904415Y12232589D01*
X14689705Y7729334D02*
Y7762656D01*
Y7745995D01*
X14589738D01*
Y7729334D01*
X14689705Y7812640D02*
X14623061D01*
Y7829302D01*
X14639722Y7845963D01*
X14689705D01*
X14639722D01*
X14623061Y7862624D01*
X14639722Y7879285D01*
X14689705D01*
Y7912608D02*
Y7945931D01*
Y7929269D01*
X14589738D01*
X14606400Y7912608D01*
X9029692Y12331724D02*
X9131259D01*
Y12407899D01*
X9080475D01*
X9131259D01*
Y12484075D01*
X8877341D02*
X8978908D01*
X8877341Y12382508D01*
Y12357116D01*
X8902733Y12331724D01*
X8953516D01*
X8978908Y12357116D01*
X11145520Y11737291D02*
Y11584940D01*
X11247087D01*
X11297871D02*
Y11737291D01*
X11348654Y11686507D01*
X11399438Y11737291D01*
Y11584940D01*
X11551789D02*
X11450221D01*
X11551789Y11686507D01*
Y11711899D01*
X11526397Y11737291D01*
X11475613D01*
X11450221Y11711899D01*
X15366183Y6802423D02*
Y6735777D01*
X15299538Y6802423D01*
X15282877D01*
X15266216Y6785761D01*
Y6752439D01*
X15282877Y6735777D01*
X15532108Y12077725D02*
X15582892D01*
X15557500D01*
Y12230075D01*
X15532108Y12204683D01*
X15450000Y9649984D02*
X15383356D01*
Y9600000D01*
X15416678D01*
X15383356D01*
Y9550016D01*
X15483324D02*
X15516644D01*
X15499985D01*
Y9649984D01*
X15483324Y9633323D01*
X7823290Y5702275D02*
Y5549925D01*
X7899466D01*
X7924858Y5575317D01*
Y5600708D01*
X7899466Y5626100D01*
X7823290D01*
X7899466D01*
X7924858Y5651492D01*
Y5676883D01*
X7899466Y5702275D01*
X7823290D01*
X8077208D02*
X7975641D01*
Y5626100D01*
X8026425D01*
X7975641D01*
Y5549925D01*
X8127992Y5702275D02*
Y5549925D01*
X8229559D01*
X8381910D02*
X8280343D01*
X8381910Y5651492D01*
Y5676883D01*
X8356518Y5702275D01*
X8305734D01*
X8280343Y5676883D01*
X14528882Y5499075D02*
Y5346725D01*
X14605058D01*
X14630450Y5372117D01*
Y5397508D01*
X14605058Y5422900D01*
X14528882D01*
X14605058D01*
X14630450Y5448292D01*
Y5473683D01*
X14605058Y5499075D01*
X14528882D01*
X14782800D02*
X14681233D01*
Y5422900D01*
X14732018D01*
X14681233D01*
Y5346725D01*
X14833585Y5499075D02*
Y5346725D01*
X14935152D01*
X14985934D02*
X15036719D01*
X15011327D01*
Y5499075D01*
X14985934Y5473683D01*
X15110460Y11615371D02*
Y11463020D01*
X15186635D01*
X15212027Y11488412D01*
Y11589979D01*
X15186635Y11615371D01*
X15110460D01*
X15262811Y11463020D02*
X15313594D01*
X15288203D01*
Y11615371D01*
X15262811Y11589979D01*
X14376375Y6096033D02*
X14224025D01*
Y6172208D01*
X14249417Y6197600D01*
X14300200D01*
X14325592Y6172208D01*
Y6096033D01*
Y6146817D02*
X14376375Y6197600D01*
Y6248384D02*
Y6299167D01*
Y6273776D01*
X14224025D01*
X14249417Y6248384D01*
X14058875Y6096041D02*
X13906525D01*
Y6172217D01*
X13931917Y6197608D01*
X13982700D01*
X14008092Y6172217D01*
Y6096041D01*
Y6146825D02*
X14058875Y6197608D01*
Y6324567D02*
X13906525D01*
X13982700Y6248392D01*
Y6349959D01*
X14452617Y7086608D02*
X14427225Y7061217D01*
Y7010433D01*
X14452617Y6985041D01*
X14554182D01*
X14579575Y7010433D01*
Y7061217D01*
X14554182Y7086608D01*
X14579575Y7238959D02*
Y7137392D01*
X14478008Y7238959D01*
X14452617D01*
X14427225Y7213567D01*
Y7162784D01*
X14452617Y7137392D01*
X13119099Y7531083D02*
X13093707Y7556475D01*
X13042924D01*
X13017532Y7531083D01*
Y7429517D01*
X13042924Y7404125D01*
X13093707D01*
X13119099Y7429517D01*
X13169884Y7404125D02*
X13220667D01*
X13195276D01*
Y7556475D01*
X13169884Y7531083D01*
X13494987Y11328359D02*
X13469595Y11353751D01*
X13418813D01*
X13393420Y11328359D01*
Y11226792D01*
X13418813Y11201400D01*
X13469595D01*
X13494987Y11226792D01*
X13621947Y11201400D02*
Y11353751D01*
X13545770Y11277575D01*
X13647337D01*
X13477258Y12957024D02*
X13451868Y12982414D01*
X13401083D01*
X13375693Y12957024D01*
Y12855457D01*
X13401083Y12830064D01*
X13451868D01*
X13477258Y12855457D01*
X13528043Y12957024D02*
X13553435Y12982414D01*
X13604218D01*
X13629610Y12957024D01*
Y12931631D01*
X13604218Y12906239D01*
X13578825D01*
X13604218D01*
X13629610Y12880849D01*
Y12855457D01*
X13604218Y12830064D01*
X13553435D01*
X13528043Y12855457D01*
X7226259Y6502375D02*
Y6350024D01*
X7150083D01*
X7124692Y6375416D01*
Y6426199D01*
X7150083Y6451591D01*
X7226259D01*
X7175475D02*
X7124692Y6502375D01*
X6972341Y6350024D02*
X7073908D01*
Y6426199D01*
X7023125Y6400808D01*
X6997733D01*
X6972341Y6426199D01*
Y6476983D01*
X6997733Y6502375D01*
X7048516D01*
X7073908Y6476983D01*
X8458262Y6697700D02*
Y6850050D01*
X8534437D01*
X8559829Y6824658D01*
Y6773875D01*
X8534437Y6748483D01*
X8458262D01*
X8509045D02*
X8559829Y6697700D01*
X8610612D02*
X8661396D01*
X8636004D01*
Y6850050D01*
X8610612Y6824658D01*
X8737571D02*
X8762963Y6850050D01*
X8813747D01*
X8839139Y6824658D01*
Y6723091D01*
X8813747Y6697700D01*
X8762963D01*
X8737571Y6723091D01*
Y6824658D01*
X10198305Y5702275D02*
Y5549925D01*
X10249089Y5600708D01*
X10299873Y5549925D01*
Y5702275D01*
X10350656Y5549925D02*
Y5651492D01*
X10401440Y5702275D01*
X10452223Y5651492D01*
Y5549925D01*
Y5626100D01*
X10350656D01*
X10503007Y5702275D02*
X10604574D01*
X10553790D01*
Y5549925D01*
X10655358Y5702275D02*
X10756925D01*
X10706141D01*
Y5549925D01*
X10960059D02*
Y5702275D01*
X11036234D01*
X11061626Y5676883D01*
Y5626100D01*
X11036234Y5600708D01*
X10960059D01*
X11188585Y5702275D02*
X11137802D01*
X11112410Y5676883D01*
Y5575317D01*
X11137802Y5549925D01*
X11188585D01*
X11213977Y5575317D01*
Y5676883D01*
X11188585Y5702275D01*
X11264761D02*
X11366328D01*
X11315544D01*
Y5549925D01*
X11417111D02*
X11467895D01*
X11442503D01*
Y5702275D01*
X11417111Y5676883D01*
X6718432Y5727675D02*
Y5626108D01*
X6769215Y5575325D01*
X6819999Y5626108D01*
Y5727675D01*
X7023133Y5575325D02*
Y5727675D01*
X7099308D01*
X7124700Y5702283D01*
Y5651500D01*
X7099308Y5626108D01*
X7023133D01*
X7251659Y5727675D02*
X7200876D01*
X7175484Y5702283D01*
Y5600717D01*
X7200876Y5575325D01*
X7251659D01*
X7277051Y5600717D01*
Y5702283D01*
X7251659Y5727675D01*
X7327834D02*
X7429402D01*
X7378618D01*
Y5575325D01*
X7480185D02*
X7530969D01*
X7505577D01*
Y5727675D01*
X7480185Y5702283D01*
X9080459Y7937475D02*
Y7785124D01*
X9004283D01*
X8978892Y7810516D01*
Y7861299D01*
X9004283Y7886691D01*
X9080459D01*
X9029675D02*
X8978892Y7937475D01*
X8928108Y7810516D02*
X8902716Y7785124D01*
X8851933D01*
X8826541Y7810516D01*
Y7835908D01*
X8851933Y7861299D01*
X8826541Y7886691D01*
Y7912083D01*
X8851933Y7937475D01*
X8902716D01*
X8928108Y7912083D01*
Y7886691D01*
X8902716Y7861299D01*
X8928108Y7835908D01*
Y7810516D01*
X8902716Y7861299D02*
X8851933D01*
X10924608Y7049217D02*
Y7150784D01*
X10899216Y7176175D01*
X10848433D01*
X10823041Y7150784D01*
Y7049217D01*
X10848433Y7023825D01*
X10899216D01*
X10873825Y7074608D02*
X10924608Y7023825D01*
X10899216D02*
X10924608Y7049217D01*
X11076959Y7023825D02*
X10975392D01*
X11076959Y7125392D01*
Y7150784D01*
X11051567Y7176175D01*
X11000784D01*
X10975392Y7150784D01*
X10974608Y8199217D02*
Y8300784D01*
X10949217Y8326175D01*
X10898433D01*
X10873041Y8300784D01*
Y8199217D01*
X10898433Y8173825D01*
X10949217D01*
X10923825Y8224608D02*
X10974608Y8173825D01*
X10949217D02*
X10974608Y8199217D01*
X11025392Y8300784D02*
X11050784Y8326175D01*
X11101567D01*
X11126959Y8300784D01*
Y8275392D01*
X11101567Y8250000D01*
X11076175D01*
X11101567D01*
X11126959Y8224608D01*
Y8199217D01*
X11101567Y8173825D01*
X11050784D01*
X11025392Y8199217D01*
X11092720Y8699500D02*
X11194287D01*
X11219679Y8724892D01*
Y8775675D01*
X11194287Y8801067D01*
X11092720D01*
X11067328Y8775675D01*
Y8724892D01*
X11118111Y8750283D02*
X11067328Y8699500D01*
Y8724892D02*
X11092720Y8699500D01*
X11067328Y8648716D02*
Y8597933D01*
Y8623324D01*
X11219679D01*
X11194287Y8648716D01*
X12750825Y11518703D02*
X12852393D01*
Y11493311D01*
X12827000Y11467919D01*
X12750825D01*
X12827000D01*
X12852393Y11442527D01*
X12827000Y11417135D01*
X12750825D01*
Y11340960D02*
Y11290177D01*
X12776217Y11264785D01*
X12827000D01*
X12852393Y11290177D01*
Y11340960D01*
X12827000Y11366352D01*
X12776217D01*
X12750825Y11340960D01*
Y11214001D02*
Y11137826D01*
X12776217Y11112434D01*
X12801608Y11137826D01*
Y11188609D01*
X12827000Y11214001D01*
X12852393Y11188609D01*
Y11112434D01*
X12750825Y11036259D02*
X12877783D01*
X12827000D01*
Y11061650D01*
Y11010867D01*
Y11036259D01*
X12877783D01*
X12903175Y11010867D01*
X12750825Y10858516D02*
Y10909300D01*
X12776217Y10934692D01*
X12827000D01*
X12852393Y10909300D01*
Y10858516D01*
X12827000Y10833124D01*
X12801608D01*
Y10934692D01*
X12877783Y10756949D02*
X12852393D01*
Y10782341D01*
Y10731557D01*
Y10756949D01*
X12776217D01*
X12750825Y10731557D01*
X12877783Y10553815D02*
X12903175Y10579207D01*
Y10629990D01*
X12877783Y10655382D01*
X12776217D01*
X12750825Y10629990D01*
Y10579207D01*
X12776217Y10553815D01*
X12903175Y10503031D02*
X12750825D01*
Y10401464D01*
Y10350681D02*
Y10299897D01*
Y10325289D01*
X12903175D01*
X12877783Y10350681D01*
X7086592Y12357125D02*
Y12509475D01*
X7010417Y12433300D01*
X7111984D01*
X11828747Y5798771D02*
X11727180D01*
Y5722595D01*
X11777963Y5747987D01*
X11803355D01*
X11828747Y5722595D01*
Y5671812D01*
X11803355Y5646420D01*
X11752572D01*
X11727180Y5671812D01*
X9169458Y5600675D02*
X9118674D01*
X9093282Y5575283D01*
Y5473717D01*
X9118674Y5448325D01*
X9169458D01*
X9194850Y5473717D01*
Y5575283D01*
X9169458Y5600675D01*
X9347200Y5575283D02*
X9321808Y5600675D01*
X9271025D01*
X9245633Y5575283D01*
Y5473717D01*
X9271025Y5448325D01*
X9321808D01*
X9347200Y5473717D01*
X9397984Y5600675D02*
Y5448325D01*
X9499551D01*
X9550334D02*
X9601118D01*
X9575726D01*
Y5600675D01*
X9550334Y5575283D01*
X9080459Y7378724D02*
Y7531075D01*
X9004283D01*
X8978892Y7505683D01*
Y7404116D01*
X9004283Y7378724D01*
X9080459D01*
X8826541D02*
X8928108D01*
Y7454899D01*
X8877325Y7429508D01*
X8851933D01*
X8826541Y7454899D01*
Y7505683D01*
X8851933Y7531075D01*
X8902716D01*
X8928108Y7505683D01*
X9093159Y8166124D02*
Y8318475D01*
X9016983D01*
X8991592Y8293083D01*
Y8191516D01*
X9016983Y8166124D01*
X9093159D01*
X8864633Y8318475D02*
Y8166124D01*
X8940808Y8242299D01*
X8839241D01*
X9347208Y7226283D02*
X9321817Y7251675D01*
X9271033D01*
X9245641Y7226283D01*
Y7124717D01*
X9271033Y7099325D01*
X9321817D01*
X9347208Y7124717D01*
X9397992Y7251675D02*
X9499559D01*
Y7226283D01*
X9397992Y7124717D01*
Y7099325D01*
X9944121Y7238983D02*
X9918729Y7264375D01*
X9867945D01*
X9842554Y7238983D01*
Y7137417D01*
X9867945Y7112025D01*
X9918729D01*
X9944121Y7137417D01*
X9994904Y7112025D02*
X10045688D01*
X10020296D01*
Y7264375D01*
X9994904Y7238983D01*
X10121863Y7112025D02*
X10172647D01*
X10147255D01*
Y7264375D01*
X10121863Y7238983D01*
X7899338Y8889975D02*
Y8737624D01*
X7823163D01*
X7797771Y8763016D01*
Y8813799D01*
X7823163Y8839191D01*
X7899338D01*
X7848555D02*
X7797771Y8889975D01*
X7746988D02*
X7696204D01*
X7721596D01*
Y8737624D01*
X7746988Y8763016D01*
X7518461Y8889975D02*
X7620029D01*
X7518461Y8788408D01*
Y8763016D01*
X7543853Y8737624D01*
X7594637D01*
X7620029Y8763016D01*
X7899359Y9205550D02*
Y9053199D01*
X7823183D01*
X7797792Y9078591D01*
Y9129375D01*
X7823183Y9154767D01*
X7899359D01*
X7848575D02*
X7797792Y9205550D01*
X7747008Y9180158D02*
X7721616Y9205550D01*
X7670833D01*
X7645441Y9180158D01*
Y9078591D01*
X7670833Y9053199D01*
X7721616D01*
X7747008Y9078591D01*
Y9103983D01*
X7721616Y9129375D01*
X7645441D01*
X6833317Y7677526D02*
X6807925Y7652134D01*
Y7601351D01*
X6833317Y7575959D01*
X6934884D01*
X6960276Y7601351D01*
Y7652134D01*
X6934884Y7677526D01*
X6960276Y7728310D02*
Y7779093D01*
Y7753702D01*
X6807925D01*
X6833317Y7728310D01*
Y7855269D02*
X6807925Y7880660D01*
Y7931444D01*
X6833317Y7956836D01*
X6934884D01*
X6960276Y7931444D01*
Y7880660D01*
X6934884Y7855269D01*
X6833317D01*
X7468309Y11150583D02*
X7442918Y11175975D01*
X7392134D01*
X7366742Y11150583D01*
Y11049017D01*
X7392134Y11023625D01*
X7442918D01*
X7468309Y11049017D01*
X7519093D02*
X7544485Y11023625D01*
X7595268D01*
X7620660Y11049017D01*
Y11150583D01*
X7595268Y11175975D01*
X7544485D01*
X7519093Y11150583D01*
Y11125192D01*
X7544485Y11099800D01*
X7620660D01*
X11842925Y7393561D02*
X11995275D01*
Y7317385D01*
X11969884Y7291993D01*
X11919100D01*
X11893708Y7317385D01*
Y7393561D01*
Y7342777D02*
X11842925Y7291993D01*
X11995275Y7241210D02*
Y7139643D01*
X11969884D01*
X11868317Y7241210D01*
X11842925D01*
D63*
X9863105Y8242250D02*
D03*
D64*
X9461020Y7459271D02*
D03*
%TF.MD5,213aaef14ddc9b1e755f406047ed05c8*%
M02*
