%TF.GenerationSoftware,Altium Limited,Altium Designer,24.6.1 (21)*%
G04 Layer_Color=128*
%FSLAX45Y45*%
%MOMM*%
%TF.SameCoordinates,0617DE4C-FBCD-45B3-9FC9-0F316C81E249*%
%TF.FilePolarity,Positive*%
%TF.FileFunction,Drillmap*%
%TF.Part,Single*%
G01*
G75*
%TA.AperFunction,NonConductor*%
%ADD112C,0.12700*%
D112*
X16931004Y4787900D02*
X17257394D01*
X17094200Y4624705D02*
Y4951095D01*
X6313805Y4787900D02*
X6640195D01*
X6477000Y4624705D02*
Y4951095D01*
X16931004Y13792198D02*
X17257394D01*
X17094200Y13629002D02*
Y13955392D01*
X7816700Y5334000D02*
X7956700D01*
X7886700Y5264000D02*
Y5404000D01*
X8451700Y5334000D02*
X8591700D01*
X8521700Y5264000D02*
Y5404000D01*
X7181700Y5334000D02*
X7321700D01*
X7251700Y5264000D02*
Y5404000D01*
X14859801Y5029200D02*
X14959801D01*
X14909801Y4979200D02*
Y5079200D01*
X14605800Y5029200D02*
X14705800D01*
X14655800Y4979200D02*
Y5079200D01*
X9455150Y5067300D02*
X9544050D01*
X9499600Y5022850D02*
Y5111750D01*
X9201150Y5067300D02*
X9290050D01*
X9245600Y5022850D02*
Y5111750D01*
X11450000Y8600000D02*
X11550000D01*
X11500000Y8550000D02*
Y8650000D01*
X11450000Y5984003D02*
X11550000D01*
X11500000Y5934003D02*
Y6034003D01*
X8195501Y10172700D02*
X8290501D01*
X8243001Y10125200D02*
Y10220200D01*
X7445500Y10172700D02*
X7540500D01*
X7493000Y10125200D02*
Y10220200D01*
X15991907Y11480800D02*
X16169707D01*
X16080807Y11391900D02*
Y11569700D01*
X15991907Y10972800D02*
X16169707D01*
X16080807Y10883900D02*
Y11061700D01*
X12236300Y10668000D02*
X12376300D01*
X12306300Y10598000D02*
Y10738000D01*
X12236300Y10922000D02*
X12376300D01*
X12306300Y10852000D02*
Y10992000D01*
X12236300Y11176000D02*
X12376300D01*
X12306300Y11106000D02*
Y11246000D01*
X10870702Y11976098D02*
X11125702D01*
X10998202Y11848598D02*
Y12103598D01*
X10870702Y9436098D02*
X11125702D01*
X10998202Y9308598D02*
Y9563598D01*
X10804954Y5339431D02*
X10944954D01*
X10874954Y5269431D02*
Y5409430D01*
X11439954Y5339431D02*
X11579954D01*
X11509954Y5269431D02*
Y5409430D01*
X10169954Y5339431D02*
X10309954D01*
X10239954Y5269431D02*
Y5409430D01*
X9337600Y6832600D02*
X9407600D01*
X9372600Y6797600D02*
Y6867600D01*
X9337600Y6582603D02*
X9407600D01*
X9372600Y6547603D02*
Y6617603D01*
X10388401Y7924800D02*
X10478400D01*
X10433401Y7879800D02*
Y7969800D01*
X10908400Y7924800D02*
X10998399D01*
X10953399Y7879800D02*
Y7969800D01*
X10648400Y7924800D02*
X10738400D01*
X10693400Y7879800D02*
Y7969800D01*
X10376700Y7416800D02*
X10476700D01*
X10426700Y7366800D02*
Y7466800D01*
X10605701Y7416800D02*
X10705701D01*
X10655701Y7366800D02*
Y7466800D01*
X10834698Y7416800D02*
X10934697D01*
X10884698Y7366800D02*
Y7466800D01*
X10388401Y8610600D02*
X10478400D01*
X10433401Y8565600D02*
Y8655600D01*
X10908400Y8610600D02*
X10998399D01*
X10953399Y8565600D02*
Y8655600D01*
X10648400Y8610600D02*
X10738400D01*
X10693400Y8565600D02*
Y8655600D01*
X7355998Y6743697D02*
X7435998D01*
X7395998Y6703698D02*
Y6783697D01*
X8311999Y6743697D02*
X8391998D01*
X8351999Y6703698D02*
Y6783697D01*
X7343303Y6426199D02*
X7423302D01*
X7383302Y6386200D02*
Y6466199D01*
X8299303Y6426199D02*
X8379303D01*
X8339303Y6386200D02*
Y6466199D01*
X7445500Y7772400D02*
X7540500D01*
X7493000Y7724900D02*
Y7819900D01*
X8195501Y7772400D02*
X8290501D01*
X8243001Y7724900D02*
Y7819900D01*
X9196100Y10083800D02*
X9296100D01*
X9246100Y10033800D02*
Y10133800D01*
X10084100Y10083800D02*
X10184100D01*
X10134100Y10033800D02*
Y10133800D01*
X10084100Y10412650D02*
X10184100D01*
X10134100Y10362650D02*
Y10462650D01*
X9196100Y10412650D02*
X9296100D01*
X9246100Y10362650D02*
Y10462650D01*
X10102700Y10731500D02*
X10182700D01*
X10142700Y10691500D02*
Y10771500D01*
X9146700Y10731500D02*
X9226700D01*
X9186700Y10691500D02*
Y10771500D01*
X8972999Y11442699D02*
X9072998D01*
X9022998Y11392699D02*
Y11492699D01*
X9723000Y11442699D02*
X9822999D01*
X9773000Y11392699D02*
Y11492699D01*
X8090700Y6032500D02*
X8190700D01*
X8140700Y5982500D02*
Y6082500D01*
X7836700Y6032500D02*
X7936700D01*
X7886700Y5982500D02*
Y6082500D01*
X7316000Y6032500D02*
X7416000D01*
X7366000Y5982500D02*
Y6082500D01*
X7570000Y6032500D02*
X7670000D01*
X7620000Y5982500D02*
Y6082500D01*
X7978303Y9118601D02*
X8058302D01*
X8018302Y9078601D02*
Y9158600D01*
X8934303Y9118601D02*
X9014303D01*
X8974303Y9078601D02*
Y9158600D01*
X9527703Y6083299D02*
X9607702D01*
X9567702Y6043300D02*
Y6123299D01*
X10483703Y6083299D02*
X10563703D01*
X10523703Y6043300D02*
Y6123299D01*
X7970200Y8813800D02*
X8050200D01*
X8010200Y8773800D02*
Y8853800D01*
X8926200Y8813800D02*
X9006200D01*
X8966200Y8773800D02*
Y8853800D01*
X8308900Y11203400D02*
X8378900D01*
X8343900Y11168400D02*
Y11238400D01*
X8308900Y11453400D02*
X8378900D01*
X8343900Y11418400D02*
Y11488400D01*
X8676500Y5981700D02*
X8741500D01*
X8709000Y5949200D02*
Y6014200D01*
X8476500Y5981700D02*
X8541500D01*
X8509000Y5949200D02*
Y6014200D01*
X13287000Y8166100D02*
X13357001D01*
X13322000Y8131100D02*
Y8201100D01*
X14049600Y8166100D02*
X14119600D01*
X14084599Y8131100D02*
Y8201100D01*
X14053613Y7933604D02*
X14123613D01*
X14088612Y7898604D02*
Y7968604D01*
X13291014Y7933604D02*
X13361012D01*
X13326013Y7898604D02*
Y7968604D01*
X14871500Y8826500D02*
X14973500D01*
X14922501Y8775500D02*
Y8877500D01*
X15125500Y8826500D02*
X15227499D01*
X15176500Y8775500D02*
Y8877500D01*
X13474211Y7531100D02*
X13564211D01*
X13519209Y7486100D02*
Y7576100D01*
X13474211Y7277100D02*
X13564211D01*
X13519209Y7232100D02*
Y7322100D01*
X13474211Y7023100D02*
X13564211D01*
X13519209Y6978100D02*
Y7068100D01*
X13474211Y6769100D02*
X13564211D01*
X13519209Y6724100D02*
Y6814100D01*
X14236211Y7531100D02*
X14326210D01*
X14281210Y7486100D02*
Y7576100D01*
X14236211Y7277100D02*
X14326210D01*
X14281210Y7232100D02*
Y7322100D01*
X14236211Y7023100D02*
X14326210D01*
X14281210Y6978100D02*
Y7068100D01*
X14236211Y6769100D02*
X14326210D01*
X14281210Y6724100D02*
Y6814100D01*
X13247200Y6261101D02*
X13317200D01*
X13282199Y6226101D02*
Y6296101D01*
X12997203Y6261101D02*
X13067203D01*
X13032204Y6226101D02*
Y6296101D01*
X15709706Y10147300D02*
X15809705D01*
X15759706Y10097300D02*
Y10197300D01*
X16459708Y10147300D02*
X16559708D01*
X16509708Y10097300D02*
Y10197300D01*
X12360200Y6396797D02*
X12430200D01*
X12395200Y6361797D02*
Y6431797D01*
X12360200Y6146800D02*
X12430200D01*
X12395200Y6111800D02*
Y6181800D01*
X12572500Y9410700D02*
X12827499D01*
X12700000Y9283200D02*
Y9538200D01*
X12572500Y11950700D02*
X12827499D01*
X12700000Y11823200D02*
Y12078200D01*
X10057203Y8242298D02*
X10172203D01*
X10114703Y8184798D02*
Y8299798D01*
X9157204Y8242298D02*
X9272204D01*
X9214704Y8184798D02*
Y8299798D01*
X10051903Y7459228D02*
X10166903D01*
X10109403Y7401728D02*
Y7516728D01*
X9151900Y7459228D02*
X9266900D01*
X9209400Y7401728D02*
Y7516728D01*
X9159405Y7861303D02*
X9239404D01*
X9199405Y7821303D02*
Y7901302D01*
X10115405Y7861303D02*
X10195405D01*
X10155405Y7821303D02*
Y7901302D01*
X13929538Y5026152D02*
X14009538D01*
X13969537Y4986152D02*
Y5066152D01*
X13929538Y5982152D02*
X14009538D01*
X13969537Y5942152D02*
Y6022152D01*
X15959599Y7411872D02*
X16109598D01*
X16034598Y7336873D02*
Y7486872D01*
X15959599Y9671873D02*
X16109598D01*
X16034598Y9596873D02*
Y9746873D01*
X14877499Y6616700D02*
X14967500D01*
X14922501Y6571700D02*
Y6661700D01*
X14877499Y6362700D02*
X14967500D01*
X14922501Y6317700D02*
Y6407700D01*
X14877499Y6108700D02*
X14967500D01*
X14922501Y6063700D02*
Y6153700D01*
X13096800Y7247703D02*
X13166800D01*
X13131799Y7212703D02*
Y7282703D01*
X13096800Y6747699D02*
X13166800D01*
X13131799Y6712699D02*
Y6782699D01*
X14688300Y7099301D02*
X14758299D01*
X14723299Y7064301D02*
Y7134300D01*
X15188303Y7099301D02*
X15258302D01*
X15223303Y7064301D02*
Y7134300D01*
X15913100Y6616700D02*
X16090900D01*
X16002000Y6527800D02*
Y6705600D01*
X15913100Y6108700D02*
X16090900D01*
X16002000Y6019800D02*
Y6197600D01*
X14541351Y12042638D02*
X14636353D01*
X14588852Y11995138D02*
Y12090138D01*
X13791351Y12042638D02*
X13886351D01*
X13838850Y11995138D02*
Y12090138D01*
X9934500Y6705600D02*
X10004500D01*
X9969500Y6670600D02*
Y6740600D01*
X10184502Y6705600D02*
X10254502D01*
X10219502Y6670600D02*
Y6740600D01*
X11100702Y12992097D02*
X11250702D01*
X11175702Y12917099D02*
Y13067097D01*
X8840701Y12992097D02*
X8990701D01*
X8915701Y12917099D02*
Y13067097D01*
X9838599Y12103100D02*
X9993599D01*
X9916099Y12025600D02*
Y12180600D01*
X7338599Y12103100D02*
X7493599D01*
X7416099Y12025600D02*
Y12180600D01*
X8838601Y12103100D02*
X8993601D01*
X8916101Y12025600D02*
Y12180600D01*
X8088600Y12103100D02*
X8243600D01*
X8166100Y12025600D02*
Y12180600D01*
X14961400Y7569200D02*
X15061400D01*
X15011400Y7519200D02*
Y7619200D01*
X14961400Y7823200D02*
X15061400D01*
X15011400Y7773200D02*
Y7873200D01*
X14961400Y8077200D02*
X15061400D01*
X15011400Y8027200D02*
Y8127200D01*
X8089900Y12928600D02*
X8267700D01*
X8178800Y12839700D02*
Y13017500D01*
X7581900Y12928600D02*
X7759700D01*
X7670800Y12839700D02*
Y13017500D01*
X6313803Y13792198D02*
X6640193D01*
X6476998Y13629002D02*
Y13955392D01*
X14234801Y5982152D02*
X14314799D01*
X14274800Y5942152D02*
Y6022152D01*
X14234801Y5026152D02*
X14314799D01*
X14274800Y4986152D02*
Y5066152D01*
X11816600Y10871200D02*
X11881600D01*
X11849100Y10838700D02*
Y10903700D01*
X11816600Y11125200D02*
X11881600D01*
X11849100Y11092700D02*
Y11157700D01*
X13637900Y5026147D02*
X13717900D01*
X13677901Y4986147D02*
Y5066147D01*
X13637900Y5982147D02*
X13717900D01*
X13677901Y5942147D02*
Y6022147D01*
X12736200Y7091202D02*
X12816200D01*
X12776200Y7051203D02*
Y7131202D01*
X12736200Y8047203D02*
X12816200D01*
X12776200Y8007203D02*
Y8087203D01*
X15125500Y8534401D02*
X15227501D01*
X15176501Y8483401D02*
Y8585401D01*
X14871501Y8534401D02*
X14973502D01*
X14922501Y8483401D02*
Y8585401D01*
X15520200Y5029200D02*
X15620200D01*
X15570200Y4979200D02*
Y5079200D01*
X15266200Y5029200D02*
X15366200D01*
X15316200Y4979200D02*
Y5079200D01*
X15125499Y9118599D02*
X15227499D01*
X15176498Y9067599D02*
Y9169599D01*
X14871500Y9118599D02*
X14973499D01*
X14922499Y9067599D02*
Y9169599D01*
X11368733Y11214100D02*
X11468732D01*
X11418733Y11164100D02*
Y11264100D01*
X11368733Y10960100D02*
X11468732D01*
X11418733Y10910100D02*
Y11010100D01*
X11368733Y10706100D02*
X11468732D01*
X11418733Y10656100D02*
Y10756100D01*
X15307001Y10058400D02*
X15427000D01*
X15367000Y9998400D02*
Y10118400D01*
X15307001Y10439400D02*
X15427000D01*
X15367000Y10379400D02*
Y10499400D01*
X15307001Y10820400D02*
X15427000D01*
X15367000Y10760400D02*
Y10880400D01*
X15307001Y11201400D02*
X15427000D01*
X15367000Y11141400D02*
Y11261400D01*
X13791351Y10281468D02*
X13886351D01*
X13838850Y10233968D02*
Y10328968D01*
X14541351Y10281468D02*
X14636353D01*
X14588852Y10233968D02*
Y10328968D01*
X12852400Y5257800D02*
X13030200D01*
X12941299Y5168900D02*
Y5346700D01*
X12344400Y5257800D02*
X12522200D01*
X12433300Y5168900D02*
Y5346700D01*
X11864440Y9800000D02*
X11935560D01*
X11900000Y9764440D02*
Y9835560D01*
X9387840Y9258300D02*
X9458960D01*
X9423400Y9222740D02*
Y9293860D01*
%TF.MD5,2c351d6a9aaccdb6a68c757b87a2aa8d*%
M02*
