%TF.GenerationSoftware,Altium Limited,Altium Designer,24.6.1 (21)*%
G04 Layer_Color=16711935*
%FSLAX45Y45*%
%MOMM*%
%TF.SameCoordinates,0617DE4C-FBCD-45B3-9FC9-0F316C81E249*%
%TF.FilePolarity,Negative*%
%TF.FileFunction,Soldermask,Bot*%
%TF.Part,Single*%
G01*
G75*
%TA.AperFunction,ComponentPad*%
%ADD13C,3.26390*%
%ADD19R,1.55000X1.55000*%
%ADD20C,1.55000*%
%ADD21R,1.45000X1.45000*%
%ADD22C,1.45000*%
%ADD23C,2.72800*%
%ADD24R,2.72800X2.72800*%
%ADD25C,2.15000*%
%ADD26R,2.15000X2.15000*%
%ADD27R,3.85000X3.85000*%
%ADD28C,3.85000*%
%ADD29R,1.20000X1.20000*%
%ADD30C,1.20000*%
%ADD33C,1.30000*%
%ADD34R,1.30000X1.30000*%
%ADD35R,1.55000X1.55000*%
%ADD36C,1.15000*%
%ADD37R,1.15000X1.15000*%
%ADD38R,1.20000X1.20000*%
%ADD43R,1.30000X1.30000*%
%ADD44R,2.30000X2.30000*%
%ADD45C,2.30000*%
%ADD46R,2.30000X2.30000*%
%ADD47R,2.35000X2.35000*%
%ADD48C,2.35000*%
%ADD50R,2.72800X2.72800*%
%ADD51R,1.15000X1.15000*%
%ADD54R,1.85000X1.85000*%
%ADD55C,1.85000*%
%ADD65C,2.10320*%
%ADD66R,2.10320X2.10320*%
%ADD67C,1.80320*%
%ADD68C,1.60320*%
%ADD69R,1.60320X1.60320*%
%ADD70R,1.60320X1.60320*%
%ADD71R,1.80320X1.80320*%
%ADD72C,1.75320*%
%ADD73R,1.75320X1.75320*%
%ADD74R,1.70320X1.70320*%
%ADD75C,1.70320*%
%ADD76C,1.85320*%
%ADD77R,1.85320X1.85320*%
%ADD78R,1.80320X1.80320*%
%ADD79C,1.80320*%
%ADD80R,1.80320X1.80320*%
%TA.AperFunction,ViaPad*%
%ADD81C,1.47320*%
D13*
X17094200Y4787900D02*
D03*
X6477000D02*
D03*
X17094200Y13792198D02*
D03*
X6476998D02*
D03*
D19*
X11500000Y8600000D02*
D03*
D20*
Y5984003D02*
D03*
X10134100Y10083800D02*
D03*
X9246100Y10412650D02*
D03*
X9773000Y11442699D02*
D03*
X15759706Y10147300D02*
D03*
D21*
X8243001Y10172700D02*
D03*
Y7772400D02*
D03*
X14588852Y12042638D02*
D03*
Y10281468D02*
D03*
D22*
X7493000Y10172700D02*
D03*
Y7772400D02*
D03*
X13838850Y12042638D02*
D03*
Y10281468D02*
D03*
D23*
X16080807Y11480800D02*
D03*
X16002000Y6616700D02*
D03*
X7670800Y12928600D02*
D03*
X12433300Y5257800D02*
D03*
D24*
X16080807Y10972800D02*
D03*
X16002000Y6108700D02*
D03*
D25*
X12306300Y10668000D02*
D03*
Y10922000D02*
D03*
D26*
Y11176000D02*
D03*
D27*
X10998202Y11976098D02*
D03*
X12700000Y11950700D02*
D03*
D28*
X10998202Y9436098D02*
D03*
X12700000Y9410700D02*
D03*
D29*
X9372600Y6832600D02*
D03*
X8343900Y11453400D02*
D03*
X12395200Y6146800D02*
D03*
X13131799Y6747699D02*
D03*
D30*
X9372600Y6582603D02*
D03*
X8343900Y11203400D02*
D03*
X13322000Y8166100D02*
D03*
X14088612Y7933604D02*
D03*
X13282199Y6261101D02*
D03*
X12395200Y6396797D02*
D03*
X13131799Y7247703D02*
D03*
X14723299Y7099301D02*
D03*
X9969500Y6705600D02*
D03*
D33*
X7395998Y6743697D02*
D03*
X7383302Y6426199D02*
D03*
X9186700Y10731500D02*
D03*
X8018302Y9118601D02*
D03*
X10523703Y6083299D02*
D03*
X8966200Y8813800D02*
D03*
X9199405Y7861303D02*
D03*
X13969537Y5026152D02*
D03*
X14274800Y5982152D02*
D03*
X13677901Y5982147D02*
D03*
X12776200Y8047203D02*
D03*
D34*
X8351999Y6743697D02*
D03*
X8339303Y6426199D02*
D03*
X10142700Y10731500D02*
D03*
X8974303Y9118601D02*
D03*
X9567702Y6083299D02*
D03*
X8010200Y8813800D02*
D03*
X10155405Y7861303D02*
D03*
D35*
X9246100Y10083800D02*
D03*
X10134100Y10412650D02*
D03*
X9022998Y11442699D02*
D03*
X16509708Y10147300D02*
D03*
D36*
X8709000Y5981700D02*
D03*
X11849100Y11125200D02*
D03*
D37*
X8509000Y5981700D02*
D03*
D38*
X14084599Y8166100D02*
D03*
X13326013Y7933604D02*
D03*
X13032204Y6261101D02*
D03*
X15223303Y7099301D02*
D03*
X10219502Y6705600D02*
D03*
D43*
X13969537Y5982152D02*
D03*
X14274800Y5026152D02*
D03*
X13677901Y5026147D02*
D03*
X12776200Y7091202D02*
D03*
D44*
X16034598Y7411872D02*
D03*
D45*
Y9671873D02*
D03*
X11175702Y12992097D02*
D03*
D46*
X8915701D02*
D03*
D47*
X9916099Y12103100D02*
D03*
D48*
X7416099D02*
D03*
X8916101D02*
D03*
X8166100D02*
D03*
D50*
X8178800Y12928600D02*
D03*
X12941299Y5257800D02*
D03*
D51*
X11849100Y10871200D02*
D03*
D54*
X15367000Y10058400D02*
D03*
D55*
Y10439400D02*
D03*
Y10820400D02*
D03*
Y11201400D02*
D03*
D65*
X7886700Y5334000D02*
D03*
X8521700D02*
D03*
X10874954Y5339431D02*
D03*
X11509954D02*
D03*
D66*
X7251700Y5334000D02*
D03*
X10239954Y5339431D02*
D03*
D67*
X14909801Y5029200D02*
D03*
X14655800D02*
D03*
X10426700Y7416800D02*
D03*
X10655701D02*
D03*
X8140700Y6032500D02*
D03*
X7886700D02*
D03*
X7366000D02*
D03*
X7620000D02*
D03*
X15011400Y7569200D02*
D03*
Y7823200D02*
D03*
X15570200Y5029200D02*
D03*
X15316200D02*
D03*
D68*
X9499600Y5067300D02*
D03*
X10953399Y7924800D02*
D03*
X10693400D02*
D03*
X10953399Y8610600D02*
D03*
X10693400D02*
D03*
D69*
X9245600Y5067300D02*
D03*
D70*
X10433401Y7924800D02*
D03*
Y8610600D02*
D03*
D71*
X10884698Y7416800D02*
D03*
D72*
X14922501Y8826500D02*
D03*
X14922501Y8534401D02*
D03*
X15176498Y9118599D02*
D03*
D73*
X15176500Y8826500D02*
D03*
X15176501Y8534401D02*
D03*
X14922499Y9118599D02*
D03*
D74*
X13519209Y7531100D02*
D03*
X14922501Y6108700D02*
D03*
D75*
X13519209Y7277100D02*
D03*
Y7023100D02*
D03*
Y6769100D02*
D03*
X14281210Y7531100D02*
D03*
Y7277100D02*
D03*
Y7023100D02*
D03*
Y6769100D02*
D03*
X14922501Y6616700D02*
D03*
Y6362700D02*
D03*
D76*
X10114703Y8242298D02*
D03*
X9209400Y7459228D02*
D03*
D77*
X9214704Y8242298D02*
D03*
X10109403Y7459228D02*
D03*
D78*
X15011400Y8077200D02*
D03*
D79*
X11418733Y11214100D02*
D03*
Y10960100D02*
D03*
D80*
Y10706100D02*
D03*
D81*
X11900000Y9800000D02*
D03*
X9423400Y9258300D02*
D03*
%TF.MD5,cc49f3c732313ccc314997cf633b0b04*%
M02*
